<svg xmlns="http://www.w3.org/2000/svg" xmlns:xlink="http://www.w3.org/1999/xlink" xml:space="preserve" id="svg1" width="1559.5717" height="1032.4935" version="1.1" viewBox="0 0 1559.5717 1032.4935">
  <style id="style_common">
    .trees { fill:#144043 }
    .cement { fill:#c6c2c2 }
    .land { fill:#1f5054 }
    .rock { fill:#dcd5b6 }
    .water { fill:#4a6b96 }
    .wood { fill:#593700 }
    .tarmac { fill:#768089 }
    .gravel { fill:#946d3e }
    .building { fill:#1a2632 }
    .floor { fill:#70777f }
    .locked { fill:#37414c }
    .map_border { fill:none;stroke:#000;stroke-width:2 }
    .fence { fill:none;stroke:#c4e3c3;stroke-width:1 }
    .road_tarmac { fill:none;stroke:#888 }
    .road_gravel { fill:none;stroke:#946d3e }
    .road_small { stroke-width:5 }
    .road_medium { stroke-width:8 }
    .road_large { stroke-width:12 }
    .railroad { fill:none;stroke:#914833;stroke-dasharray:6;stroke-width:3 }
    .powerline { fill:none;stroke:#ffce00;stroke-width:2;stroke-miterlimit:10;stroke-dasharray:6,6 }
    .danger { fill:red;fill-opacity:.4;stroke:red;stroke-dasharray:4,2;stroke-width:2 }
    .task { fill:#000 }
    .stairs { fill:#FFD700 }
    .shadow { filter:drop-shadow(0 0 2px #000) }
  </style>
  <style id="style_shoreline">
    .plane{ fill:#FFF }
  </style>
  <defs id="defs1">
    <g id="Stairs_Common">
      <g id="Stairs-Common-E" transform="translate(5.2606)">
        <path d="M793.422 306.488v-.711l.234-.003c.129-.001.348 0 .486.002l.252.004.003-.763.003-.764.703-.003.702-.003v2.953h-2.383z"/>
        <path d="M790.541 305.723v-1.476l.708.003.709.003.003.764.003.763.252-.004c.138-.002.357-.003.486-.002l.234.003v1.423h-2.395z"/>
        <path d="M853.547 317.633v-2.241h2.952v4.482h-1.387v-2.537h-.178v2.537h-1.387z"/>
        <path d="M796.232 321.19v-2.098h1.352v2.146h.486v-2.146h1.366l-.007.018c-.004.011-.007.955-.007 2.099v2.08h-3.19z"/>
      </g>
      <g id="Stairs-Common-W" transform="translate(5.2606)">
        <path d="M697.495 322.427c-.004-.48-.008-1.413-.008-2.072v-1.199l-.014-.014-.014-.015h1.38v2.134h.486v-2.134h1.363v4.174h-3.185z"/>
        <path d="m703.985 306.503.004-.708.483-.003.483-.003v-1.518h1.423v.49c0 .27-.004.932-.008 1.471l-.008.98h-2.38z"/>
        <path d="M701.109 306.225c-.004-.543-.008-1.205-.008-1.471v-.483h1.423v1.518l.483.003.484.003.003.708.003.709h-2.38z"/>
        <path d="M640.427 317.645v-2.241h2.952v4.482h-1.387l-.002-.258c0-.142-.001-.716-.001-1.275l.001-1.017h-.185v1.017c0 .559 0 1.133-.001 1.275l-.002.258h-1.375z"/>
      </g>
    </g>
  </defs>
  
  
  
  <g id="Second_Floor" class="shadow">
    <g id="Stairs-2" class="stairs">
      <use xlink:href="#Stairs-Common-E" id="Stairs-2-E" x="0" y="0" transform="translate(2.36316 9.51307)"/>
      <g id="Stairs-2-A">
        <path d="m754.444 280.561-.737-.004-.001-.247c-.002-.327-.002-2.405-.001-2.731l.002-.255h4.837v3.234h-.737c-.406 0-1.162.002-1.681.003-.52.002-1.276.002-1.682 0z"/>
      </g>
      <use xlink:href="#Stairs-Common-W" id="Stairs-2-W" x="0" y="0" transform="translate(2.36316 9.51307)"/>
    </g>
    <g id="Floors-2" class="floor">
      <path id="Floor-2-E" d="M785.214 309.356v1.518h.213v.249h-3.403v7.114h1.221v.248l-2.332-.002-2.333-.003-.004-1.571c-.002-.864 0-1.653.005-1.752l.008-.181h.234v.178h.735v.237h-.723v2.857h2.928v-2.857h-.711v-.237h.723l-.003-2.019-.002-2.019-1.408-.002-1.407-.003-.004.062-.003.062-.062.004-.063.003v2.24h-.237v-2.241h-6.023v6.805h-21.278l.006 3.255h21.272v.208h.617v.237h-.617v7.126h.273v.249h-.273v1.506l3.009-.003 3.008-.003.003-.75.004-.75-.158-.003-.157-.003-.003-.121-.004-.122h3.511v-4.031l-1.426-.003-1.426-.003-.003-1.545-.003-1.544h-.652v-.236l1.811-.004c.996-.002 2.608-.002 3.581 0l1.769.004v.354h1.483v-.234l-.002-.121h2.716v.098c0 .053.004.133.008.177l.008.08h1.463l.008-.08c.004-.044.007-.123.007-.177v-.097l1.776-.004c.976-.002 2.579-.002 3.563 0l1.787.004v.366h1.494l-.008-.184-.008-.183h1.438l.004 3.619.003 3.619 1.342.003 1.343.003v.095l.679.003.679.003.003.987.003.987h.474l.003-.987.003-.987.681-.003.681-.003.012.011.012.013h.209v3.806h.324l-.009.184-.007.183h1.494v-.367h1.019v.877h.845c.465.001.857.004.872.008l.026.007v.234h-.035v2.644h-1.708v4.482h.261v.249h-.261v.752l-.001.754h6.13v-1.518h-.427v-.237l.222-.001c.123-.001.937-.002 1.811-.003l1.589-.003v-4.031l-1.426-.003-1.425-.003v-3.082h-.522v-.233l.393-.008c.513-.01 5.578-.01 6.252 0l.52.008-.008.181-.008.182h1.495v-.365l.613-.004c.337-.003.948-.003 1.358 0l.744.004v.235h-1.352v7.128l1.586-.002c.872-.001 1.675-.002 1.784-.001l.199.001v.237h-.379v1.518h6.129v-1.518h-4.256v-.237h1.067v-4.043h-2.846v-.475h.237l.003.116.003.116 1.301.003 1.302.003v-2.846h-2.608v1.115h-.238v-1.115h-.45v-.233l.329-.008c.428-.01 5.703-.01 6.201 0l.382.008v.232l-.258.004-.258.003-.003.554-.003.555h-.237v-1.115h-2.608v2.845h2.608v-.236h.238v.474h-2.846v4.045l1.591-.002c.876-.001 1.69-.002 1.809-.001l.216.001v.237h-.427v1.517h6.13v-1.517h-.261v-.237l.139-.001c.077-.001.855-.002 1.728-.003l1.59-.002v-4.032l-1.426-.003-1.426-.003v-3.083h-.368v-.233l.276-.007c.36-.011 5.611-.011 6.19 0l.447.007v.234h-.593v3.082h-2.846v4.045l1.586-.002c.872 0 1.646-.001 1.719-.001l.134.001v.237h-.249v1.518h6.13v-1.518h-.191v-.237l.104-.001c.057 0 .818 0 1.69.001l1.586.002v-4.045h-2.846v-.474h.237l.003.115.004.116 1.301.003 1.301.003v-2.846l-1.301.003-1.301.003-.003.555-.003.554h-.237v-1.115h-.534v-.234l.525-.008c.289-.005 1.904-.005 3.589.001l3.065.01.004.584.003.584h.226l-.004.122-.003.121-.11.004-.11.003v1.884h-3.557v4.055h1.055v.248l-2.122-.007-2.122-.008v1.522h6.129v-1.506h-.391v-.249h3.581v-5.94h-.865v-.249l.927.003.928.003.003.122.004.121h-.748v5.94h1.079v.25h-4.268v1.505h6.011v-1.505l-.127-.004-.128-.003-.003-.122-.004-.121h.262v-5.94h-.593v-.249h.593v-5.367l-2.223.008-2.223.008v-2.545h-.179v2.545h-1.387v1.237h-1.589l.003-.121.004-.122.673-.003.673-.003v-5.708h3.177v-1.406h-6.13v7.114h.119v.249h-1.531l.003-.121v-.234h-1.482v.355h-7.162v-.355h-1.482v.355h-11.358v-.249h.652v-3.082h2.846v-4.032h-1.032v-.249h2.466v.249h-1.186v4.032h2.858v3.082h3.284v-7.114h-3.462v-.249h.261v-1.505h-6.13v1.505h.427v.249h-3.616v7.114l.572.003.572.003.003.122.003.121h-2.466v-.367h-1.495v.367h-7.398v-.367h-1.494v.367h-2.467l.004-.121.003-.122.578-.003.578-.003v-7.114h-3.379v-.249h.177v-1.505h-6.011v1.505h.391v.249h-.391v.119h-.118v2.324h-.249v-2.324h-6.438v-4.304l-3.021-.003-3.021-.003-.002-.246-.004-.246h.25v.249h5.798v-1.871h-5.798v.249h-.249v-.497h.533v-2.929h.225v-.024l.721.003.72.003.003.762.003.762h.972v1.423h.486v-1.423h.972v-1.529h1.411v-2.636h-1.422v-.26h1.422v-1.506h-5.454v1.506h1.553v.261l-2.371-.008-2.371-.008v7.378h-1.446v-.249h1.197v-7.114h-3.415v-.249h.226v-1.517h-3.065zm1.694 1.518h2.716v.249h-1.221v4.031h2.846v.486h-.237l-.003-.121-.004-.122-1.301-.003-1.301-.003v2.846h2.608v-1.115h.238v1.115h.605l-.003.121-.004.122-3.551.003c-1.954.001-3.556-.001-3.56-.005-.005-.004-.009-.06-.009-.125v-.116h.581v-3.083h2.846v-4.031l-.619-.003-.62-.003-.003-.122zm.321 8.471.146.146.145.145h1.885l.145-.145.146-.146.086.086.085.086-.183.184-.184.184h-2.075l-.184-.184-.183-.184.085-.086zm.196 1.524h2.073l.182.18c.21.209.202.188.111.274l-.07.067h-.053l-.138-.136-.138-.136h-1.872l-.149.148-.148.149-.086-.087-.086-.086.188-.186zm-12.752.64h2.111v.238h-1.151v7.125h1.151v.249h-2.467v-.249h1.067v-7.125h-.711v-.119zm73.999 1.387-.008.125c-.005.068-.005.175 0 .237l.008.112h1.466l.008-.112c.005-.062.005-.169 0-.237l-.008-.125h-.733zm3.946 0v.474h1.482v-.474h-.741zm2.466 0v.474h1.482v-.474h-.741zm-42.981.119h2.468v.249h-1.269v4.031h2.846v3.083h.651v.249h-6.936v-3.439h.249v.119h.735v.225l-.364.003-.365.003v2.846l1.468.002 1.467.004v-2.858h-.724v-.225h.724v-4.043l-.472-.003-.471-.003-.003-.122zm36.282 4.731v1.48l.057.004c.03.002.115.003.187.001.071-.001.152-.002.18-.003h.051v-1.482h-.238zm-62.958 1.008v.474h1.481l.004-.057c.002-.031.002-.137 0-.237l-.004-.18h-.74zm4.213 0-.008.08c-.004.043-.008.114-.008.156 0 .043.004.114.008.158l.008.08h1.464l.009-.113c.004-.062.004-.169 0-.237l-.009-.124h-.732zm36.327 2.12c.395.001.825.052 1.005.144.105.054.17.155.197.311l.018.098-.014.273-.013.272.036.249c.02.137.043.305.05.374l.014.124-.007.101c-.003.055-.015.129-.026.164l-.019.063-.043.047c-.115.128-.263.149-.77.109l-.264-.02-.293.02c-.627.044-.79.008-.833-.185l-.012-.053.013-.07c.016-.087.066-.218.18-.467.05-.109.105-.239.123-.291l.033-.093-.001-.101v-.101l-.026-.073c-.014-.04-.051-.131-.081-.202-.03-.07-.069-.166-.085-.211l-.031-.083v-.09l-.002-.09.033-.048.031-.048.064-.031c.129-.064.415-.093.722-.092zm-13 2.691c.063-.002.45-.002.86.001l.744.004v.234h-1.269v7.126h1.031v.233l-.773.008c-.426.004-.981.008-1.233.008h-.46v-.249h1.186v-7.126h-.202v-.234zm25.035 0c.386-.002 1.053-.002 1.482 0l.779.004v.235h-1.434v7.126h1.186v.237h-2.467v-.237h1.032v-7.126h-1.281v-.235zm12.811 0c.364-.002.975-.002 1.358 0l.696.004v.235h-1.268v7.126h1.268v.237h-2.715v-.237h1.198v-7.126h-1.198v-.235z"/>
      <path id="Floor-2-A" d="M744.93 260.523v1.684l-1.865.003-1.864.004-.004 2.233-.003 2.021h1.399v2.147h.327v.285h-.327v3.2h-1.195v.232l-.14-.004-.139-.004-.003-.254-.004-.255h1.209l-.003-2.368-.003-2.7h-1.114l-.005.071-.004.071h-2.389v5.347l-2.837.003-2.836.004-.004 6.905-.003 6.573h13.506l-.004-1.729-.004-1.729-1.487-.003c-.819-.001-2.183-.003-3.033-.003l-1.546-.001v-.707h.271l.004.214.004.214 1.396.004 1.396.004v-3.846h-2.799v1.698h-.271l-.004-.852-.004-.853-1.253-.003-1.253-.003v-4.403h3.069l.004-.105.004-.105.139-.004.14-.004v4.349h2.513v4.13h6.277v.272h-3.274v3.465h.136v4.673h18.138v-4.673h.135v-1.006h.286v1.006h4.171v-3.452h-.136v-.285h.421v3.737h9.126v-7.514l-4.34-.003-4.249-.004-.004-.173-.004-.173h.246v-1.563h.271l.004.812.003.812 3.991.003 4.082.004v-5.686h-5.756v-.136h-2.323v2.479h-.272V272.1h-1.196v-.462h.286v.177h3.505v-4.926h-2.405v-.135h-1.1v3.505h-.286V268.9h-.312v-.285h.312v-2.147h1.386v-4.261h-3.723v-1.684h-1.562v8.092l.941.003.941.004.003.139.004.139h-1.889v1.889h1.671v5.027h-1.671v3.233h-7.201v1.522h-4.851v-1.522h-7.2v-3.233h-1.672v-5.027h1.672V268.9h-1.862v-.285h1.862v-8.092h-.782zm-4.96 6.54.085.04c.104.049.184.111.446.345.239.212.334.285.434.335l.076.037.135.005c.075.003.216-.003.313-.013.097-.01.232-.018.301-.017h.124l.075.037.076.037.027.045c.015.024.035.076.043.115l.015.071-.015.137c-.067.577-.466 1.55-.701 1.712-.03.02-.09.047-.135.058-.152.04-.262.018-.643-.123l-.235-.087-.138-.026c-.077-.015-.253-.045-.391-.068-.492-.08-.686-.166-.765-.34l-.029-.062.001-.109.002-.109.03-.108c.016-.06.084-.247.15-.415l.121-.306.056-.238c.157-.656.213-.802.347-.905l.049-.036.073-.006zm13.723 8.943v1.318h4.851v-1.318h-2.425zm14.633 1.848h.571v.34h-.272v3.79h.163v.285h-3.179v.735h-.286v-.748h-2.703v-.271l2.85-.004 2.849-.003.004-2.062zm5.906 2.577h.097l.075.037.076.037.062.069c.084.094.133.18.259.46l.107.237.106.156c.059.086.153.221.209.299.145.203.221.339.267.473l.041.117-.008.077c-.019.215-.153.319-.716.556-.293.123-.318.136-.639.33-.248.151-.49.273-.583.294-.144.033-.237.011-.309-.071l-.044-.05-.021-.071c-.034-.115-.046-.216-.061-.534-.032-.634-.038-.647-.469-1.009-.333-.279-.375-.419-.187-.617l.078-.082.158-.105c.467-.31 1.196-.602 1.502-.603zm-22.345 1.553h9.035v.272h-9.035v-.136z"/>
      <path id="Floor-2-W" d="M720.832 309.354v1.506h.237v.248h-3.438v7.114h1.209v.249h-1.446v-7.361l-.011-.007c-.006-.004-1.954-.003-4.328.002l-4.316.007v2.671h1.422l.002.246c.001.136.001.477 0 .759l-.002.513h.972v1.423h.498v-1.423h.972v-1.518h.645c.354 0 .725.004.824.008l.179.008v2.924h.534v2.341h-6.046v4.304h-6.427v2.146h-.367v1.494h.367v3.604h-6.936v-.237h.64v-1.15h.249v1.15h2.597v-2.845h-2.597v.214l-.121-.004-.122-.003-.003-.228-.003-.228h2.857v-4.032h-6.141l.003 3.56.003 3.56.578.003.578.003v.237h-2.466v-.237h1.055v-7.125h-1.055v-.249h4.257l-.004-.751-.003-.749-3.068-.003-3.067-.004v1.507h.403v.249h-3.593v4.031h2.845v.462h-.236v-.213h-2.609v2.845l1.301-.003 1.302-.003.003-.572.003-.572h.237l.003.572.003.572.371.003.37.004v.235l-1.865.004c-1.025.002-2.693.002-3.707 0l-1.842-.004.008-.183.008-.183h-1.507l.008.184.008.183h-2.47v-.098c0-.053-.003-.134-.007-.178l-.008-.08h-1.463l-.008.08c-.004.044-.007.124-.007.178l-.001.097-1.811.004c-.996.002-2.604.002-3.574 0l-1.764-.004v-.097c0-.054-.004-.134-.008-.178l-.008-.08h-1.463l-.007.08c-.004.044-.008.125-.008.178v.098h-2.703v-.098c0-.053-.004-.134-.008-.178l-.007-.08h-1.479v.355l-1.758.004c-.967.001-3.245.001-5.063 0l-3.305-.004v-.235l.033-.003.032-.004.003-3.56.003-3.56h-6.141v1.407h3.189l.003 2.794.003 2.919.697.003.696.003v.237h-1.636v-1.207h-1.399v-2.587h-.166v2.587h-.633c-.348 0-.849-.003-1.114-.008l-.482-.007v-.234h.593v-5.906h-2.822l.003 2.996.003 2.904.37.003.371.004v.237h-.747v5.332l.37.003.371.004.003.121.004.122h-.748v5.94h2.822v-5.94h-.593v-.249h1.719v.249h-.877v5.94h3.605l-.003.122-.004.121-.204.003-.205.003v.745c0 .41.004.748.008.753.004.004 1.386.008 3.071.008h3.063v-1.505l-.146-.004-.145-.003-.003-.122-.004-.121h3.487v-7.126h-1.257v-.236l.691-.003c.38-.003.99-.003 1.357 0l.667.003v.236h-1.209v7.126h6.13v-4.043h-2.846v-.487h.236l.004.122.004.122 1.301.003 1.301.003v-2.846l-1.301.003-1.301.003-.004.554-.003.555h-.237v-1.115h-.592v-.233l.446-.008c.58-.01 5.806-.01 6.18 0l.286.008v.352h1.482l.001-.057c0-.03 0-.11-.001-.176l-.001-.121.78-.004c.429-.002 1.097-.002 1.483 0l.702.004v.354h1.482l.001-.057c0-.03 0-.11-.001-.175l-.001-.12.383-.008c.499-.01 5.748-.01 6.191 0l.34.008v.096c0 .052.003.132.007.176l.008.08h1.463l.008-.08c.004-.044.008-.124.008-.177v-.097l.738-.004c.405-.002 1.014-.002 1.351 0l.614.004v.235h-1.115v7.126h3.594l-.004.121-.003.122-.199.003-.199.003v1.506l3.068-.003 3.068-.003.004-.75.003-.749-.152-.003-.151-.004-.003-.121-.004-.122h3.499v-7.126h-1.269v-.234l.738-.004c.406-.003.796-.003.866 0l.127.003v.235h-.213v7.126h1.197v.249h-4.398l.002.75.004.75 3.068.003 3.068.003v-1.506h-.261v-.249h.261v-4.47h-1.708v-2.656h-.036v-.234l.027-.007c.015-.004.407-.008.872-.008h.845v-.725h1.221v.249h-.972v2.16h2.869v2.253h-2.869v3.438h.225v.249h-.225v1.506h6.011v-1.506h-.344v-.249h.344v-7.851h-3.557v-.249h.118v-3.956l.098-.008c.054-.004.413-.005.797-.003l.7.003.003.975.003.975h.51l.003-.975.003-.975.661-.003.661-.003v-.107h2.679v-7.244h10.067v.237h-.581v1.067h-.249v-1.067l-1.302.003-1.301.003-.003 1.42-.003 1.419h2.609v-.296h.249v.545h-2.858v4.032h1.21v.249h-2.467v-.249h1.008v-4.032h-2.845v-.545h.249v.296h2.608l-.003-1.419-.003-1.42-1.301-.003-1.301-.003v1.067h-.249v-1.067l-1.64.003-1.639.003-.003 3.501-.003 3.5h3.32v.119h.32v.249h-.32v1.506h6.011v-1.506h-.249v-.249h3.439v-7.126h-1.21v-.237h2.704v.356h1.482v-.356h7.161v.356h1.482l.001-.057c0-.031 0-.111-.001-.177l-.001-.122h1.981v.236l-.294.004-.293.003-.003 3.56-.003 3.56h2.834l-.003-3.56-.003-3.56-.377-.003-.376-.004v-.236l.376-.003.377-.003.007-.188h21.917l.006-3.255h-21.925v-6.819h-6.022v2.182h-.238v-2.182h-.13v-.131l-1.408.003-1.408.004-.003 2.024-.003 2.025 1.473-.003 1.473-.003.004-.122.003-.121h.234l.008.252c.004.138.006.94.004 1.781l-.004 1.529-2.309.004-2.309.003v-.249h1.174v-7.115h-3.403v-.248h.214v-1.506h-3.065zm1.719 1.506h2.716v.248h-1.246v4.032h2.846v3.082h.616v.249h-7.149v-.249h.593v-1.102h.237v1.102h2.608v-2.833h-2.608v.248h-.237v-.497h2.845v-4.032h-1.221v-.124zm14.4 2.282.064.035c.034.019.09.065.122.101l.059.065.069.143c.039.078.101.209.14.29l.07.148.093.131c.197.277.289.419.337.514l.05.1.017.081.017.081-.013.056c-.017.076-.048.122-.128.194l-.067.06-.142.07c-.078.038-.23.105-.336.149l-.193.079-.257.154c-.278.166-.413.237-.508.27v.001c-.034.011-.09.024-.125.028l-.063.007-.046-.017c-.091-.034-.136-.1-.166-.246l-.019-.09-.012-.259c-.007-.143-.021-.315-.03-.383l-.018-.123-.029-.063c-.037-.082-.115-.164-.316-.332l-.16-.135-.05-.067c-.106-.143-.093-.248.048-.378.236-.219.84-.519 1.279-.636l.099-.026.107-.001zm-4.061 9.657v1.481l.057.003c.031.002.115.003.186.001.072-.001.154-.002.181-.002l.05-.001v-1.482h-.237zm-67.158.083-.737.003-.736.003-.004.224c-.001.124 0 .232.003.241l.006.015h1.468l.009-.119c.004-.066.004-.176 0-.244zm2.483 0-.009.123c-.004.068-.004.178.001.244l.008.119h1.465l.009-.119c.005-.066.005-.176 0-.244l-.008-.123h-.733zm2.464 0v.486h1.482v-.486h-.741zm5.428 0-.737.003-.737.003-.003.224c-.002.124 0 .232.003.241l.005.015h1.468l.009-.119c.005-.066.005-.176 0-.244zm35.813 1.929.155.007c.085.004.246.019.357.033l.201.025.356-.007.356-.007.108.012c.173.018.288.072.331.155l.017.034v.069c0 .106-.024.172-.19.513l-.154.315-.024.098-.025.098.013.077c.008.042.035.136.061.21.027.072.063.175.082.228.019.052.041.132.049.178l.014.082-.014.05c-.028.098-.103.156-.249.189l-.078.018-.315.004c-.389.005-.618-.016-.921-.084-.356-.08-.465-.183-.485-.461l-.007-.096.019-.183c.025-.245.024-.381-.006-.648-.014-.123-.025-.298-.026-.389l-.001-.166.02-.078c.025-.093.064-.155.128-.201l.048-.035.09-.02zm-48.455 2.928c-.043 0-.077.001-.093.002l-.056.003v1.481h.474v-1.481l-.181-.003c-.049-.001-.101-.002-.144-.002zm12.609.004v.733c0 .403.003.737.008.741.004.005.112.007.24.006l.232-.004.003-.738.003-.738h-.243zm51.424.996-.009.124c-.005.069-.005.176 0 .238l.009.112h1.466l.008-.112c.004-.062.004-.169 0-.238l-.008-.124h-.733zm3.946 0v.474h1.482v-.474h-.741zm-12.599.557c.009.001.021.007.037.012l.055.016-.006.019c-.002.011-.076.251-.164.532l-.158.513-.059-.003-.059-.004-.061-.353c-.066-.383-.068-.391-.088-.315-.07.265-.181.658-.188.664-.004.004-.031.004-.06 0l-.054-.008-.063-.326c-.035-.179-.066-.328-.069-.331-.012-.012-.023.031-.087.334l-.067.323-.061.004c-.034.002-.062 0-.062-.004 0-.009-.189-.716-.197-.741l-.007-.017-.011.023c-.005.013-.045.165-.088.338-.043.173-.083.334-.089.359l-.012.044h-.053c-.066 0-.056.029-.13-.351-.059-.302-.07-.349-.081-.335-.002.003-.035.154-.074.336l-.07.332-.063.004c-.034.002-.062-.001-.062-.006 0-.068-.136-.643-.149-.63-.005.006-.123.664-.124.689 0 .01.001.01-.062-.003-.024-.005-.047-.011-.051-.014-.003-.003.036-.245.087-.536l.092-.529h.119l.07.34c.057.279.087.4.089.359.001-.003.034-.161.075-.35l.074-.343h.118l.062.32c.077.393.073.373.085.373.005 0 .049-.156.097-.347l.088-.346h.117l.098.365c.103.383.105.39.116.356.006-.021.149-.702.149-.711 0-.002.027-.004.059-.004h.059l.007.026c.003.015.033.168.066.341.033.173.062.324.066.336l.007.022.009-.01c.005-.006.048-.151.094-.324.047-.173.091-.332.098-.354l.012-.04.053.005c.068.008.056-.029.124.372.034.195.062.357.065.36.01.011.024-.028.137-.393.104-.335.117-.39.145-.389zm-68.448 1.384c.04-.003.158.035.533.148l.519.156-.004.06-.003.06-.336.061c-.32.058-.358.067-.343.083.005.005.666.182.681.182.003 0 .003.028.001.062l-.003.061-.273.056c-.15.031-.304.062-.343.07l-.07.015.016.009c.01.005.179.04.377.079l.359.069-.008.048c-.004.026-.01.051-.013.056-.009.015-.042.01-.565-.096l-.507-.103.004-.058.003-.059.36-.073c.39-.08.393-.081.326-.099-.025-.006-.189-.049-.364-.095s-.321-.084-.323-.084c-.003 0-.005-.026-.005-.059v-.059l.027-.006c.015-.003.176-.033.358-.066.183-.033.334-.063.338-.066.011-.012-.025-.024-.393-.134-.204-.061-.376-.115-.381-.12l-.01-.009.015-.048c.007-.024.003-.04.027-.041zm44.52.121.013.005c.011.004.691.209.994.3l.057.017v.117l-.027.007c-.014.003-.163.03-.329.059-.166.03-.315.059-.332.065l-.03.009.018.007c.01.004.144.04.297.08s.306.08.341.09l.062.018v.114l-.08.018c-.044.01-.196.041-.338.069-.142.028-.258.055-.258.059 0 .009.009.012.395.089l.282.056-.004.06-.003.061-.344.095c-.189.053-.359.1-.378.105l-.035.009.011.009c.006.005.177.048.381.096l.371.087v.12l-.282.057c-.388.079-.394.08-.394.09 0 .005.152.041.338.079l.339.069-.004.06-.003.06-.313.067c-.172.038-.315.071-.319.075-.014.014.019.022.325.072.175.029.33.056.345.059l.026.006-.007.044c-.004.025-.01.05-.014.057l-.007.013-.522-.086c-.287-.048-.526-.087-.531-.087-.005 0-.009-.027-.009-.059v-.058l.021-.006c.012-.004.159-.036.329-.072.17-.037.319-.071.332-.077l.024-.01-.03-.008c-.035-.009-.663-.137-.67-.137-.003 0-.006-.027-.006-.059v-.059l.027-.007c.014-.003.167-.035.339-.07.171-.035.315-.067.319-.071.015-.015-.018-.025-.314-.096-.168-.04-.32-.076-.338-.081l-.033-.008v-.118l.045-.012c.292-.08.669-.188.675-.194.013-.013.01-.014-.358-.087l-.356-.07-.003-.062-.004-.061h.012c.023 0 .704-.142.71-.148l-.362-.107-.359-.093v-.121l.359-.064c.197-.035.363-.068.369-.073l.01-.009-.081-.024c-.793-.237-.724-.209-.704-.28zm-38.903 2.744c.651-.001 1.128 0 1.276.002l.536.009v.234h-.533v1.114h-.249v-1.114l-1.301.003-1.302.003-.003 1.42-.002 1.42h2.608v-.249h.249v.486h-2.846v4.043h1.162v.249h-2.466v-.249h1.055l-.003-2.024-.003-2.025-1.775-.003-1.776-.003v-.474h.273v.261h3.273v-2.87h-3.273v1.364h-.273v-.166h-.213v-.249h.213l.003-.584.003-.584 3.053-.01c.84-.003 1.664-.004 2.314-.004zm33.455.004c.658-.01 5.733-.01 6.254 0l.4.007v.234h-.534v1.114h-.248v-1.114h-2.609v2.845h2.609v-.249h.248v.486l-1.425.004-1.426.003-.003 2.018-.003 2.019h1.162v.249h-2.466v-.249h1.055v-4.043h-2.845v-3.083h-.676v-.234zm-7.005 1.355v1.482h.474v-1.482h-.236zm-11.785 5.893v.474h1.482v-.474h-.741zm12.841 0v.474h1.482v-.053c.001-.029.001-.112.001-.184 0-.071 0-.154-.001-.183v-.054h-.741zm20.511.119h2.467l-.003.121-.003.122-1.23.003-1.231.003v-.125z"/>
      <g id="Floors-Locked-2" class="locked">
        <path id="Floors-Locked-2-E" d="M848.409 321.509v1.506h.249v-.119h1.494v.119h2.466v-.119h1.482v.119h.439v-1.506h-3.065zm6.379 0v1.506h.296v-.119h1.497l-.005.059-.004.06h4.346v-1.506h-3.065zm-67.873.237v.125l-.744.003-.744.003v-.13h-.557v3.094h-2.846v4.031h3.403v-.118h1.496l-.004.059-.004.059h1.239v-7.126h-.619zm2.102 0-.614.001v7.125h1.221v-.118h1.494v.118h3.415v-4.031h-2.846v-3.095h-.575v.125l-.745.003-.745.003.004-.065.004-.066zm59.647 1.512-1.722.003-1.722.003v7.125h1.221v-.13h1.482v.131l.287-.003.288-.003.003-.575.003-.576-.059.005-.059.004v-1.496h.118v-.451h2.846v-4.031l-.602-.003-.601-.003.004.062.004.063h-1.498l.003-.063zm2.935.006v4.031h2.845v1.54c0 .846.003 1.542.008 1.547.004.004.148.007.32.007h.312v-.13l.744.003.744.003v.124h1.157v-7.125h-1.151v.119h-1.494v-.119h-.984v.119h-1.482v-.119h-.509zm-2.858 4.28v.202h.13v1.496l-.065-.004-.065-.005v1.145h2.609v-2.834h-1.305zm-61.826 1.571v.118l-.744.004-.744.003v-.119h-.213v1.506h6.13v-1.504l-.116-.004-.116-.004.004.062.004.062h-1.497l.003-.062.004-.062h-1.357z"/>
        <path id="Floors-Locked-2-W" d="M664.015 321.495v1.506h.238v-.119h1.493V323l1.231.004c.676.001 1.23.004 1.23.005 0 .002-.002-.026-.004-.062l-.004-.065h1.498l-.004.062-.004.062.234-.003.234-.003v-1.505h-3.071zm6.379 0v1.506h.285v-.119h1.482v.119h2.466v-.119h1.494v.119h.415v-1.506h-3.071zm56.355.236v.131h-1.482v-.13h-1.246v7.126h3.462l.003-.063.004-.062h1.482v.131l.589-.004.59-.003v-4.031h-2.845l-.003-1.544-.003-1.544-.276-.003zm7.161 0-.329.004-.329.003-.003.53-.003.531h.13v1.482h-.13v.545H730.4v4.032h1.044v-.131h1.482v.131h3.616l-.003-3.56-.003-3.56-.569-.003-.569-.004v.125l-.744.003-.744.004v-.066zm-3.51.001v2.845h2.609v-.296h-.119v-1.482h.119l-.003-.531-.003-.53-1.302-.003zm-66.141 1.512-1.716.003-1.717.003v4.031h2.845v.456h.125l.003.744.003.744h-.131v1.15h.582v-.131l.744.004.744.003v.124h1.215v-7.125h-1.21v.118h-1.496l.005-.062zm5.43 0 .004.062.004.062h-1.496v-.118h-.996v7.125h1.251l-.004-.065-.004-.066.745.004.745.003v.124h.551v-3.094h2.858v-4.031h-1.186v.118h-1.482v-.118l-.495-.003zm3.906.006v4.03l1.42.004 1.42.003.003.221.004.222.056.003.056.004.003.744.003.744h-.119v1.15h.658l-.004-.065-.004-.065h1.498l-.004.065-.004.065.569-.003.569-.003.003-3.559.003-3.56h-3.604v.118h-1.494v-.118h-.515zm-12.781 4.28v1.414c0 .779.004 1.419.008 1.424.005.004.591.007 1.304.007h1.297v-1.15h-.119l.003-.744.003-.744h.119l-.004-.103-.004-.104h-1.303zm12.77 0v1.414c0 .779.003 1.419.008 1.424.004.004.591.007 1.304.007h1.296v-1.15h-.118v-1.494h.118v-.201h-1.304zm53.906 1.571-.14.004-.139.003v1.505h6.13v-1.506h-.415v.118h-1.482v-.118l-1.236-.003-1.236-.003.004.062.004.063-.745-.004-.745-.003v-.059zm-57.44 4.689v3.082l-1.419.004-1.42.003-.003 2.018-.003 2.019h3.474v-.119h1.482v.119h1.186v-7.126h-1.435v.13h-1.482v-.13h-.19zm3.546 0v7.126h6.129l-.003-2.019-.003-2.018-1.425-.003-1.426-.004v-3.082h-.51v.13h-1.482v-.13h-.64zm8.975 0-1.301.003-1.302.003-.002 1.405c-.002.772-.001 1.411.002 1.42l.006.014h2.595l.004-.124.004-.125h-.124v-1.482h.124l-.003-.557zm.249 0v1.114h.118v1.482h-.118v.487h-2.846v4.043h3.546v-.119h1.496l-.005.059-.003.06h1.096v-7.126h-1.345v.125h-1.482v-.125h-.229zm-12.141 7.369-.142.003-.143.004v1.504l3.068-.003 3.068-.003.003-.749.003-.75h-4.375v.118h-1.482v-.062zm14.329 0v.119l-.744.002-.744.003v-.118h-.356v1.505h6.13v-1.505l-2.143-.003z"/>
      </g>
    </g>
  </g>
  
</svg>