<svg xmlns="http://www.w3.org/2000/svg" xmlns:xlink="http://www.w3.org/1999/xlink" xml:space="preserve" id="svg1" width="1559.5717" height="1032.4935" version="1.1" viewBox="0 0 1559.5717 1032.4935">
  <style id="style_common">
    .trees { fill:#144043 }
    .cement { fill:#c6c2c2 }
    .land { fill:#1f5054 }
    .rock { fill:#dcd5b6 }
    .water { fill:#4a6b96 }
    .wood { fill:#593700 }
    .tarmac { fill:#768089 }
    .gravel { fill:#946d3e }
    .building { fill:#1a2632 }
    .floor { fill:#70777f }
    .locked { fill:#37414c }
    .map_border { fill:none;stroke:#000;stroke-width:2 }
    .fence { fill:none;stroke:#c4e3c3;stroke-width:1 }
    .road_tarmac { fill:none;stroke:#888 }
    .road_gravel { fill:none;stroke:#946d3e }
    .road_small { stroke-width:5 }
    .road_medium { stroke-width:8 }
    .road_large { stroke-width:12 }
    .railroad { fill:none;stroke:#914833;stroke-dasharray:6;stroke-width:3 }
    .powerline { fill:none;stroke:#ffce00;stroke-width:2;stroke-miterlimit:10;stroke-dasharray:6,6 }
    .danger { fill:red;fill-opacity:.4;stroke:red;stroke-dasharray:4,2;stroke-width:2 }
    .task { fill:#000 }
    .stairs { fill:#FFD700 }
    .shadow { filter:drop-shadow(0 0 2px #000) }
  </style>
  <style id="style_shoreline">
    .plane{ fill:#FFF }
  </style>
  <defs id="defs1">
    <g id="Stairs_Common">
      <g id="Stairs-Common-E" transform="translate(5.2606)">
        <path d="M793.422 306.488v-.711l.234-.003c.129-.001.348 0 .486.002l.252.004.003-.763.003-.764.703-.003.702-.003v2.953h-2.383z"/>
        <path d="M790.541 305.723v-1.476l.708.003.709.003.003.764.003.763.252-.004c.138-.002.357-.003.486-.002l.234.003v1.423h-2.395z"/>
        <path d="M853.547 317.633v-2.241h2.952v4.482h-1.387v-2.537h-.178v2.537h-1.387z"/>
        <path d="M796.232 321.19v-2.098h1.352v2.146h.486v-2.146h1.366l-.007.018c-.004.011-.007.955-.007 2.099v2.08h-3.19z"/>
      </g>
      <g id="Stairs-Common-W" transform="translate(5.2606)">
        <path d="M697.495 322.427c-.004-.48-.008-1.413-.008-2.072v-1.199l-.014-.014-.014-.015h1.38v2.134h.486v-2.134h1.363v4.174h-3.185z"/>
        <path d="m703.985 306.503.004-.708.483-.003.483-.003v-1.518h1.423v.49c0 .27-.004.932-.008 1.471l-.008.98h-2.38z"/>
        <path d="M701.109 306.225c-.004-.543-.008-1.205-.008-1.471v-.483h1.423v1.518l.483.003.484.003.003.708.003.709h-2.38z"/>
        <path d="M640.427 317.645v-2.241h2.952v4.482h-1.387l-.002-.258c0-.142-.001-.716-.001-1.275l.001-1.017h-.185v1.017c0 .559 0 1.133-.001 1.275l-.002.258h-1.375z"/>
      </g>
    </g>
  </defs>
  
  <g id="Underground_Level" class="shadow">
    <g id="Stairs-U" class="stairs">
      <g id="Stairs-U-A">
        <path d="M769.375 259.341v-2.459h1.684l.002.261c.001.332.001 4.062 0 4.402l-.001.255h-1.685z"/>
        <path d="M741.169 259.341v-2.459h1.698v4.918h-1.698z"/>
        <path d="m758.584 265.903.003-1.06h2.106v2.12h-2.113z"/>
        <path d="M751.549 265.903v-1.06h2.106l.003 1.06.004 1.06h-2.113z"/>
        <path d="M761.426 271.032v-.903l.275-.001c.152-.001 1.213-.003 2.358-.005l2.082-.004v1.817h-4.715z"/>
        <path d="m746.104 271.029.003-.907 2.079.002c1.143.002 2.206.003 2.361.004l.282.001v1.807H746.1Z"/>
        <path d="M757.269 277.907v-2.683h1.413v5.366h-1.413z"/>
        <path id="p1111" d="m753.563 277.904.003-2.687h1.4l.003 2.687.004 2.686h-1.413z"/>
      </g>
      <use xlink:href="#Stairs-Common-W" id="Stairs-U-W" x="0" y="0" transform="translate(2.36316 9.51307)"/>
    </g>
    <g id="Floors-U" class="floor">
      <path id="Floor-U-A" d="m759.219 252.214-.004 3.401-.004 3.4h.381v.285h-3.342v-.285h2.69v-6.793h-5.638v6.793h1.236v.285h-5.258v.462h-.367v-.462h-5.584v2.649l2.788-.003 2.79-.003.003-.241.004-.242h.366v.557h-.041v.191h-6.372v-.408h-1.698v.408h-.136v2.653l3.604-.005 3.603-.006.004.14.004.139h-1.332v4.715l2.177-.004 2.178-.004.003-2.353.003-2.354h-1.331v-.285h3.709v-3.153h2.459v.272h-2.174v4.715h4.361v-4.715h-.475v-.272h.761v3.148l6.306.011 6.305.01.012-.013.013-.012-.004-1.31-.003-1.311-.072-.004-.071-.004v-.406h-1.698v.408h-6.359v-.218h-.054v-.53h.367v.449h5.584V259.3h-5.584v.462h-.367v-.462h-1.671v-.285h4.048l-.003-3.4-.003-3.401h-3.057zm-7.657 14.749v3.152h-.733v1.807h4.307v-.931l-.17-.17-.169-.169.097-.099.099-.099.214.214.214.214v2.365l-.217.217-.218.217-.098-.098-.098-.098.173-.174.173-.173v-.931h-1.576v.761h-.299v-.774h-6.331v6.413h6.331v-3.94h.299v.543h1.413v.027h.585l-.004.16-.004.16-.173.003-.173.004v3.002h1.834v-3.002l-.173-.004-.173-.003-.004-.16-.004-.16h.585v-.027h1.413v-.543h.299v3.94l3.169-.004 3.169-.003v-6.399l-3.169-.004-3.169-.003v.774h-.299v-.761h-1.576v.931l.173.173.173.174-.098.098-.098.098-.211-.21-.211-.21v-2.392l.208-.207.207-.208.098.099.098.099-.17.169-.169.17v.931h4.307l.003-.903.004-.904h-.741v-3.152h-4.559z"/>
      <path id="Floor-U-W" d="M657.638 338.003v-3.148h-.023v-9.687h-.249v5.418h-4.269v-1.446h-.343v.249h.094v5.466h-7.86v-5.47l2.223.008 2.223.008v-2.549h.166v2.549l.785-.001c.432 0 .806-.003.83-.007l.045-.007v-.246h-.024v-4.47h-3.19l.003-.816.003-.815 4.657-.003 4.657-.003v.653h.249v-.653h38v6.356h4.15v-.249h-3.901v-6.107l3.062.003 3.062.003.003 3.05.003 3.051h-.735v.249h.972l.003-3.175.003-3.175 3.246-.003 3.245-.003v-6.07h5.514v-3.174l-.169-.008c-.093-.004-.467-.007-.83-.007h-.661v1.517h-.972v1.423h-.487v-1.423h-.972v-1.517h-1.423l.003-1.58.003-1.58 4.461-.003 4.461-.003v1.02h.237l.003-.507.003-.507 10.775-.003 10.775-.003v17.939l-12.364-.003-12.363-.003v-8.691l4.834-.003 4.835-.003v-5.311h-4.245v.261h.783v4.79h-3.059v-4.79h.782v-.261l-.376-.003-.377-.004-.003-.334-.003-.335h-.237v.913h.024v4.837h-3.201l-.003 4.467-.003 4.467-3.08.003-3.08.003v6.26h-.498v.249h.498v2.988h-3.26v-2.988h1.268v-.249h-1.849v.249h.344v3.237h3.497v2.858h-6.082v-6.095h.747v-.249h-7.363v6.343h-37.977z"/>
    </g>
  </g>
  
  
  
</svg>