<svg xmlns="http://www.w3.org/2000/svg" xmlns:xlink="http://www.w3.org/1999/xlink" xml:space="preserve" id="svg1" width="1559.5717" height="1032.4935" version="1.1" viewBox="0 0 1559.5717 1032.4935">
  <style id="style_common">
    .trees { fill:#144043 }
    .cement { fill:#c6c2c2 }
    .land { fill:#1f5054 }
    .rock { fill:#dcd5b6 }
    .water { fill:#4a6b96 }
    .wood { fill:#593700 }
    .tarmac { fill:#768089 }
    .gravel { fill:#946d3e }
    .building { fill:#1a2632 }
    .floor { fill:#70777f }
    .locked { fill:#37414c }
    .map_border { fill:none;stroke:#000;stroke-width:2 }
    .fence { fill:none;stroke:#c4e3c3;stroke-width:1 }
    .road_tarmac { fill:none;stroke:#888 }
    .road_gravel { fill:none;stroke:#946d3e }
    .road_small { stroke-width:5 }
    .road_medium { stroke-width:8 }
    .road_large { stroke-width:12 }
    .railroad { fill:none;stroke:#914833;stroke-dasharray:6;stroke-width:3 }
    .powerline { fill:none;stroke:#ffce00;stroke-width:2;stroke-miterlimit:10;stroke-dasharray:6,6 }
    .danger { fill:red;fill-opacity:.4;stroke:red;stroke-dasharray:4,2;stroke-width:2 }
    .task { fill:#000 }
    .stairs { fill:#FFD700 }
    .shadow { filter:drop-shadow(0 0 2px #000) }
  </style>
  <style id="style_shoreline">
    .plane{ fill:#FFF }
  </style>
  <defs id="defs1">
    <g id="Stairs_Common">
      <g id="Stairs-Common-E" transform="translate(5.2606)">
        <path d="M793.422 306.488v-.711l.234-.003c.129-.001.348 0 .486.002l.252.004.003-.763.003-.764.703-.003.702-.003v2.953h-2.383z"/>
        <path d="M790.541 305.723v-1.476l.708.003.709.003.003.764.003.763.252-.004c.138-.002.357-.003.486-.002l.234.003v1.423h-2.395z"/>
        <path d="M853.547 317.633v-2.241h2.952v4.482h-1.387v-2.537h-.178v2.537h-1.387z"/>
        <path d="M796.232 321.19v-2.098h1.352v2.146h.486v-2.146h1.366l-.007.018c-.004.011-.007.955-.007 2.099v2.08h-3.19z"/>
      </g>
      <g id="Stairs-Common-W" transform="translate(5.2606)">
        <path d="M697.495 322.427c-.004-.48-.008-1.413-.008-2.072v-1.199l-.014-.014-.014-.015h1.38v2.134h.486v-2.134h1.363v4.174h-3.185z"/>
        <path d="m703.985 306.503.004-.708.483-.003.483-.003v-1.518h1.423v.49c0 .27-.004.932-.008 1.471l-.008.98h-2.38z"/>
        <path d="M701.109 306.225c-.004-.543-.008-1.205-.008-1.471v-.483h1.423v1.518l.483.003.484.003.003.708.003.709h-2.38z"/>
        <path d="M640.427 317.645v-2.241h2.952v4.482h-1.387l-.002-.258c0-.142-.001-.716-.001-1.275l.001-1.017h-.185v1.017c0 .559 0 1.133-.001 1.275l-.002.258h-1.375z"/>
      </g>
    </g>
  </defs>
  
  
  
  
  <g id="Third_Floor" class="shadow">
    <g id="Stairs-3" class="stairs">
      <use xlink:href="#Stairs-Common-E" id="Stairs-3-E" x="0" y="0" transform="translate(2.36316 9.51307)"/>
      <use xlink:href="#Stairs-Common-W" id="Stairs-3-W" x="0" y="0" transform="translate(2.36316 9.51307)"/>
    </g>
    <g id="Floors-3" class="floor">
      <path id="Floor-3-E" d="M778.942 309.368v1.506h.297v.237h-.295l-.004.062-.004.062-.062.004-.062.004v2.239h-.237v-2.241h-6.023v10.268h.617v.368h1.493v-.368h2.111v.368h1.494l-.008-.184-.008-.183 1.813-.003c.997-.002 2.609-.002 3.583 0l1.769.003v.367h1.494l-.007-.184-.008-.184h2.719v.098c0 .054.003.134.007.178l.007.08h1.464l.007-.08c.005-.044.008-.124.008-.177v-.098l1.764-.003c.97-.002 2.573-.002 3.563 0l1.799.003v.355h1.482l.001-.056c0-.031 0-.111-.001-.178l-.002-.122h1.437l.003 3.62.003 3.619 1.342.003 1.356.003v.106h1.351v1.945h.474v-1.945h.638c.35 0 .701.004.794.008l.169.008v3.925h.321l-.001.121c-.001.067-.002.147-.001.178l.001.056h1.482v-.355h1.019v.754l.845.001c.465 0 .857.003.872.007l.026.007v.235h-.035v2.644h-1.708v4.482h2.941v-7.126h-.202v-.235l.116-.004c.063-.003.45-.003.859 0l.744.004v.234h-1.268v7.127h1.031v.232l-.773.008c-.426.005-1.376.009-2.111.009h-1.337v.752l.002.753h6.13v-1.518h-.427v-.236h.984v.236l-.151.003-.152.003-.003.756-.003.756 3.068-.003 3.068-.003v-1.506l-.192-.003-.193-.003v-.237l1.787-.003 1.788-.003.003-3.56.003-3.56h-1.115v-.235l.614-.004c.337-.002.948-.002 1.357 0l.744.004v.354h1.482v-.352l.329-.008c.429-.01 5.704-.01 6.201 0l.383.008v.364h1.494l-.008-.183-.008-.183.705-.004c.387-.002 1.055-.002 1.484 0l.779.004v.366h1.494l-.007-.183-.008-.182.378-.009c.208-.005 2.427-.005 4.931-.001s4.838.007 5.186.007h.633l-.008.184-.007.184h1.494v-.365l.536-.008c.295-.005 1.911-.005 3.59.001l3.053.01.004.584.003.584h.226l-.003.122v.246l.738-.003.738-.004.003-.18.004-.181.927.003.928.003.003.181.003.181h1.482v-.368h.593v-5.359l-2.223.008-2.224.008v-2.68h-.166v2.68h-1.399v1.229h-1.589l.003-.122.004-.121.673-.003.672-.004v-5.718h3.178v-1.395h-1.114v-.249h2.442v.249h-1.079v5.873h2.822v-5.873l-.127-.003-.128-.003-.004-.122-.003-.121h.262v-1.506h-6.012v1.506h.344v.249h-3.533v7.114h.118v.249h-1.529v-.238h1.162v-7.125h-1.162v-.249h4.351v-1.506h-6.129v1.506h.296v.249h-3.486v4.031h2.846l.003 1.544.003 1.545.317.003.317.003v.237h-7.161v-.237l.287-.003.288-.003.003-.578.003-.578h.237v1.15h2.609v-2.834h-2.609v.202h-.237v-.451h2.846v-4.031h-6.131v7.125h1.221v.238h-2.714v-.237l.619-.003.62-.003.003-3.56.003-3.56h-6.142v4.031h2.857v3.094h.557v.238h-7.16v-.238h.651v-3.094h2.846v-4.031h-1.032v-.249h4.221v-1.506h-6.129v1.506h.426v.249h-3.616l.003 3.56.003 3.56.573.003.571.003v.237h-2.466v-.238h1.068v-7.125h-6.13v4.031h2.845v.451h-.237v-.202h-2.608v2.834h2.608v-1.15h.237l.003.578.003.578.359.003.359.003v.237h-7.399v-.098c0-.054-.003-.134-.008-.178l-.007-.08h-1.464l-.007.08c-.004.044-.007.124-.007.178v.098h-.44v2.928h.941c.518 0 1.174.004 1.459.008l.516.008v.233h-.687v1.115h-.249v-1.115l-1.302.003-1.301.003v2.834l1.301.003 1.302.003v-.237h.249v.474h-2.847v4.043h1.056v.237h-2.466v-.237l.578-.003.578-.003v-4.031l-1.426-.003-1.426-.003v-.474h.25v.237l1.301-.003 1.301-.003.003-1.42.003-1.42h-2.608v1.114h-.25v-1.114h-.521v-.233l.393-.008c.216-.005.827-.008 1.358-.008h.964v-2.928h-.498v-.356h-1.482v.356h-6.936v-3.443l.189.008.19.008v-1.506l-.19.008-.189.008v-2.328h-6.438v-4.304l-3.021-.003-3.02-.002-.003-.247-.004-.246h.25v.249h5.798v-1.869h-5.798v.249h-.249v-.498h.533v-2.928h.226v-.024h1.434l.002.252c.001.139.001.483 0 .765l-.002.513h.973v1.422h.497v-1.422h.973v-1.53h1.411v-2.637h-1.423v-.26h1.423v-1.494h-5.454v1.494h1.553v.261l-2.371-.008-2.372-.008v7.378h-1.45l.008-.183.007-.184h-1.505l.008.184.008.183-3.562-.003-3.562-.002-.004-.122-.003-.122h.582v-3.082h2.845v-4.032h-3.462v-.249h.273v-1.505h-3.006zm1.791 1.506h2.466l-.003.121-.003.122-.59.003-.59.003v7.114h1.221v.249h-2.328c-1.28 0-2.331-.004-2.335-.008-.01-.01-.011-3.192-.001-3.368l.008-.133h.233v.177h.736v.238h-.723v2.857h2.928v-2.857h-.711v-.238h.723l-.003-2.018-.003-2.019-.513-.003-.513-.003v-.118zm-6.629 2.383h.077c.466 0 1.513.477 1.627.742l.02.046v.19l-.022.077c-.012.042-.056.16-.098.261-.108.26-.115.284-.169.55-.067.334-.111.495-.166.608l-.047.096-.053.047c-.029.026-.074.053-.099.061-.143.043-.296.006-.672-.161-.234-.104-.384-.157-.688-.241-.411-.113-.578-.212-.604-.356l-.008-.043.013-.049c.007-.026.039-.088.072-.136l.058-.088.188-.195c.31-.321.359-.39.383-.545l.013-.086-.014-.232-.014-.232.012-.073c.021-.123.064-.188.147-.223zm21.165 6.088.086.086.086.086-.184.184-.184.184h-2.076l-.186-.186-.187-.186.08-.081c.1-.101.079-.107.253.067l.148.149h1.861l.151-.151zm-2.271 1.524h2.063l.19.19.19.189-.086.086-.086.086-.152-.151-.151-.151h-1.873l-.148.148-.149.149-.086-.087-.085-.086.187-.186zm-1.288 1.953c-.043 0-.076 0-.09.001l-.051.004v1.48h.475v-1.481l-.187-.003c-.051-.001-.104-.001-.147-.001zm25.078.074v.474h1.482v-.474h-.741zm3.962 0-.008.125c-.004.068-.004.175 0 .237l.008.112h1.466l.009-.112c.004-.062.004-.169 0-.237l-.009-.125h-.733zm2.097 4.85v1.48l.056.004c.031.002.138.002.237 0l.181-.003v-1.481h-.237zm-31.005 1.008v.474h1.482v-.474h-.741zm3.974 0-.008.124c-.005.068-.005.175 0 .237l.008.113h1.466l.009-.113c.004-.062.004-.169 0-.237l-.009-.124h-.733zm31.347 12.058v.474h1.481l.003-.181c.002-.099.002-.206 0-.237l-.003-.056h-.741zm34.338 0-.004.056c-.002.031-.003.138 0 .237l.004.181h1.481v-.474h-.74zm3.923 0v.474h1.482v-.474h-.741z"/>
      <path id="Floor-3-W" d="m708.752 309.334.003.75.003.75.715.003.714.003v.248h-1.435v2.692h1.395v1.518h.973v1.423h.514v-1.423h.971l.004-.756.003-.756.61-.004c.336-.002.708 0 .827.005l.217.008v2.926h.533v2.323h-6.047v4.304h-6.426v2.324h-.249v-2.324h-.118v-.118h-.392v-.249h.392v-1.506h-6.024v1.505l.098.003.098.004.004.121.003.122h-3.392l.003 3.56.003 3.56.578.003.578.003v.237h-2.466v-.237h1.055v-7.126h-1.055v-.249h4.257l-.003-.75-.004-.75-3.068-.003-3.067-.003v1.506h.403v.249h-.984v-.249h.332v-1.506h-6.13v1.506h.356v.249h-3.546v7.125l1.64-.002 1.639-.003.003-1.545.003-1.544h2.846v-4.031h-1.092v-.249h2.455v.249h-1.115v4.031h2.846v.451h-.237v-.202h-2.609v2.846l1.302-.003 1.301-.003.003-.572.003-.573h.237l.003.573.003.572.37.003.371.003v.237h-2.976v2.94h.498v.367h1.494v-.363l.507-.008c.659-.01 5.709-.01 6.243 0l.411.008v.233h-.533v3.082l-1.426.004-1.426.003-.003 2.018-.003 2.019h6.142l-.003-3.56-.003-3.56-.632-.003-.631-.003v-.234l.738-.005c.406-.002.796-.003.866 0l.127.004v.235h-.213v7.126h2.94v-4.47h-1.707v-2.656h-.036v-.234l.027-.008c.015-.004.407-.007.871-.007h.845v-.878h1.02v.368h1.494v-.368h.308v-3.806h1.574v1.945h.513v-1.945l.676.003.675.004v-.125h2.68v-7.244h1.447v.367h1.494l-.008-.183-.008-.184h7.141v.355h1.482v-.355h2.716v.237h-1.246v7.125h6.13v-4.031h-2.845v-.533h.237v.284h2.608v-2.845l-1.301.003-1.301.003-.003.536-.003.537h-.237l-.003-.537-.004-.536-.275-.003-.275-.004v-.236h7.16v.236l-.329.004-.329.003-.003.536-.002.537h-.237l-.003-.537-.004-.536-1.301-.003-1.301-.003v2.845h2.609v-.284h.236v.533h-2.845v4.031h3.509v.249h-.32v1.507h6.023v-1.507h-.26v-.249h.261l-.004-3.559-.003-3.56-.305-.003-.305-.004v-.236l.305-.003.305-.004.003-5.13.004-5.131h-6.024v2.254l-.121-.002c-.067 0-.147-.001-.178 0h-.056v1.482h.353l.008.193c.004.106.006.895.004 1.752l-.004 1.559-2.332.003-2.333.003v-.368l-.738.004-.738.003-.004.181-.003.18h-7.113v-.249h.593V317.1h.237v1.102h2.608v-2.833h-2.608v.237h-.237v-.486h2.845v-4.032h-3.438v-.249h.249v-1.505h-6.142v1.505h.202v.234l-.152.008c-.083.004-.531.007-.995.007h-.845v-.249h1.553v-1.505h-2.733zm18.761 1.387-.008.08c-.004.044-.007.115-.007.157 0 .043.004.113.007.157l.008.08h1.463l.008-.08c.004-.044.007-.114.007-.157 0-.042-.003-.113-.007-.157l-.008-.08h-.731zm3.946 0-.004.056c-.002.031-.002.138 0 .237l.004.181h1.481v-.474h-.741zm-15.32.119h2.715v.248h-1.209v7.115h1.209v.249h-1.447l-.002-3.685-.003-3.684-.632-.004-.631-.003v-.118zm15.013 4.161-.008.119c-.005.065-.005.172 0 .237l.008.118h1.479v-.474h-.739zm-17.635 4.506h.07c.094 0 .188.027.489.139.14.053.289.102.33.11l.075.015.073-.007.073-.007.226-.077c.123-.043.254-.081.29-.085l.066-.008.053.015.053.014.043.045.043.046.02.059c.031.092.054.251.061.428l.008.16-.014.168c-.008.092-.024.217-.037.278l-.023.111-.039.077-.038.078-.057.038-.056.037-.086.02-.086.02-.284-.008-.285-.008-.249.03c-.59.071-.738.043-.824-.152l-.027-.058-.006-.098c-.003-.054.001-.19.009-.303l.014-.206-.026-.26-.026-.261.008-.086c.01-.13.05-.207.128-.247zm-56.115 1.968-3.068.003-3.068.003-.003.75-.003.75h.415v.249h-3.604v1.448h3.189l.003 2.685.003 2.987.673.003.672.002v.238h-1.588v-1.182h-1.387v-2.68h-.166v2.68h-.597c-.328 0-.862-.004-1.186-.008l-.588-.008v-.233h.723v-5.932h-1.067v-.249h4.268v-1.506H645v1.506h.272v.249H645l.003 2.929.003 2.997.299.003.299.003v.237H645v5.308h.604v.249H645v5.94h2.822v-5.94h-.723v-.249h1.849v.379h1.494v-.379h.213l.003-.584.003-.584 3.053-.01c1.679-.005 3.295-.006 3.59-.001l.537.008v.234h-.534v1.127l-.122-.003-.121-.003-.003-.561-.003-.56-1.302.003-1.301.003-.003 1.42-.002 1.42h2.608v-.237h.249v.474h-2.846v4.043h3.379v.249h-.189v1.506h6.13v-1.506h-.249v-.249h3.438v-4.043h-2.846v-3.082h-.592v-.234l.446-.008c.581-.01 5.806-.01 6.179 0l.287.008v.233l-.187.003-.186.003-.004 1.539-.003 1.538-1.419.003-1.42.003-.003 2.019-.003 2.018h1.245v.249h-4.435v1.506l3.068-.003 3.068-.003.004-.749.003-.751h-.214v-.249h3.403l-.004-3.559-.002-3.56-.715-.003-.714-.003v-.238h2.964v.238h-1.28v7.125h3.497v.249h-.32l.003.75.003.75 3.068.003 3.067.003v-1.506h-.379v-.249h3.569v-7.125h-1.34v-.238h.676v-1.659h-1.493l-.004-.638-.003-.637-2.676-.003-2.677-.003v-.237l.566-.003.566-.003.003-3.56.003-3.56h-1.138v-.249h4.327v-1.505h-6.141v1.505h.32v.249h-.972v-.249h.415v-1.505h-6.142v1.505h.285v.249h-3.474v7.126h1.245v.237h-2.704v-.367h-1.493v.367h-2.905v2.94h.687v.238h-1.209v7.125h1.21l-.003.122-.003.122-1.355.002-1.355.003v-.249h1.257v-7.125h-1.257v-.237h.498l-.003-1.468-.003-1.467-1.36-.003-1.361-.003v-.237l.317-.003.318-.003.003-1.544.002-1.544h2.846v-4.032h-3.486v-.249h.296v-.753zm78.004 0h2.122v.237l-.364.003-.365.003-.003 3.56-.003 3.56h1.079v.249h-1.225c-.674 0-1.229-.004-1.233-.008-.005-.004-.008-.06-.008-.124v-.117h1.138v-7.126h-1.138v-.119zm-15.26 1.316v1.482h.475v-1.482h-.237zm-66.989.19h2.466v.249h-1.162v7.125h1.162v.238h-1.53v-.236l.057-.004.056-.003.003-3.56.003-3.56h-1.055v-.125zm19.018 0h2.466v.249h-1.031v4.031l1.419.003 1.42.003.003.222.004.223h-.25v-.202h-2.608l.003 1.42.003 1.42 1.301.003 1.302.003v-1.151h.248v1.151h.652v.237h-1.681c-.925 0-1.77.002-1.877.004-.107.002-.958.002-1.892-.001l-1.699-.004v-.237h.546v-1.15h.248v1.15h2.597v-2.845h-2.597v.202h-.248v-.451h2.856v-4.031h-1.185v-.125zm25.444 0h2.466v.249h-.948v4.043h2.94v-.119h.249v3.439h-1.539c-.847 0-1.619.002-1.717.004-.097.002-.965.001-1.928-.001l-1.752-.004v-.237h.64l.003-1.544.003-1.544 1.426-.003 1.426-.003v-4.031h-1.269v-.125zm1.814 8.057h.231l.07.027c.121.049.178.116.209.25l.015.064-.007.185c-.004.101-.018.268-.031.369l-.025.183.002.427.003.427-.026.094-.026.095-.033.041c-.018.022-.046.051-.063.063l-.03.022-.064.006-.064.005-.062-.017c-.093-.026-.184-.067-.435-.195-.126-.064-.274-.132-.329-.15l-.099-.034-.077.002-.077.001-.125.042c-.068.023-.196.066-.284.097l-.16.057h-.083l-.083.001-.036-.02c-.086-.045-.128-.13-.155-.307l-.019-.123.006-.302.005-.302.02-.148c.04-.311.091-.517.157-.644l.044-.083.046-.034c.026-.018.076-.044.111-.057l.064-.024.098-.008.097-.007.19.02c.241.026.381.026.61-.001l.184-.021zm-19.552 2.483c1.426 0 2.842.003 3.064.008l.34.008v.233h-.451v1.127l-.122-.003-.121-.004-.003-.56-.003-.56-1.302.003-1.301.003v2.834l1.301.003 1.302.003v-.237h.249v.474h-2.846v4.043h1.08l-.003.122-.003.121-1.231.003-1.23.003v-.249h1.139l-.004-2.018-.003-2.019-1.425-.003-1.426-.003v-3.082h-.51v-.234l.393-.008c.256-.005 1.69-.007 3.116-.007z"/>
      <g id="Floors-Locked-3" class="locked">
        <path id="Floors-Locked-3-E" d="M816.48 321.509v1.506h.308v-.119h1.482v.119h2.467v-.119h1.494v.119h.391v-1.506h-3.071zm-26.861.237-.613.001h-.614v7.125h3.45v-.118h1.482v.118h1.198v-4.031h-2.846v-.534h-.118v-1.482h.118v-1.078l-.288-.001h-.287v.125l-.745.003-.745.003.004-.065zm4.903 0-1.302.004-1.301.002-.003.537-.003.536h.131v1.482h-.131v.285h2.609v-1.423zm5.193 0v.131h-1.482v-.13h-.605l-.003 1.544-.003 1.544-1.426.003-1.425.003v4.031h1.031v-.118h1.494v.118h.297v-.118l1.657-.003 1.657-.003v-6.996l-.596-.003zm21.027 1.512-.53.003-.531.003v7.125h.531l.53.001-.003-.065-.005-.066h1.498l-.003.066-.005.065.365-.001h.364l.003-.577.004-.578-.057.004-.056.004v-1.496h.106l.003-.223.004-.222 1.425-.003 1.426-.003v-4.031h-3.58v.119h-1.496l.004-.063zm-7.452.006v4.031h2.846v1.54c0 .846.004 1.542.008 1.547.005.004.151.007.326.007h.318v-.13h1.482v.131l.578-.003.578-.003.004-3.56.002-3.56h-1.162v.119h-1.482v-.119h-1.749zm9.913 4.28v.202h.13l-.003.744-.003.744h-.124v1.144h2.608v-2.834h-1.304zm-27.395 1.571-1.242.003-1.242.003v.119h-1.482v-.119h-.26v1.506h6.011v-1.504l-.152-.004-.151-.004.004.063.004.062H795.8l.004-.062zm8.033 3.922v7.893h6.011v-3.557h-2.869v-2.252h2.869v-2.083h-.77v.13l-.744-.002-.744-.004v-.122l-1.877-.001zm22.219.767v7.126h1.103v-.118h1.482v.118h3.545v-4.043h-2.846v-3.083h-.45v.119h-1.482v-.119h-.676zm35.682 1.18-.109.004-.11.004v1.884h-3.557v4.054h3.534v-.118h1.482v.118l.56-.003.56-.003.003-2.967.003-2.967h-.877v.119h-1.496l.004-.062zm2.603.006v5.94h1.079v-.118h1.497l-.005.059-.004.059h.255v-5.94h-.593v.119h-1.494v-.119h-.368zm-37.182 6.177-2.149.003-2.149.003-.003.741c-.002.408-.001.748.002.756l.006.015h6.131v-1.518h-.356v.131h-1.482v-.065zm39.749.006v.119l-.744.003-.744.003v-.119h-2.443v.119h-1.482v-.119h-.343v1.506h6.011v-1.504l-.128-.004z"/>
        <path id="Floors-Locked-3-W" d="M727.225 309.334v1.506h.279l-.005-.06-.004-.059h1.497v.119h2.466v-.119h1.482v.119h.296v-1.506h-3.005zm4.233 1.743-.519.002-.519.004-.003 2.024-.003 2.025h.73l-.005-.066-.003-.065h1.495v.131l.365-.003.364-.003.004-.092.004-.092h-.132l.003-.744.003-.744h.125v-2.247h-.131v-.13h-.296v.13h-1.482v-.065zm-3.954.006-1.734.003-1.735.003v4.031h2.846v3.083h.581v-.119h1.482v.119h1.221v-7.114l-.589-.003-.59-.003.004.062.004.062h-1.499l.004-.062zm2.91 4.274v2.857h2.941v-2.857h-.724v.131l-.743-.003-.744-.004v-.124h-.365zm-10.161 6.355-1.301.003-1.301.003-.003 1.42-.003 1.42h2.608v-.285h-.118v-1.482h.118v-.54zm.249 0v1.079h.119v1.482h-.119v.534h-2.857v4.031h6.142v-7.126h-1.222v.13h-1.482v-.13h-.29z"/>
      </g>
    </g>
  </g>
</svg>