<svg xmlns="http://www.w3.org/2000/svg" id="svg1" version="1.1" viewBox="0 0 827.28742 761.16437">
  <style id="style_common">
    .trees { fill:#144043 }
    .cement { fill:#c6c2c2 }
    .land { fill:#1f5054 }
    .rock { fill:#dcd5b6 }
    .water { fill:#4a6b96 }
    .wood { fill:#593700 }
    .tarmac { fill:#768089 }
    .gravel { fill:#946d3e }
    .building { fill:#1a2632 }
    .floor { fill:#70777f }
    .locked { fill:#37414c }
    .map_border { fill:none;stroke:#000;stroke-width:2 }
    .fence { fill:none;stroke:#c4e3c3;stroke-width:1 }
    .road_tarmac { fill:none;stroke:#888 }
    .road_gravel { fill:none;stroke:#946d3e }
    .road_small { stroke-width:5 }
    .road_medium { stroke-width:8 }
    .road_large { stroke-width:12 }
    .railroad { fill:none;stroke:#914833;stroke-dasharray:6;stroke-width:3 }
    .powerline { fill:none;stroke:#ffce00;stroke-width:2;stroke-miterlimit:10;stroke-dasharray:6,6 }
    .danger { fill:red;fill-opacity:.4;stroke:red;stroke-dasharray:4,2;stroke-width:2 }
    .task { fill:#000 }
    .stairs { fill:#FFD700 }
    .shadow { filter:drop-shadow(0 0 2px #000) }
  </style>
  <style id="style_reserve">
    .misc { fill:gray }
    .chopper { fill:#000 }
  </style>
  
  <g id="Bunkers" class="floor shadow">
    <path d="m584.7847 335.84445 57.725 15.694-3.276 11.809 10.3 2.781-6.706 24.665-10.758-2.925-11.057 40.671 6.297 1.712-.285 1.049 1.838.499 2.639-9.708 22.041 5.992-18.476 67.96-22.041-5.992 2.425-8.921-2.099-.571-.214.786-4.198-1.141-.357 1.313-4.986-1.356-1.783 6.56-4.46-1.213 1.783-6.559-4.723-1.285.214-.787-21.254-5.778-.999 3.674-6.559-1.784-1.631 4.341-1.227-.046-.999 3.674 22.827 6.205-.922 4.453 5.664 1.455-1.203 4.917-5.51-1.498-1.427 5.248-1.574-.428-1.141 4.198-1.313-.357-.998 3.674 8.658 2.354-5.706 20.991-67.697-18.404 5.707-20.991 9.708 2.639 1.141-4.198-.787-.214 1.07-3.936-1.05-.285 1.284-4.724-13.906-3.78-5.422 19.942-3.411-.928-4.208 15.482-6.823-1.855-3.905 7.109 49.605 29.666-7.522 13.351-1.387-.956-11.214 20.277 58.723 37.082-4.987 8.934-18.263-11.35 2.873-4.454-7.942-5.057-2.386 3.659-13.656-8.006-2.66 4.125-12.143-7.52 1.953-3.15-5.139-3.191 2.586-4.076-1.151-.767-11.314 17.777 10.88 6.621-4.382 7.383-2.691-1.602-2.842 4.3-8.396-4.915-5.736 9.726 1.465 3.766-.126 4.756-1.356 3.858-2.176 2.79-.947 3.484-2.019.294-5.809-.309-1.658-3.993-3.107-3.444-3.169-1.08-6.182.233-.164 4.746-3.968.035-.329-5.994-16.652.398-.341 4.079-11.673-.164.211-9.512 9.898.149 1.96.8 28.702-1.487 3.828-4.017 4.155-2.266 5.747-9.416-3.679-2.181-1.635 2.229-9.463-6.069 5.115-7.869 7.252 4.341-.891 1.259 5.968 3.662 9.717-17.085-40.876-24.587 7.325-11.404 10.287 5.916 2.804-3.931 33.351 19.759 11.693-20.209-43.611-25.869 5.401-8.753-4.434-3.031 7.998-14.24 3.959 1 2.283-8.396.24-3.598 4.229-14.912-2.624-.714 1.213-4.461.787.214.998-3.672-.787-.214 10.843-39.885-11.02-2.996-1.284 4.724-23.091-6.278 5.707-20.991 23.091 6.278-2.568 9.445 11.282 3.067 2.497-9.183-2.099-.571 1.783-6.559 2.109.57 4.77-17.58-4.199-1.142 2.069-7.608 4.198 1.141 1.998-7.347-28.864-7.847 3.995-14.694-33.586-9.131 5.85-21.516 49.329 13.411-5.849 21.516-9.184-2.496-1.854 6.821 32.012 8.703-4.138 15.219 3.149.856 1.498-5.511 11.545 3.139-1.498 5.511 29.462 8.026 5.989-22.34-36.473-9.915 9.06-33.325 24.615 6.644zm42.3 50.669-34.374-9.345-6.063 22.303 34.373 9.345zm-85.8 8.797-9.446-2.568-4.709 17.318 1.312.357 3.709-13.645 7.085 1.926-3.781 13.907-.787-.214-4.494 16.53 2.361.642 7.208-26.51 7.418 1.966.069-.484-7.871-2.14zm49.854 13.554-36.997-10.059-1.926 7.085-2.106-.562-.137.516 39.097 10.629zm23.09 6.277-16.792-4.565-2.925 10.758 10.495 2.853-.214.787 3.674.999.214-.787 2.623.713zm13.421 21.119-1.313-.356-.214.787-4.985-1.355-10.486 38.571 4.198 1.141-.286 1.05 2.1.571zm-22.179.734-5.773-1.57-7.49 27.551-14.694-3.994-.428 1.574-6.297-1.712-1.07 3.936 26.501 7.204zm-47.899 16.565-38.572-10.486-8.132 29.913 18.892 5.136 1.498-5.511 21.255 5.778 2.425-8.921 3.673.999 3.781-13.907-5.248-1.426zm15.682 45.968-38.572-10.486-.999 3.673-1.05-.285-1.141 4.198 40.671 11.057.665-3.483-.786-.214z"/>
    <path d="m316.3777 110.42845 65.073 17.691-33.385 122.801 17.65792 4.77226-9.41987 34.30817-16.006-4.352 6.92287-25.12417 8.659 2.354.285-1.05-11.35992-3.06026-8.703 32.012-15.219-4.137-8.916 32.798-33.061-8.988 8.916-32.798-15.481-4.209 11.77-43.295-30.438-8.275-.285 1.049 7.61 2.069-5.85 21.516-14.168-3.852-3.424 12.595 9.97 2.71-1.356 4.986-14.694-3.994 10.629-39.097 5.248 1.426.285-1.048-14.694-3.995 2.141-7.872 50.833 14.101z"/>
  </g>
</svg>