<svg xmlns="http://www.w3.org/2000/svg" xmlns:xlink="http://www.w3.org/1999/xlink" xml:space="preserve" id="svg89" version="1.1" viewBox="0 0 1062.4827 535.17401">
  <style id="style_common">
    .trees { fill:#144043 }
    .cement { fill:#c6c2c2 }
    .land { fill:#1f5054 }
    .rock { fill:#dcd5b6 }
    .water { fill:#4a6b96 }
    .wood { fill:#593700 }
    .tarmac { fill:#768089 }
    .gravel { fill:#946d3e }
    .building { fill:#1a2632 }
    .floor { fill:#70777f }
    .locked { fill:#37414c }
    .map_border { fill:none;stroke:#000;stroke-width:2 }
    .fence { fill:none;stroke:#c4e3c3;stroke-width:1 }
    .road_tarmac { fill:none;stroke:#888 }
    .road_gravel { fill:none;stroke:#946d3e }
    .road_small { stroke-width:5 }
    .road_medium { stroke-width:8 }
    .road_large { stroke-width:12 }
    .railroad { fill:none;stroke:#914833;stroke-dasharray:6;stroke-width:3 }
    .powerline { fill:none;stroke:#ffce00;stroke-width:2;stroke-miterlimit:10;stroke-dasharray:6,6 }
    .danger { fill:red;fill-opacity:.4;stroke:red;stroke-dasharray:4,2;stroke-width:2 }
    .task { fill:#000 }
    .stairs { fill:#FFD700 }
    .shadow { filter:drop-shadow(0 0 2px #000) }
  </style>
  <defs id="defs1">
    <path id="ladder-11" d="m77.602766 167.04806 3.397574.35602-.155132 1.45062-3.397574-.35601z"/>
    <path id="ladder-12" d="m89.094684 174.90573 3.194522.35209-.284265 2.84623-3.194522-.35208z"/>
    <path id="ladder-13" d="m132.33867 181.49159 2.34868.2964-.61436 4.86817-2.34868-.2964z"/>
    <path id="ladder-14" d="m146.22494 183.40508 2.29118.28913-.59931 4.74902-2.2912-.28914z"/>
    <path id="ladder-15" d="m137.51555 228.89385-5.74757-.76578.37543-2.71685 5.74756.76578z"/>
    <path id="ladder-16" d="m135.61394 241.37663-5.28628-.72614-.36799 2.66305 5.28628.72614z"/>
    <path id="ladder-17" d="m367.70351 244.24416.74711-5.03729 5.65125.86404-.74712 5.0373z"/>
    <path id="ladder-18" d="m366.9712 248.93522.65124-4.24128 5.65124.86404-.65124 4.24128z"/>
    <path id="ladder-19" d="m494.62337 166.85693 6.45972-1.26203-.64992-3.58396-6.45969 1.26203z"/>
    <path id="ladder-20" d="m489.24561 200.90596-4.83865.98166-.66539-3.66935 4.83866-.98166z"/>
    <path id="ladder-21" d="m604.85218 140.84915-4.17374.88448-.62509-3.08386 4.17377-.88448z"/>
    <path id="ladder-22" d="m589.63398 214.56692.32062 1.53033 3.00351-.6249-.32062-1.53034z"/>
    <path id="ladder-23" d="m892.12543 192.26153 5.94118.19328.0773-3.00286-5.94119-.19328z"/>
    <path id="ladder-24" d="m461.50858 444.15754-4.26336-.64027.36143-2.41903 4.26335.64028z"/>
    <path id="ladder-25" d="m521.6044 459.92538-.35297 2.54431 4.18889.56632.35297-2.54432z"/>
    <path id="ladder-26" d="m516.34343 445.83686 8.01782 1.11129.2662-1.9207-8.0178-1.11129z"/>
    <path id="ladder-27" d="m510.22029 488.58834 7.8939 1.09411.26211-1.89102-7.89391-1.09412z"/>
    <path id="ladder-28" d="m456.58126 471.00925 7.22868.98114.23503-1.73166-7.22867-.98114z"/>
    <path id="ladder-29" d="m467.12858 286.08532-5.12529.93599-.80807-4.42485 5.12529-.93599z"/>
    <path id="ladder-30" d="m617.85426 296.69948 3.50829.23243.31426-4.74386-3.50832-.23241z"/>
    <path id="ladder-31" d="m114.35466 250.39445.70885-4.64961 2.60671.38327-.70048 4.65077z"/>
    <path id="ladder-32" d="m346.81363 269.39613 1.483.227.501-3.278-1.483-.227z"/>
    <path id="ladder-33" d="m63.76334 167.0565 2.131133.29218-.963116 7.08717-2.131133-.29218z"/>
    <path id="ladder-34" d="m225.17139 182.00333 2.48387.30284-.85862 7.30188-2.48387-.30284z"/>
    <path id="ladder-35" d="M350.88894 260.08079c-.24021-2.25458 1.79843-2.94307 1.03069-7.36203-.25074-1.44321 3.56496-.69835 3.41241.47774-.2843 2.19185-1.07465 4.69494-1.03069 7.36202.0207 1.25842-3.27156.8443-3.41241-.47773z"/>
    <path id="ladder-36" d="M361.54048 217.96477c.82525.24041.98746 3.22683.29448 5.15342-.69783 1.94009-2.53457 1.34839-3.0736.17564-.96355-2.09637-1.14958-4.58389-.29449-5.15342.66226-.4411 1.56518-.61507 3.07361-.17564z"/>
    <path id="ladder-37" d="m613.09955 160.00639-4.73763.96033.28686 1.4248 4.73763-.96033z"/>
    <path id="ladder-38" d="m476.49494 156.74569 10.94335-2.08834-.31568-1.7404-10.94335 2.08834z"/>
    <path id="ladder-39" d="m382.87589 120.25414-1.77149.41211 1.33986 5.73048 1.77148-.41407z"/>
    <path id="ladder-40" d="m110.36933 309.85779 4.39395 3.75094.93387-1.09778-4.40038-3.74338z"/>
  </defs>
  
  
  
  <g id="Second_Floor" class="shadow">
    <g id="Ladders-2" class="stairs">
      <path d="m483.49307 150.22094-.66211.11914-.66015.1211.60351 3.33008.56055 3.0957 1.32226-.23828-.56054-3.09766z"/>
      <use xlink:href="#ladder-11" x="0" y="0"/>
      <use xlink:href="#ladder-12" x="0" y="0"/>
      <use xlink:href="#ladder-13" x="0" y="0"/>
      <use xlink:href="#ladder-14" x="0" y="0"/>
      <use xlink:href="#ladder-15" x="0" y="0"/>
      <use xlink:href="#ladder-16" x="0" y="0"/>
      <use xlink:href="#ladder-17" x="0" y="0"/>
      <use xlink:href="#ladder-18" x="0" y="0"/>
      <use xlink:href="#ladder-19" x="0" y="0"/>
      <use xlink:href="#ladder-20" x="0" y="0"/>
      <use xlink:href="#ladder-21" x="0" y="0"/>
      <use xlink:href="#ladder-22" x="0" y="0"/>
      <use xlink:href="#ladder-23" x="0" y="0"/>
      <use xlink:href="#ladder-24" x="0" y="0"/>
      <use xlink:href="#ladder-25" x="0" y="0"/>
      <use xlink:href="#ladder-26" x="0" y="0"/>
      <use xlink:href="#ladder-27" x="0" y="0"/>
      <use xlink:href="#ladder-28" x="0" y="0"/>
      <use xlink:href="#ladder-29" x="0" y="0"/>
      <use xlink:href="#ladder-30" x="0" y="0"/>
      <use xlink:href="#ladder-31" x="0" y="0"/>
      <use xlink:href="#ladder-32" x="0" y="0"/>
      <use xlink:href="#ladder-37" x="0" y="0"/>
      <use xlink:href="#path493" x="0" y="0"/>
    </g>
    <g id="Buildings-2" class="floor">
      <path d="m614.93945 135.50273-2.38647.49795-3.20054.64246.0615.30739.14647.70211-.0768.0153-.0768.0173-.14648-.70403-.0615-.30739-2.47266.50639-2.98934.6071.16906.84339.17098.84338-.37463.0768-.37461.0788-.66665.13256-.66856.13256.15753.78383.15946.78192 1.96342-.39769 2.6055-.52114.1825.94329.18252.94712-.0673.023-.0673.023-.17675-.87606-.17675-.87604-3.3413.66907-2.69923.54755 1.95383 9.64424 1.95382 9.64618 2.69732-.54753 3.3413-.66908-.14601-.72045-.14601-.72235.0768-.0134.0768-.0153.14601.71852.14601.72235.61316-.12202.0812.37397 1.41924-.30504-.0733-.36427.93925-.19992-.4466-2.20963-.54344-2.65222.0768-.0173.0768-.0153.18611.89051 2.90507-.59672 2.68386-.54176-.4172-2.0249-.61478-3.03544-2.68386.5437-2.90507.59671.27473 1.34867.2728 1.34865-.0768.0153-.0768.0173-1.5876-7.86881-1.0581-5.24773.0711-.006.0692-.004.77568 3.81263 1.30519 6.42986 2.90507-.59671 2.68386-.54369-1.5876-7.86498zm-7.01225 10.22237 1.0432 5.15257 1.04319 5.15064-.0768.0173-.0768.0153-1.04318-5.15257-1.0432-5.15256.0768-.0153z"/>
      <path d="m497.48242 144.42773-.75.13672 1.56055 8.54297-10.33008 1.88867.38867 2.12305-.61718.11328-.2168-1.17187-10.54883 1.95117-1.75195-9.47461-.63672.11719 3.14844 17.0332 2.14648-.40234.97656 5.15625-2.16992.40625 5.05993 27.37061 3.78011-.7669.72075 3.65811-3.83547.77814 1.04226 5.57918 11.10547-2.05274-2.44336-13.22265.65039-.11914 2.41211 13.23242 11.05859-2.01953-6.87516-37.7407-4.21273.82663-.63281-3.41601 4.21289-.7793zm-8.89062 14.01368 4.47461 24.48437 1.72851-.31445.84375 4.61719-1.70508.3125.25 1.37109-.60156.11133-3.74609-20.27539-6.92383 1.27929-.93359-5.05664 6.90625-1.27734-.94922-5.13086zm14.83593 22.63867.78321 4.46484-6.36524 1.11524-.78125-4.46485z"/>
      <g id="Streamers-2f">
        <path d="m122.59151 211.19278-.91955 6.48553-.79779 5.77625 2.9346.40471 2.85327.39599.19848-1.42809.298-2.01658.0668.01.0658.01-.298 2.01658-.19654 1.42518 6.58312.93807-.1249.89267-.10456.761.50955.0553.76003.10359.1036-.75228.12489-.90043 3.78016.50933.54412-3.94636.72871-5.18616-.59157-.0891-.5935-.0881v-.12296l.60124.0823.60319.0833.24205-1.76018.1831-1.23256-5.77528-.79876-5.85661-.80845-.24398 1.76018-.18117 1.23257 4.48177.62061 4.40238.60706-.01.0678-.009.0668-4.40238-.609-4.48178-.61867-.19267 1.39904-.27675 2.05132 2.6819.36985 1.28251.17656.091-.66709.0929-.66612.0658.008.0687.01-.10263.73389-.10166.73389-1.34738-.18624-2.74967-.3805-.03.22946-.0329.2285-.0581-.0174-.0591-.0165.56043-4.16489.41741-2.9879-2.85424-.39309z"/>
        <path d="m131.37136 241.97615-.12064.86569-.11871.8628-.30917-.0579-.28278 2.0489-.30019 2.22115-4.18499-.57743-3.09506-.42754.01-.0733.008-.0589 3.02171.41692 4.12613.56778.29054-2.15359.27312-1.98231-5.27555-.72027-4.16922-.5694-.27215 1.96976-.28861 2.14008.51053.0791.5115.0772-.01.0656-.01.0656-.57134-.0791-.58388-.0811.1342-1.02347.11098-.79717-.3262-.0434-.3484-.0492.0116-.0734.008-.0598.33296.0444.33971.0473.15635-1.12916.16214-1.17163-1.34921-.19495-1.34824-.19205-.16406 1.1861-.15442 1.12916.332.0463.33199.0454-.01.0666-.01.0675-.42368-.0589-.42657-.0579.008-.055-1.58179-.21811-.9236-.14573-.16793 1.22181-.16889 1.22277 1.24787.16986 1.24594.18144.0396-.28664.0376-.28663.19784.028-.0608.44298-.0618.44298-.0984.71513-.0975.71224 3.71272.5144 3.76484.51826-.0174.0608-.0164.0579-3.75326-.51246-3.70982-.50571-.50089 3.62296-.23949 1.64256 8.74955 1.21023 8.75052 1.2083.33103-2.40695.40935-2.85857-3.19343-.43511-4.1992-.58597.01-.0685.009-.0656 2.38964.33793 1.88869.25961.2683-1.94177.26733-1.94081.0676.009.0666.01-.2683 1.94177-.26926 1.94177 1.742.23935 1.23912.16584.44973-3.25719.45842-3.31221-1.23912-.16585-1.74296-.24127-.10037.73347-.0946.67846-.0656-.01-.0656-.01.0936-.67846.10037-.73154-.45263-.0637.12064-.86376.11871-.86279-.7576-.1052z"/>
      </g>
      <path d="m617.36523 281.95117-.35351 4.6875-.35547 4.6875-1.06836-.08008-2.17187-.16601-.29688 3.92578-.29687 3.92578-.03516.47461-.03711.47461 2.48828.18945 1.34766.10157.02148-.28711.02149-.28711.89062.0664.89258.06836-.02344.28711-.02148.28711 3.16406.24024 3.75195.27734.02344-.31641.02344-.3164.28906.02148.28711.02344.09766-1.28516.09765-1.28515.18946-2.51172.18945-2.51172-.32617-.02539-.24805-.01758.06641-.89258.06836-.89062.24414.01953.33007.02344.22461-2.97657.22657-2.97656.0625-.81836.0625-.82031-.38086-.0293-.19532-.01367.02149-.28906.02148-.28711-3.75195-.27735-3.16211-.24023-.02344.28711-.02148.28711-.89063-.06641-.89257-.06836.02343-.28711.01953-.28711-.29492-.02343-.29883-.02149zm.80274 10.00391 3.50976.23242-.31445 4.74414-3.50976-.23242.31445-4.74414z"/>
      <path d="m519.41992 271.44141-43.40234 7.92578.41992 2.29687-2.54883.46485-.42187-2.3125-7.24219 1.32226.9043 4.94727-5.91993 1.08008 1.15235 6.31054 13.19726-2.41015-1.07421-5.88086 2.58203-.47071 1.07617 5.90821 43.20703-7.89063-.14063-.78906-28.29687 5.16797-1.78711-9.79102 28.41992-5.1914zm-30.66601 6.3125 1.78711 9.79101-2.64258.48242-1.78906-9.79101z"/>
      <path d="m521.35352 283.28125-58.75977 10.71289.10937.59766 8.06446-1.47071 1.81054 9.92383-8.12695 1.48242.0937.51954 58.96094-10.75-.11328-.62305-35.81641 6.52929-1.7832-9.77929 35.67578-6.50391zm-40.63282 8.02539 1.81055 9.92383-2.41602.43945-1.80859-9.92383z"/>
      <g id="Big_red-2f" transform="translate(125.09546 28.099026) scale(.859798)">
        <g id="Big_red-2f-locked" class="locked">
          <path d="m896.79 205.169.038-1.35-.056-.001-.055-.002.008-.3.009-.301.015-.124.015-.125.044.002.044.001.068-2.441.069-2.441-.056-.001-.055-.002.011-.424.012-.424.051-.005.051-.004.071-2.353.071-2.353.767.022.768.021-.197 6.999-.196 6.999-.768-.021-.767-.022z"/>
        </g>
        <path d="m891.786 199.28-.012-.013.097-3.446.096-3.445 2.487.07 2.487.069-.061 2.354-.061 2.353.041.007.041.007-.011.424-.012.424-.035-.001-.034-.001-.015.125-.016.124-.015.55-.016.55-2.474-.069-2.475-.07z"/>
        <path d="m891.676 202.921.101-3.453 2.483.065 2.483.065-.047 1.668-.046 1.669.01.042.01.042h-.017l-.017-.001-.051-.108-.051-.107-.032.179-.032.18-.016-.001h-.015l-.156-.068-.156-.068.039.069.039.07.05.078.05.079v.017l-.001.016-.168.045-.167.045-.001.007v.007l.165.057.165.058v.014l-.001.014-.083.122-.083.123-.015.023-.014.023.09-.033.09-.033.08-.029.08-.03.006.007.006.007.021.177.022.176.053-.096.053-.095h.02l.02.001-.012.029-.012.029-.035 1.256-.035 1.255-2.487-.069-2.488-.07z"/>
        <path d="m897.09427 187.59015-.0889 3.33535-5.40982-.11591-.0318 1.35368 5.57726.14573-.006.207 1.545.044.006-.207.179.005-.403 14.374-7.22684-.194h-.002l-.22755 6.7963 12.61357.39555.12536-3.31379-3.30672-.14355.62689-22.54554z"/>
      </g>
      <g id="3s-2f" transform="translate(6.879846 6.449244) scale(.986781)">
        <g id="3s-2f-locked" class="locked">
          <path d="m521.154 451.263.209-1.507 3.064.425 3.063.424-.209 1.508-.209 1.507-3.063-.425-3.063-.424z"/>
          <path d="m511.818 449.969.209-1.507 3.053.423 3.054.424-.209 1.507-.209 1.507-3.054-.423-3.053-.424z"/>
          <path d="m502.334 472.475.423-3.053 1.508.209 1.507.208-.423 3.054-.424 3.054-1.507-.209-1.507-.209z"/>
          <path d="m499.222 472.044.423-3.054 1.498.208 1.497.207-.423 3.054-.424 3.053-1.497-.207-1.497-.208z"/>
          <path d="m516.404 485.538.209-1.508 3.063.425 3.064.425-.209 1.507-.209 1.507-3.064-.425-3.063-.424z"/>
        </g>
        <path d="m513.74582 486.70689-.11982-.0179-.573-.08.437-3.111.436-3.112-.607-.084-.607-.084-.006.049-.007.049.558.077.558.077-.429 3.058-.43 3.068-1.503-.208-1.502-.209.424-3.063.425-3.063.538.074.539.075-.002.009-.001.008-.168.06-.168.06-.001.014-.002.014.192.053.192.052-.001.007-.001.007-.096.168-.095.167.007.009.006.009.165-.076.165-.076.018.003.018.002.019.088.02.087.018.122.019.123.084-.185.083-.185.025-.006.024-.006.14.12.14.119.009-.007.009-.007-.047-.187-.046-.187.001-.007.001-.007.199.002.2.002.002-.014.002-.015-.162-.114-.162-.114-.391-.054-.39-.055.015-.046.016-.047-.603-.089-.603-.09-.573-.074-.574-.073-.006.048-.007.048.558.077.558.077-.425 3.064-.425 3.063-1.497-.207-1.497-.208.424-3.063.425-3.064.548.076.548.076.007-.048.006-.047-.576-.086-.577-.086-.578-.075-.578-.074-.007.048-.007.048.548.076.548.076-.424 3.063-.425 3.064-1.497-.208-1.498-.207.425-3.064.425-3.063.557.077.558.078.007-.048.007-.049-.572-.085-.572-.085-.593-.076-.593-.076-.006.048-.007.048.558.077.558.077-.425 3.064-.424 3.063-1.508-.209-1.507-.209.425-3.063.424-3.063.558.077.558.077.007-.048.006-.047-.591-.089-.591-.088-.574-.073-.573-.074-.007.048-.006.048.558.078.558.077-.429 3.058-.431 3.067-1.502-.208-1.502-.208.424-3.063.425-3.064.558.078.558.077.006-.048.007-.048-.591-.088-.592-.088-.573-.074-.573-.073-.007.048-.007.048.548.076.549.076-.425 3.063-.425 3.064-1.497-.208-1.497-.207.424-3.064.425-3.063.558.077.557.078.007-.049.007-.049-.558-.078-.558-.077.209-1.507.209-1.507.554.072.553.071.013-.043.012-.043-.559-.078-.559-.077.424-3.064.425-3.063 1.497.208 1.498.207-.425 3.063-.425 3.064-.548-.076-.548-.076-.006.049-.007.049 4.277.593 4.277.592.006-.048.007-.049-.552-.082-.552-.082.419-3.059.419-3.059 1.507.209 1.507.209-.425 3.063-.424 3.064-.558-.078-.558-.077-.007.049-.006.049.606.084.607.084.437-3.116.437-3.117 3.118.427 3.118.427.084-.606.084-.607-.059-.008-.058-.008-.078.557-.077.558-3.064-.424-3.063-.425.213-1.502.213-1.501 3.06.419 3.059.419-.078.558-.077.558.059.008.059.008.592-4.277.593-4.277-.059-.008-.058-.008-.076.548-.076.548-3.064-.425-3.063-.424.208-1.498.207-1.497 3.063.424 3.063.425-.071.554-.072.553.049.007.049.007.162-1.165.161-1.164-.049-.007-.049-.007-.082.552-.081.552-3.064-.424-3.063-.425.208-1.497.208-1.497 3.063.424 3.063.425-.072.553-.071.554.049.007.049.007.161-1.165.161-1.165-.049-.007-.048-.006-.082.552-.082.552-3.063-.424-3.063-.425.207-1.497.208-1.498 3.063.425 3.064.424-.076.549-.076.548.058.008.059.008.372-2.717.371-2.716-.049-.007-.049-.007-.082.552-.081.553-3.058-.429-3.057-.429.207-1.497.208-1.498 3.059.419 3.058.419-.071.554-.071.554.048.006.049.007.077-.553.077-.553.562.078.38105.0477.0509-.34731 1.27578.18481-.0509.34731.24717.0315.558.077-.078.56-.077.559h.09l.082-.552.081-.553 3.063.425 3.063.425-.208 1.507-.209 1.507-3.063-.425-3.063-.424.071-.554.071-.554-.043-.012-.043-.012-.077.564-.077.564-.308 2.157-.309 2.157.048.006.047.007.076-.548.076-.548 3.032.42 3.033.42.032-.007.033-.008-.209 1.509-.21 1.51-3.063-.425-3.063-.424.077-.558.077-.558-.048-.007-.047-.006-.088.591-.089.591-.073.574-.074.573.048.007.048.006.076-.548.076-.548 3.064.425 3.063.424-.207 1.498-.208 1.497-1.269-.176-1.269-.176-1.796-.235-1.796-.236.074-.567.073-.566-.043-.013-.044-.012-.085.618-.086.618 1.253.173 1.253.174-.108.773-.107.773.621.091.621.091-.101.725-.1.724-1.865-.253-1.865-.254-.438 3.126-.439 3.126-.076.593-.077.593.048.007.049.007.077-.558.077-.558.363.05.362.05.006-.049.007-.049-.362-.05-.362-.05.425-3.063.424-3.064 3.064.425 3.063.424-.209 1.508-.209 1.507-2.31-.32-2.309-.32-.007.049-.007.048 2.31.321 2.31.32-.209 1.507-.209 1.507-2.31-.32-2.31-.32-.007.049-.006.049 2.309.32 2.31.32-.209 1.507-.209 1.507-3.063-.424-3.063-.425.077-.558.077-.557-.048-.007-.048-.007-.085.572-.085.572-.158 1.18-.158 1.18.048.007.049.006.157-1.135.157-1.135 3.064.424 3.063.425-.423 3.053-.423 3.054-3.064-.425-3.063-.424.157-1.135.158-1.136-.049-.007-.049-.006-.158 1.135-.158 1.135-.224 1.615-.224 1.615-.076.558-.077.558.049.006.049.007.077-.558.077-.557 3.064.424 3.063.425-.213 1.501-.213 1.502-3.059-.419-3.06-.419.078-.558.077-.558-.049-.007-.049-.006-.078.562-.079.563-.214 1.551-.213 1.552-.559-.078-.13737-.022-.0551.37481-1.6568-.2251zm.54718-9.40189.038-.274-.284-.039-.283-.04-.038.274-.038.274.283.04.284.039z"/>
      </g>
      <g id="2s-2f" transform="translate(7.417798 7.698258) scale(.98364)">
        <g id="2s-2f-locked" class="locked">
          <path d="m457.472 438.733.205-1.516 3.082.418 3.082.419-.206 1.516-.206 1.516-3.081-.418-3.082-.418z"/>
        </g>
        <path d="m460.38771 469.73216.0432-.31856-.17182-.0196-.561-.076.076-.561.076-.561-.049-.007-.049-.007-.075.552-.078.571-3.081-.419-3.082-.418.207-1.526.204-1.506 3.082.418 3.082.418-.076.561-.076.562.049.006.049.007.16-1.182.161-1.181-.049-.007-.05-.006-.076.561-.076.561-3.082-.418-3.082-.419.205-1.506.204-1.506 3.082.418 3.082.418-.075.552-.075.551.049.007.05.006.159-1.171.159-1.172-.049-.007-.05-.006-.076.561-.076.561-3.082-.418-3.082-.419.206-1.516.206-1.516 3.076.422 3.076.423-.07.557-.07.557.049.007.049.006.159-1.171.159-1.172-.05-.007-.049-.006-.076.561-.076.561-3.082-.418-3.082-.419.206-1.516.206-1.516 3.082.418 3.082.418-.077.562-.076.561.049.007.05.006.159-1.171.159-1.172-.05-.007-.049-.007-.076.562-.076.561-3.082-.418-3.082-.419.206-1.516.206-1.516 3.082.418 3.081.418-.076.562-.076.561.049.006.05.007.159-1.171.159-1.172-.049-.007-.049-.006-.081.555-.081.556-3.077-.413-3.078-.413.206-1.516.206-1.516 3.082.418 3.081.418-.076.562-.076.561.049.006.05.007.509-3.751.509-3.752-1.881-.255-1.88-.255.099-.728.098-.729.626.08.626.08.112-.782.111-.782 1.25.169 1.251.17.295-2.176.295-2.176-.049-.007-.049-.006-.076.561-.077.561-3.081-.418-3.082-.419.206-1.516.205-1.516 3.082.418 3.082.418-.076.562-.076.561.049.007.049.006.159-1.171.159-1.172-.049-.007-.049-.006-.08.555-.081.556-3.078-.413-3.077-.412.206-1.517.205-1.516 3.082.418 3.082.418-.076.562-.076.561.049.007.049.006.159-1.171.159-1.172-.049-.007-.049-.006-.075.551-.075.551-3.082-.418-3.082-.418.205-1.507.204-1.506 3.082.418 3.082.418-.076.562-.076.561.049.007.049.006.076-.561.076-.561 1.517.206 1.516.205-.076.562-.076.561.049.007.049.006.076-.561.076-.561 3.082.418 3.082.418-.204 1.507-.205 1.506-3.082-.418-3.082-.418.075-.552.075-.551-.049-.007-.049-.006-.159 1.171-.159 1.172.049.007.049.006.076-.561.076-.561 3.082.418 3.082.418-.206 1.517-.206 1.516-3.076-.423-3.076-.422.07-.557.071-.557-.049-.007-.049-.006-.159 1.171-.159 1.172.049.007.049.006.076-.561.076-.561 3.082.418 3.082.418-.206 1.517-.206 1.516-3.081-.418-3.082-.419.076-.561.076-.561-.049-.007-.049-.006-.159 1.171-.159 1.172.049.007.049.006.076-.561.077-.561 3.081.418 3.082.418-.206 1.517-.205 1.516-3.082-.418-3.082-.419.076-.561.076-.561-.049-.007-.049-.006-.159 1.171-.159 1.172.049.007.049.006.08-.555.081-.556 3.078.413 3.077.412-.206 1.517-.205 1.516-3.082-.418-3.082-.419.076-.561.076-.561-.049-.007-.049-.006-.159 1.171-.159 1.172.049.007.049.006.075-.551.075-.551 3.082.418 3.081.418-.204 1.507-.204 1.506-3.082-.418-3.082-.419.076-.561.076-.561-.049-.007-.049-.006-.161 1.181-.16 1.182.049.006.05.007.076-.561.076-.561 3.082.418 3.082.418-.205 1.507-.204 1.506-3.082-.418-3.082-.418.075-.552.075-.551-.05-.007-.049-.007-.159 1.172-.159 1.172.049.006.05.007.076-.561.076-.561 3.082.418 3.082.418-.206 1.517-.206 1.516-3.076-.423-3.076-.422.07-.557.07-.557-.049-.007-.049-.007-.239 1.763-.239 1.762.049.007.049.007.157-1.152.156-1.152 3.082.418 3.082.418-.419 3.082-.418 3.082-3.082-.418-3.082-.419.157-1.152.156-1.152-.049-.006-.049-.007-.24 1.762-.239 1.763.049.006.049.007.081-.555.081-.556 3.077.413 3.078.412-.206 1.517-.206 1.516-3.082-.418-3.082-.419.077-.561.076-.561-.049-.007-.05-.006-.159 1.171-.159 1.172.05.007.049.006.075-.551.074-.552 3.082.419 3.082.418-.204 1.507-.205 1.506-3.082-.418-3.082-.419.077-.561.076-.561-.049-.007-.05-.006-.16 1.181-.16 1.182.049.006.049.007.076-.561.076-.561 3.082.418 3.082.418-.204 1.507-.208 1.526-3.081-.419-3.082-.418.077-.571.075-.551-.049-.007-.049-.007-.076.562-.077.561-.561-.076-.20003-.0262-.0432.31857z"/>
      </g>
      <path d="m589.228 214.239.46 2.213-11.487 2.39-.46-2.213z"/>
      <path d="m369.44439 239.37537-.80303 5.01931-6.44669-.96621 1.23076-7.8016 4.17407.63644.069-.454-4.62707-.70644-1.31658 8.5751-1.36839-.21393 1.52938-10.17258 3.30827.47949 3.90572-25.48497 9.60962 1.47738-4.12052 27.09146-4.27848-.66551-.072.473 4.28348.66751-.42373 2.75529z"/>
      <path d="m367.90123 249.10266.6596-4.29872-3.67374-.5866-.158 1.031-.486-.074.161-1.054-2.439-.373-.94544 6.03258 6.67306 1.02267.22871-1.38783-4.25406-.65367.28565-1.81163.502.077-.23252 1.4886z"/>
      <path d="m340.26885 270.38149.67397-4.57992 3.95108.63443-.31361 2.10458.30364.049.59968-3.92104-.31371-.0499-.23942 1.49877-3.94833-.63348.55793-3.58164 3.91907.62868-.0768.52885.32743.0528.12987-.8907-4.2401-.68051.16944-1.15514 6.11461.9514-1.21675 8.00585 1.64207.25971-.17337 1.34243-1.62104-.25586-.10908.647-1.88366-.27281.15548-1.06635-.28901-.0461-.15548 1.06539z"/>
      <path d="m75.2497 165.004-1.6367 15.388 11.7383 1.25.01347-.21156.2968.031-.01347.21256 11.0391 1.173.415965-3.87914-2.2793-.242.0352-.318 2.2734.24.20595-1.87539-3.513359-.38131.80011-7.56504 3.517359.38232.181475-1.74944Zm2.373325 2.02244 15.435741 1.63368-.80011 7.56504-2.150641-.22169-.20795 1.89839 3.2402.346-.0332.31-7.0449-.75-.23849 2.12458-.3222-.034.0254-.24-8.252-.877.808689-7.43301-.9062-.098z"/>
      <path d="m132.23746 182.73097-.45379 3.59718-7.47477-.94326 1.27594-10.11043 7.46978.94243-.18832 1.4933-6.05696-.7649-.92419 7.32544 4.70056.59399.87192-6.90814 1.36056.17173z"/>
      <path d="m109.94932 307.36794 4.73264-5.57775 5.54425 4.70421-4.73264 5.57775z"/>
      <path d="m146.03811 184.61487-.45379 3.59718-7.47477-.94326 1.27594-10.11043 7.46978.94243-.18832 1.4933-6.05696-.7649-.92419 7.32544 4.70056.59399.87192-6.90814 1.36056.17173z"/>
    </g>
  </g>
  
</svg>