<svg xmlns="http://www.w3.org/2000/svg" xmlns:xlink="http://www.w3.org/1999/xlink" xml:space="preserve" id="svg89" version="1.1" viewBox="0 0 1062.4827 535.17401">
  <style id="style_common">
    .trees { fill:#144043 }
    .cement { fill:#c6c2c2 }
    .land { fill:#1f5054 }
    .rock { fill:#dcd5b6 }
    .water { fill:#4a6b96 }
    .wood { fill:#593700 }
    .tarmac { fill:#768089 }
    .gravel { fill:#946d3e }
    .building { fill:#1a2632 }
    .floor { fill:#70777f }
    .locked { fill:#37414c }
    .map_border { fill:none;stroke:#000;stroke-width:2 }
    .fence { fill:none;stroke:#c4e3c3;stroke-width:1 }
    .road_tarmac { fill:none;stroke:#888 }
    .road_gravel { fill:none;stroke:#946d3e }
    .road_small { stroke-width:5 }
    .road_medium { stroke-width:8 }
    .road_large { stroke-width:12 }
    .railroad { fill:none;stroke:#914833;stroke-dasharray:6;stroke-width:3 }
    .powerline { fill:none;stroke:#ffce00;stroke-width:2;stroke-miterlimit:10;stroke-dasharray:6,6 }
    .danger { fill:red;fill-opacity:.4;stroke:red;stroke-dasharray:4,2;stroke-width:2 }
    .task { fill:#000 }
    .stairs { fill:#FFD700 }
    .shadow { filter:drop-shadow(0 0 2px #000) }
  </style>
  <defs id="defs1">
    <path id="ladder-11" d="m77.602766 167.04806 3.397574.35602-.155132 1.45062-3.397574-.35601z"/>
    <path id="ladder-12" d="m89.094684 174.90573 3.194522.35209-.284265 2.84623-3.194522-.35208z"/>
    <path id="ladder-13" d="m132.33867 181.49159 2.34868.2964-.61436 4.86817-2.34868-.2964z"/>
    <path id="ladder-14" d="m146.22494 183.40508 2.29118.28913-.59931 4.74902-2.2912-.28914z"/>
    <path id="ladder-15" d="m137.51555 228.89385-5.74757-.76578.37543-2.71685 5.74756.76578z"/>
    <path id="ladder-16" d="m135.61394 241.37663-5.28628-.72614-.36799 2.66305 5.28628.72614z"/>
    <path id="ladder-17" d="m367.70351 244.24416.74711-5.03729 5.65125.86404-.74712 5.0373z"/>
    <path id="ladder-18" d="m366.9712 248.93522.65124-4.24128 5.65124.86404-.65124 4.24128z"/>
    <path id="ladder-19" d="m494.62337 166.85693 6.45972-1.26203-.64992-3.58396-6.45969 1.26203z"/>
    <path id="ladder-20" d="m489.24561 200.90596-4.83865.98166-.66539-3.66935 4.83866-.98166z"/>
    <path id="ladder-21" d="m604.85218 140.84915-4.17374.88448-.62509-3.08386 4.17377-.88448z"/>
    <path id="ladder-22" d="m589.63398 214.56692.32062 1.53033 3.00351-.6249-.32062-1.53034z"/>
    <path id="ladder-23" d="m892.12543 192.26153 5.94118.19328.0773-3.00286-5.94119-.19328z"/>
    <path id="ladder-24" d="m461.50858 444.15754-4.26336-.64027.36143-2.41903 4.26335.64028z"/>
    <path id="ladder-25" d="m521.6044 459.92538-.35297 2.54431 4.18889.56632.35297-2.54432z"/>
    <path id="ladder-26" d="m516.34343 445.83686 8.01782 1.11129.2662-1.9207-8.0178-1.11129z"/>
    <path id="ladder-27" d="m510.22029 488.58834 7.8939 1.09411.26211-1.89102-7.89391-1.09412z"/>
    <path id="ladder-28" d="m456.58126 471.00925 7.22868.98114.23503-1.73166-7.22867-.98114z"/>
    <path id="ladder-29" d="m467.12858 286.08532-5.12529.93599-.80807-4.42485 5.12529-.93599z"/>
    <path id="ladder-30" d="m617.85426 296.69948 3.50829.23243.31426-4.74386-3.50832-.23241z"/>
    <path id="ladder-31" d="m114.35466 250.39445.70885-4.64961 2.60671.38327-.70048 4.65077z"/>
    <path id="ladder-32" d="m346.81363 269.39613 1.483.227.501-3.278-1.483-.227z"/>
    <path id="ladder-33" d="m63.76334 167.0565 2.131133.29218-.963116 7.08717-2.131133-.29218z"/>
    <path id="ladder-34" d="m225.17139 182.00333 2.48387.30284-.85862 7.30188-2.48387-.30284z"/>
    <path id="ladder-35" d="M350.88894 260.08079c-.24021-2.25458 1.79843-2.94307 1.03069-7.36203-.25074-1.44321 3.56496-.69835 3.41241.47774-.2843 2.19185-1.07465 4.69494-1.03069 7.36202.0207 1.25842-3.27156.8443-3.41241-.47773z"/>
    <path id="ladder-36" d="M361.54048 217.96477c.82525.24041.98746 3.22683.29448 5.15342-.69783 1.94009-2.53457 1.34839-3.0736.17564-.96355-2.09637-1.14958-4.58389-.29449-5.15342.66226-.4411 1.56518-.61507 3.07361-.17564z"/>
    <path id="ladder-37" d="m613.09955 160.00639-4.73763.96033.28686 1.4248 4.73763-.96033z"/>
    <path id="ladder-38" d="m476.49494 156.74569 10.94335-2.08834-.31568-1.7404-10.94335 2.08834z"/>
    <path id="ladder-39" d="m382.87589 120.25414-1.77149.41211 1.33986 5.73048 1.77148-.41407z"/>
    <path id="ladder-40" d="m110.36933 309.85779 4.39395 3.75094.93387-1.09778-4.40038-3.74338z"/>
  </defs>
  
  
  
  
  <g id="Third_Floor" class="shadow" transform="translate(.261426 .052285)">
    <g id="Ladders-3" class="stairs" transform="translate(-.261426 -.052285)">
      <use xlink:href="#ladder-25" x="0" y="0"/>
      <use xlink:href="#ladder-26" x="0" y="0"/>
      <use xlink:href="#ladder-27" x="0" y="0"/>
    </g>
    <g id="Buildings-3" class="floor">
      <g id="3s-3f" transform="translate(5.38608 5.316086) scale(.989104)">
        <g id="3s-3f-locked" class="locked">
          <path d="m511.82 449.984.209-1.507 3.053.423 3.054.424-.209 1.507-.209 1.507-3.053-.423-3.054-.423z"/>
          <path d="m520.294 457.503.209-1.507 3.058.429 3.058.428-.204 1.503-.203 1.504-3.063-.425-3.064-.425z"/>
          <path d="m508.365 474.912.207-1.497 3.054.423 3.054.423-.208 1.497-.207 1.498-3.054-.423-3.054-.424z"/>
          <path d="m517.27 479.318.208-1.497 3.063.425 3.064.424-.208 1.498-.207 1.497-3.064-.425-3.063-.424z"/>
          <path d="m507.069 484.259.209-1.507 3.054.423 3.054.423-.209 1.507-.209 1.507-3.054-.423-3.053-.423z"/>
        </g>
        <path d="m495.406 476.288 1.079-7.781 6.205.86 6.205.86-.486 3.504-.486 3.504.049.007.049.006.05-.362.051-.362 3.117.427 3.118.428.306-2.168.305-2.167-.059-.008-.058-.008-.078.558-.077.558-3.064-.425-3.063-.425.213-1.501.213-1.502 3.06.419 3.059.419-.078.558-.077.558.059.008.059.008.161-1.164.161-1.165-.058-.008-.059-.008-.077.558-.078.557-3.063-.424-3.064-.425.214-1.501.213-1.502 3.059.419 3.059.419-.077.558-.078.558.059.008.059.008.161-1.165.162-1.164-.059-.009-.059-.008-.077.558-.077.558-3.058-.429-3.058-.429.203-1.503.204-1.503 3.063.425 3.063.425-.077.558-.077.557.059.009.058.008.084-.607.084-.607-3.122-.433-3.122-.432.425-3.064.424-3.063 3.118.427 3.118.427.084-.607.084-.606-.049-.007-.048-.007-.082.552-.082.553-3.063-.425-3.063-.425.207-1.497.208-1.497 3.063.424 3.064.425-.076.548-.076.548.059.008.058.008.156-1.16.156-1.161-.049-.006-.049-.007-.082.552-.082.552-3.063-.424-3.063-.425.213-1.501.213-1.502 3.06.419 3.059.419-.078.558-.077.558.059.008.058.008.378-2.721.377-2.721-.059-.008-.059-.008-.077.558-.077.558-3.058-.429-3.058-.429.203-1.503.203-1.503 3.064.425 3.063.424-.077.558-.077.558.058.008.059.008.078-.558.077-.557.558.077.558.077.04-.27031.783.109-.04.27031.557.077.558.077-.077.558-.077.558.049.007.049.007.077-.558.077-.558 3.064.425 3.063.424-.209 1.507-.209 1.508-3.063-.425-3.064-.425.078-.557.077-.558-.048-.007-.048-.007-.088.592-.088.591-.073.573-.074.574.048.006.048.007.077-.558.078-.558 3.063.425 3.063.424-.208 1.508-.209 1.507-3.064-.425-3.063-.424.077-.558.078-.558-.048-.007-.048-.006-.088.591-.088.591-.074.574-.073.573.048.007.048.006.077-.558.077-.558 3.058.429 3.058.429-.203 1.503-.203 1.503-3.064-.424-3.063-.425.077-.558.077-.558-.048-.006-.048-.007-.085.572-.085.571-.216 1.601-.217 1.601 2.329.323 2.329.323-.101.724-.1.724-.46-.063-.46-.064-.113.777-.112.778-1.865-.254-1.865-.253-.439 3.126-.438 3.126-.077.593-.077.593.049.007.048.006.078-.558.077-.557.362.05.362.05.007-.049.007-.049-.362-.05-.363-.05.425-3.064.425-3.063 3.063.425 3.063.424-.209 1.507-.209 1.508-2.309-.321-2.31-.32-.007.049-.007.049 2.31.32 2.31.321-.209 1.507-.209 1.507-2.31-.32-2.309-.32-.007.049-.007.049 2.31.32 2.31.32-.209 1.507-.209 1.507-3.064-.424-3.063-.425.077-.558.078-.558-.049-.006-.048-.007-.085.572-.085.571-.158 1.181-.157 1.18.048.006.048.007.159-1.145.158-1.145 3.058.429 3.058.429-.419 3.059-.419 3.059-3.063-.425-3.064-.424.158-1.136.157-1.135-.049-.007-.049-.007-.158 1.136-.157 1.135-.224 1.615-.224 1.615-.077.558-.077.558.049.006.049.007.077-.558.078-.558 3.063.425 3.064.425-.214 1.501-.213 1.502-3.059-.419-3.059-.419.077-.558.077-.558-.047-.007-.048-.006-.088.591-.088.591-.074.574-.074.573.049.007.048.006.077-.557.077-.558 3.064.424 3.063.425-.209 1.507-.209 1.507-3.063-.424-3.064-.425.078-.558.077-.558-.049-.006-.049-.007-.077.558-.077.558-1.508-.209-1.507-.209.432-3.113.431-3.112-3.117-.437-3.116-.437.044-.358.044-.358-.048-.006-.049-.007-.484 3.494-.479 3.455-6.205-.86-6.205-.86z"/>
      </g>
    </g>
  </g>
</svg>