<svg xmlns="http://www.w3.org/2000/svg" xmlns:xlink="http://www.w3.org/1999/xlink" xml:space="preserve" id="svg89" version="1.1" viewBox="0 0 1062.4827 535.17401">
  <style id="style_common">
    .trees { fill:#144043 }
    .cement { fill:#c6c2c2 }
    .land { fill:#1f5054 }
    .rock { fill:#dcd5b6 }
    .water { fill:#4a6b96 }
    .wood { fill:#593700 }
    .tarmac { fill:#768089 }
    .gravel { fill:#946d3e }
    .building { fill:#1a2632 }
    .floor { fill:#70777f }
    .locked { fill:#37414c }
    .map_border { fill:none;stroke:#000;stroke-width:2 }
    .fence { fill:none;stroke:#c4e3c3;stroke-width:1 }
    .road_tarmac { fill:none;stroke:#888 }
    .road_gravel { fill:none;stroke:#946d3e }
    .road_small { stroke-width:5 }
    .road_medium { stroke-width:8 }
    .road_large { stroke-width:12 }
    .railroad { fill:none;stroke:#914833;stroke-dasharray:6;stroke-width:3 }
    .powerline { fill:none;stroke:#ffce00;stroke-width:2;stroke-miterlimit:10;stroke-dasharray:6,6 }
    .danger { fill:red;fill-opacity:.4;stroke:red;stroke-dasharray:4,2;stroke-width:2 }
    .task { fill:#000 }
    .stairs { fill:#FFD700 }
    .shadow { filter:drop-shadow(0 0 2px #000) }
  </style>
  <defs id="defs1">
    <path id="ladder-11" d="m77.602766 167.04806 3.397574.35602-.155132 1.45062-3.397574-.35601z"/>
    <path id="ladder-12" d="m89.094684 174.90573 3.194522.35209-.284265 2.84623-3.194522-.35208z"/>
    <path id="ladder-13" d="m132.33867 181.49159 2.34868.2964-.61436 4.86817-2.34868-.2964z"/>
    <path id="ladder-14" d="m146.22494 183.40508 2.29118.28913-.59931 4.74902-2.2912-.28914z"/>
    <path id="ladder-15" d="m137.51555 228.89385-5.74757-.76578.37543-2.71685 5.74756.76578z"/>
    <path id="ladder-16" d="m135.61394 241.37663-5.28628-.72614-.36799 2.66305 5.28628.72614z"/>
    <path id="ladder-17" d="m367.70351 244.24416.74711-5.03729 5.65125.86404-.74712 5.0373z"/>
    <path id="ladder-18" d="m366.9712 248.93522.65124-4.24128 5.65124.86404-.65124 4.24128z"/>
    <path id="ladder-19" d="m494.62337 166.85693 6.45972-1.26203-.64992-3.58396-6.45969 1.26203z"/>
    <path id="ladder-20" d="m489.24561 200.90596-4.83865.98166-.66539-3.66935 4.83866-.98166z"/>
    <path id="ladder-21" d="m604.85218 140.84915-4.17374.88448-.62509-3.08386 4.17377-.88448z"/>
    <path id="ladder-22" d="m589.63398 214.56692.32062 1.53033 3.00351-.6249-.32062-1.53034z"/>
    <path id="ladder-23" d="m892.12543 192.26153 5.94118.19328.0773-3.00286-5.94119-.19328z"/>
    <path id="ladder-24" d="m461.50858 444.15754-4.26336-.64027.36143-2.41903 4.26335.64028z"/>
    <path id="ladder-25" d="m521.6044 459.92538-.35297 2.54431 4.18889.56632.35297-2.54432z"/>
    <path id="ladder-26" d="m516.34343 445.83686 8.01782 1.11129.2662-1.9207-8.0178-1.11129z"/>
    <path id="ladder-27" d="m510.22029 488.58834 7.8939 1.09411.26211-1.89102-7.89391-1.09412z"/>
    <path id="ladder-28" d="m456.58126 471.00925 7.22868.98114.23503-1.73166-7.22867-.98114z"/>
    <path id="ladder-29" d="m467.12858 286.08532-5.12529.93599-.80807-4.42485 5.12529-.93599z"/>
    <path id="ladder-30" d="m617.85426 296.69948 3.50829.23243.31426-4.74386-3.50832-.23241z"/>
    <path id="ladder-31" d="m114.35466 250.39445.70885-4.64961 2.60671.38327-.70048 4.65077z"/>
    <path id="ladder-32" d="m346.81363 269.39613 1.483.227.501-3.278-1.483-.227z"/>
    <path id="ladder-33" d="m63.76334 167.0565 2.131133.29218-.963116 7.08717-2.131133-.29218z"/>
    <path id="ladder-34" d="m225.17139 182.00333 2.48387.30284-.85862 7.30188-2.48387-.30284z"/>
    <path id="ladder-35" d="M350.88894 260.08079c-.24021-2.25458 1.79843-2.94307 1.03069-7.36203-.25074-1.44321 3.56496-.69835 3.41241.47774-.2843 2.19185-1.07465 4.69494-1.03069 7.36202.0207 1.25842-3.27156.8443-3.41241-.47773z"/>
    <path id="ladder-36" d="M361.54048 217.96477c.82525.24041.98746 3.22683.29448 5.15342-.69783 1.94009-2.53457 1.34839-3.0736.17564-.96355-2.09637-1.14958-4.58389-.29449-5.15342.66226-.4411 1.56518-.61507 3.07361-.17564z"/>
    <path id="ladder-37" d="m613.09955 160.00639-4.73763.96033.28686 1.4248 4.73763-.96033z"/>
    <path id="ladder-38" d="m476.49494 156.74569 10.94335-2.08834-.31568-1.7404-10.94335 2.08834z"/>
    <path id="ladder-39" d="m382.87589 120.25414-1.77149.41211 1.33986 5.73048 1.77148-.41407z"/>
    <path id="ladder-40" d="m110.36933 309.85779 4.39395 3.75094.93387-1.09778-4.40038-3.74338z"/>
  </defs>
  
  <g id="Underground_Level" class="shadow">
    <g id="Buildings-U" class="floor">
      <path d="m354.75195 215.48828-7.91406 52.83594 16.5957 2.48633 7.91407-52.83594-7.50391-1.125-.0371.20508-.13476.76758-.8086-.10352-.80469-.10547.1211-.78906.0332-.21875zm6.375 8.21875.80078.14258.80079.14062-.10547.8086-.10352.80469-.7793-.11914-.77734-.11915-.0371-.0488-.0371-.0508.11914-.77929zm-1.18554 7.74805.82031.125.82031.125-.12109.78906-.11914.78711-.82032-.125-.82031-.12695.11914-.78711zm-1.17383 7.67383.80078.14062.80078.14063-.11914.78906-.12109.78711-.80664-.10352-.80665-.10547.12696-.82422zm-1.18555 7.74804.82227.125.82031.125-.12109.78711-.1211.78711-.82031-.125-.81836-.12695.11914-.78711zm-1.14453 7.71485.78711.11914.78711.12109-.11914.78711-.1211.78711-.80859-.10352-.80859-.10546.14258-.80274zm-1.21094 7.70117.80078.14062.80078.14063-.0996.77344-.0996.77343-.82227-.125-.82226-.125.12109-.79101z"/>
      <path d="m494.37371 147.12903-2.76368.50195 1.9004 10.47656.59375-.10742.0391.21094-4.98618.92563-.60547.10937.1582.86914-.19531.0352-2.86237-14.13084-10.82978 1.88957 3.55363 17.77267 10.83564-1.89349-.39245-1.99924.1875-.0351.45211 2.07054 8.01758-1.45313.0391.2168-.47656.0859.11719.65429 3.24955-.58113-.11914-.65235-.45117.082-.0391-.21875.44336-.0801-.90525-4.58031-3.71063.64574-.0391-.21094.68946-.125z"/>
      <path d="m384.38005 126.09674-1.77149.41406.125.5332.29883-.0703.0293.12695-.30273.0723.68817 2.91505 2.49805-.58203-.33398-1.42578-.72071.16797-.3561-1.49122-.25977.0605-.0293-.12695.25977-.0605z"/>
      <path d="m64.931357 174.43585-2.131133-.29218-.279366 2.03767 2.870676.39357-.05846.42637 11.593728 1.58951.447755-3.26588-11.597629-1.59005-.109934.80185z"/>
      <path d="m226.79664 189.60805-2.48387-.30284-.23432 1.9219 3.0421.3709-.0559.45834 10.9966 1.34074.36305-2.97768-11.02578-1.3443-.0728.59744z"/>
    </g>
    <g id="Ladders-U" class="stairs">
      <use xlink:href="#ladder-19" x="0" y="0"/>
      <use xlink:href="#ladder-33" x="0" y="0"/>
      <use xlink:href="#ladder-34" x="0" y="0"/>
      <use xlink:href="#ladder-38" x="0" y="0"/>
      <use xlink:href="#ladder-35" x="0" y="0"/>
      <use xlink:href="#ladder-36" x="0" y="0"/>
      <use xlink:href="#ladder-39" x="0" y="0"/>
    </g>
  </g>
  
  
  
</svg>