<svg xmlns="http://www.w3.org/2000/svg" xmlns:xlink="http://www.w3.org/1999/xlink" xml:space="preserve" id="svg176" width="131.57088" height="141.80042" version="1.1" viewBox="0 0 131.57087 141.80041">
  <style id="style_common">
    .trees { fill:#144043 }
    .cement { fill:#c6c2c2 }
    .land { fill:#1f5054 }
    .rock { fill:#dcd5b6 }
    .water { fill:#4a6b96 }
    .wood { fill:#593700 }
    .tarmac { fill:#768089 }
    .gravel { fill:#946d3e }
    .building { fill:#1a2632 }
    .floor { fill:#70777f }
    .locked { fill:#37414c }
    .map_border { fill:none;stroke:#000;stroke-width:2 }
    .fence { fill:none;stroke:#c4e3c3;stroke-width:1 }
    .road_tarmac { fill:none;stroke:#888 }
    .road_gravel { fill:none;stroke:#946d3e }
    .road_small { stroke-width:5 }
    .road_medium { stroke-width:8 }
    .road_large { stroke-width:12 }
    .railroad { fill:none;stroke:#914833;stroke-dasharray:6;stroke-width:3 }
    .powerline { fill:none;stroke:#ffce00;stroke-width:2;stroke-miterlimit:10;stroke-dasharray:6,6 }
    .danger { fill:red;fill-opacity:.4;stroke:red;stroke-dasharray:4,2;stroke-width:2 }
    .danger_small { fill:red;fill-opacity:.4;stroke:red;stroke-dasharray:2,1;stroke-width:1 }
    .task { fill:#000 }
    .stairs { fill:#FFD700 }
    .shadow { filter:drop-shadow(0 0 2px #000) }
  </style>
  <style id="style_factory">
    .wall { fill:none;stroke:#000;stroke-width:0.2; }
  </style>
  <defs id="defs1">
    <path id="stair-1" d="M39.0293 95.8173v11.3307h3.0521V95.8173Z"/>
    <path id="stair-2" d="M30.3686 114.855h-6.6765v3.026h6.6765Z"/>
    <path id="stair-3" d="M23.8828 120.654h6.6384v2.098h-6.6384Z"/>
    <path id="stair-4" d="M28.3084 73.1934v5.6464h2.0601v-5.6464Z"/>
    <path id="stair-7" d="m73.4228 95.264 9.0228.0195-.0079 3.6622-9.0228-.0195Z"/>
    <path id="stair-8" d="M86.9471 62.1296v7.0499h2.9758v-7.0499Z"/>
    <path id="stair-220" d="M86.0695 50.4554v-6.8292h4.9597v6.8292Z"/>
    <path id="stair-221" d="M98.7144 40.9667h2.7866v-1.4918h-2.7866Z"/>
    <path id="stair-222" d="M98.2512 9.78584v1.42356h2.4038V9.78584Z"/>
    <path id="stair-223" d="M45.7435 63.3417h1.3624v4.8857h-1.3624Z"/>
    <path id="stair-224" d="M54.3006 60.6011h1.3622v4.8857h-1.3622Z"/>
    <path id="stair-69" d="M18.1971 112.104v5.854h2.7363v-5.854Zm1.3028 1.125h.1308v3.602h-.1308Z"/>
    <path id="stair-96" d="M13.955 71.2769v5.8536h2.7363v-5.8536Zm1.3027 1.125h.1308v3.6016h-.1308Z"/>
    <path id="stair-97" d="M52.1083 94.2559v5.8531h2.7363v-5.8531Zm1.3027 1.125h.1309v3.6015h-.1309Z"/>
    <path id="stair-100" d="M70.1625 91.9701v5.8535h2.7363v-5.8535Zm1.3027 1.125h.1309v3.6015h-.1309Z"/>
    <path id="stair-101" d="M96.8272 22.38h-5.8535v2.7364h5.8535Zm-1.125 1.3028v.1308h-3.6016v-.1308Z"/>
    <path id="stair-129" d="M47.8588 43.8666v4.482h2.7364v-4.482Zm1.3028.8614h.1308v2.7577h-.1308Z"/>
    <path id="stair-62" d="M27.88 30.243h-2.7258v-4.1555H27.88"/>
    <path id="stair-127" d="M30.1396 40.345H24.455v3.2048h5.6846Zm-1.0925 1.5258v.1533h-3.4976v-.1533Z"/>
    <path id="stair-128" d="M30.1778 66.4025h-5.6846v3.2048h5.6846Zm-1.0926 1.5258v.1532h-3.4976v-.1532Z"/>
    <path id="stair-63" d="M24.5935 88.2721h2.9143v1.2792h-2.9143"/>
    <path id="stair-130" d="M24.5935 72.3313h2.9143v1.2792h-2.9143"/>
    <path id="stair-131" d="m83.9712 41.4095-1.4406.0038.0125 5.2158 1.4405-.0038Z"/>
    <path id="stair-132" d="M83.3613 40.0017h1.2252v-4.2555h-1.2252Z"/>
    <path id="stair-140" d="M33.2482 95.1398h-1.2787v2.9043h1.2787Z"/>
    <path id="stair-141" d="M47.4703 95.6599h-1.2787v2.9043h1.2787Z"/>
    <path id="stair-155" d="M52.4838 25.3836v-4.1692h-1.1721v4.1692Z"/>
    <path id="stair-226" d="M70.6572 25.3836v-4.1692H69.485v4.1692Z"/>
  </defs>
  <g id="Basement" class="shadow">
    <g id="Floor-b" class="floor">
      <path d="M78.7445 43.8932h1.526v6.6383h-1.526Z"/>
      <path d="M73.8611 43.8932h1.5261v6.6383h-1.5261Z"/>
      <path d="M23.8828 120.654h6.6383v-2.773H23.692v-3.026h6.6765V99.9758H24.684V89.0263h5.6846V78.8399h-2.0603v-5.6464h5.0742v9.2707h12.361V53.164h24.1117v5.9904l4.4828-.0196.0194-6.7719H86.947v-1.9076h-.8775v-6.8291h4.9596v6.8291h-1.0682v1.946l9.7858-.0194V40.9747l-2.6133-.0201v-4.3102l2.6133-.0672V13.4865h-2.6511v-1.2971h-.4197v3.7007h-2.1746l.0052-13.2958.7007-2.594295h2.1638l-.695 2.591715v8.45308h.4197V9.78584h5.4363V54.4611H89.9614v4.6926H100.72v13.7727h2.022v21.7843l-29.3192.0192v.5342l9.0228.0194v3.6622H70.0082v-7.6303h5.0742V77.8861H55.6633v9.4997h-9.9198v-1.9457H33.3829v21.7079h5.6464V95.8173h3.0521v14.3067h-8.6985v7.757h-.2772l.0213 4.871h-9.2442Zm51.1996-47.7276H97.782V62.1296h-7.8592v7.0499H86.947v-7.0499H66.8412v-5.9898H55.6629V74.834h19.4195ZM86.947 54.4611H76.3409v4.6926H86.947Z"/>
    </g>
    <g id="Stairs-b" class="stairs">
      <g id="Connector-Ground_Floor">
        <use xlink:href="#stair-1" id="use101" x="0" y="0"/>
        <use xlink:href="#stair-2" id="use102" x="0" y="0"/>
        <use xlink:href="#stair-3" id="use103" x="0" y="0"/>
        <use xlink:href="#stair-4" id="use104" x="0" y="0"/>
        <use xlink:href="#stair-7" id="use105" x="0" y="0"/>
        <use xlink:href="#stair-8" id="use106" x="0" y="0"/>
        <use xlink:href="#stair-220" id="use107" x="0" y="0"/>
        <use xlink:href="#stair-221" id="use108" x="0" y="0"/>
        <use xlink:href="#stair-222" id="use109" x="0" y="0"/>
        <use xlink:href="#stair-223" id="use110" x="0" y="0"/>
        <use xlink:href="#stair-224" id="use111" x="0" y="0"/>
      </g>
    </g>
    <g id="Wall-b" class="building">
      <path d="M54.4055 82.3348c0 1.986-1.61 3.596-3.5959 3.596-.9538 0-1.8684-.3789-2.5428-1.0533-.6744-.6743-1.0533-1.5889-1.0533-2.5426 0-.9538.3789-1.8685 1.0533-2.5428.6744-.6745 1.589-1.0533 2.5428-1.0533 1.9859 0 3.596 1.61 3.596 3.5961Z"/>
      <path d="M54.4055 58.4126c0 1.9861-1.61 3.5961-3.5959 3.5961-.9538 0-1.8684-.3789-2.5428-1.0533-.6744-.6744-1.0533-1.5891-1.0533-2.5428 0-.9537.3789-1.8684 1.0533-2.5428.6744-.6744 1.589-1.0532 2.5428-1.0532 1.9859 0 3.596 1.61 3.596 3.596Z"/>
      <path d="M54.4055 70.2176c0 1.986-1.61 3.5961-3.5959 3.5961-.9538 0-1.8684-.3789-2.5428-1.0533-.6744-.6744-1.0533-1.5891-1.0533-2.5428 0-.9537.3789-1.8684 1.0533-2.5428.6744-.6744 1.589-1.0533 2.5428-1.0533 1.9859 0 3.596 1.6102 3.596 3.5962Z"/>
      <path d="m91.5864 87.5825 1.4562-6.3482 2.031.4658-1.4564 6.3483Z"/>
      <path d="m93.8963 87.9776.3705-2.1598 2.0536.352-.3704 2.1601Z"/>
      <path d="M89.7412 85.9822h1.6667v1.744h-1.6667Z"/>
      <path d="m90.1472 85.3849.3821-1.7962 1.7358.3692-.3821 1.7962Z"/>
      <path d="M86.2995 88.3435h1.1267v1.1267h-1.1267Z"/>
      <path d="M86.2995 78.466h1.1267v1.1266h-1.1267Z"/>
      <path d="M99.9582 81.8614h1.8518v1.852h-1.8518Z"/>
      <path d="M100.359 84.161h1.513v2.5466h-1.513Z"/>
      <path d="M99.8662 86.8465h1.8518v1.852h-1.8518Z"/>
    </g>
  </g>
  
  
  
</svg>