<svg xmlns="http://www.w3.org/2000/svg" xmlns:xlink="http://www.w3.org/1999/xlink" xml:space="preserve" id="svg176" width="131.57088" height="141.80042" version="1.1" viewBox="0 0 131.57087 141.80041">
  <style id="style_common">
    .trees { fill:#144043 }
    .cement { fill:#c6c2c2 }
    .land { fill:#1f5054 }
    .rock { fill:#dcd5b6 }
    .water { fill:#4a6b96 }
    .wood { fill:#593700 }
    .tarmac { fill:#768089 }
    .gravel { fill:#946d3e }
    .building { fill:#1a2632 }
    .floor { fill:#70777f }
    .locked { fill:#37414c }
    .map_border { fill:none;stroke:#000;stroke-width:2 }
    .fence { fill:none;stroke:#c4e3c3;stroke-width:1 }
    .road_tarmac { fill:none;stroke:#888 }
    .road_gravel { fill:none;stroke:#946d3e }
    .road_small { stroke-width:5 }
    .road_medium { stroke-width:8 }
    .road_large { stroke-width:12 }
    .railroad { fill:none;stroke:#914833;stroke-dasharray:6;stroke-width:3 }
    .powerline { fill:none;stroke:#ffce00;stroke-width:2;stroke-miterlimit:10;stroke-dasharray:6,6 }
    .danger { fill:red;fill-opacity:.4;stroke:red;stroke-dasharray:4,2;stroke-width:2 }
    .danger_small { fill:red;fill-opacity:.4;stroke:red;stroke-dasharray:2,1;stroke-width:1 }
    .task { fill:#000 }
    .stairs { fill:#FFD700 }
    .shadow { filter:drop-shadow(0 0 2px #000) }
  </style>
  <style id="style_factory">
    .wall { fill:none;stroke:#000;stroke-width:0.2; }
  </style>
  <defs id="defs1">
    <path id="stair-1" d="M39.0293 95.8173v11.3307h3.0521V95.8173Z"/>
    <path id="stair-2" d="M30.3686 114.855h-6.6765v3.026h6.6765Z"/>
    <path id="stair-3" d="M23.8828 120.654h6.6384v2.098h-6.6384Z"/>
    <path id="stair-4" d="M28.3084 73.1934v5.6464h2.0601v-5.6464Z"/>
    <path id="stair-7" d="m73.4228 95.264 9.0228.0195-.0079 3.6622-9.0228-.0195Z"/>
    <path id="stair-8" d="M86.9471 62.1296v7.0499h2.9758v-7.0499Z"/>
    <path id="stair-220" d="M86.0695 50.4554v-6.8292h4.9597v6.8292Z"/>
    <path id="stair-221" d="M98.7144 40.9667h2.7866v-1.4918h-2.7866Z"/>
    <path id="stair-222" d="M98.2512 9.78584v1.42356h2.4038V9.78584Z"/>
    <path id="stair-223" d="M45.7435 63.3417h1.3624v4.8857h-1.3624Z"/>
    <path id="stair-224" d="M54.3006 60.6011h1.3622v4.8857h-1.3622Z"/>
    <path id="stair-69" d="M18.1971 112.104v5.854h2.7363v-5.854Zm1.3028 1.125h.1308v3.602h-.1308Z"/>
    <path id="stair-96" d="M13.955 71.2769v5.8536h2.7363v-5.8536Zm1.3027 1.125h.1308v3.6016h-.1308Z"/>
    <path id="stair-97" d="M52.1083 94.2559v5.8531h2.7363v-5.8531Zm1.3027 1.125h.1309v3.6015h-.1309Z"/>
    <path id="stair-100" d="M70.1625 91.9701v5.8535h2.7363v-5.8535Zm1.3027 1.125h.1309v3.6015h-.1309Z"/>
    <path id="stair-101" d="M96.8272 22.38h-5.8535v2.7364h5.8535Zm-1.125 1.3028v.1308h-3.6016v-.1308Z"/>
    <path id="stair-129" d="M47.8588 43.8666v4.482h2.7364v-4.482Zm1.3028.8614h.1308v2.7577h-.1308Z"/>
    <path id="stair-62" d="M27.88 30.243h-2.7258v-4.1555H27.88"/>
    <path id="stair-127" d="M30.1396 40.345H24.455v3.2048h5.6846Zm-1.0925 1.5258v.1533h-3.4976v-.1533Z"/>
    <path id="stair-128" d="M30.1778 66.4025h-5.6846v3.2048h5.6846Zm-1.0926 1.5258v.1532h-3.4976v-.1532Z"/>
    <path id="stair-63" d="M24.5935 88.2721h2.9143v1.2792h-2.9143"/>
    <path id="stair-130" d="M24.5935 72.3313h2.9143v1.2792h-2.9143"/>
    <path id="stair-131" d="m83.9712 41.4095-1.4406.0038.0125 5.2158 1.4405-.0038Z"/>
    <path id="stair-132" d="M83.3613 40.0017h1.2252v-4.2555h-1.2252Z"/>
    <path id="stair-140" d="M33.2482 95.1398h-1.2787v2.9043h1.2787Z"/>
    <path id="stair-141" d="M47.4703 95.6599h-1.2787v2.9043h1.2787Z"/>
    <path id="stair-155" d="M52.4838 25.3836v-4.1692h-1.1721v4.1692Z"/>
    <path id="stair-226" d="M70.6572 25.3836v-4.1692H69.485v4.1692Z"/>
  </defs>
  
  
  
  <g id="Third_Floor" class="shadow">
    <g id="Floor-3" class="floor">
      <path d="M94.7069 25.1159v.2344l-69.4961-.0059-.002.9062 24.4375.002v12.2051l-12.4824-.002v.9063h2.0449l.0898 1.709h-6.0312v-1.0313h-4.6113l-.0118.1426-.0117.1445h-4.1777v3.2344h6.5058v3.6328h-.1679v-3.377H25.867v6.1036h4.9258v-1.8301h.1679v4.0058h-.1679v-1.8319H25.867v4.6171l4.9258-.1914v-1.832h.168v4.0645h-.168v-2.004l-4.9258.211v11.0058h4.9258v-3.5097h.168v3.7578l-3.2539-.0039-3.252-.0039v3.2324h6.9141v.3047H3.78306L3.7772 117.958h14.4199v-2.024h-.3027l.0059-43.8689h15.9453l-.002 27.9609h.9062l.002-10.7148H49.494l-.002 10.7148h.9063l.0059-47.6034h-.9063l-.0039 32.6132H34.7518l.0039-41.082h7.3633l6.332.0059v.2559h-.7031v1.6953h3.2949v-1.6954h-1.3261v-.2558l1.0976.002v-2.8829l-8.6953-.0078h-1.8496l-.0918-1.7089 26.0469.002-.1973.2949.2695.1797-.3652.5488.3535.2344.0488-.0723.3575.2363-.002 12.2012H51.9491l.002-12.4082h-.9063l-.0059 59.4471h16.5528l.0058-59.4471h-.3105l.1348-.2031-.5938-.3965.334-.5-.1719-.1152 29.8379.0039V25.1159Zm-40.7852 1.1367 40.7852.0039v12.2051l-40.7852-.0039ZM33.2674 43.9538h.5821l-.002 25.959h-.5801V56.9226ZM52.617 55.114h13.375v2.3222H52.617Zm-21.8242 2.5898h.168v4.1211h-.168v-2.0605Zm21.1563 1.8594h14.7402l-.0039 38.5H51.9452Zm17.1211 4.8105-.0059 35.6523H85.619l.0059-35.6523h-.9063l-.002 8.4824H69.9745l.002-8.4824Zm17.1074 0-.0039 35.6523h.9062l.002-15.2695h14.7401l-.002 15.2695h.906l.006-35.6523h-.906l-.002 16.1074H87.0819l.002-16.1074Zm-72.4844 7.6914h3.3008v3.043h-.3027v2.0723h.3027l-.0039 21.7851H4.6854l.00391-24.8945h9.00389Zm56.2813 5.0664h14.7422l-.004 20.7735H69.9706v-.0821h.1914v-1.8945h-.1914ZM4.6854 103.241h12.3047l-.002 12.693H4.68345Z"/>
    </g>
    <g id="Wall-3" class="wall">
      <path d="M33.3499 43.9536v-.5087"/>
      <path d="M33.3499 41.7492v-.6782"/>
      <path d="M10.9733 72.6046h.926v-2.6922"/>
      <path d="M9.42989 72.6046H4.45316v-2.6921"/>
      <path d="M30.7927 61.0656h-2.1865"/>
    </g>
    <g id="Stairs-3" class="stairs">
      <g id="Stairs-3-down">
        <use xlink:href="#stair-127" id="use257" x="0" y="0"/>
        <use xlink:href="#stair-128" id="use258" x="0" y="0"/>
        <use xlink:href="#stair-69" id="use259" x="0" y="0"/>
        <use xlink:href="#stair-96" id="use260" x="0" y="0"/>
        <use xlink:href="#stair-97" id="use261" x="0" y="0"/>
        <use xlink:href="#stair-100" id="use262" x="0" y="0"/>
        <use xlink:href="#stair-101" id="use263" x="0" y="0"/>
        <use xlink:href="#stair-129" id="use264" x="0" y="0"/>
      </g>
    </g>
  </g>
</svg>