<svg xmlns="http://www.w3.org/2000/svg" xmlns:xlink="http://www.w3.org/1999/xlink" id="svg1" version="1.1" viewBox="0 0 348.92543 488.44792">
  <style id="style_common">
    .trees { fill:#144043 }
    .cement { fill:#c6c2c2 }
    .land { fill:#1f5054 }
    .rock { fill:#dcd5b6 }
    .water { fill:#4a6b96 }
    .wood { fill:#593700 }
    .tarmac { fill:#768089 }
    .gravel { fill:#946d3e }
    .building { fill:#1a2632 }
    .floor { fill:#70777f }
    .locked { fill:#37414c }
    .map_border { fill:none;stroke:#000;stroke-width:2 }
    .fence { fill:none;stroke:#c4e3c3;stroke-width:1 }
    .road_tarmac { fill:none;stroke:#888 }
    .road_gravel { fill:none;stroke:#946d3e }
    .road_small { stroke-width:5 }
    .road_medium { stroke-width:8 }
    .road_large { stroke-width:12 }
    .railroad { fill:none;stroke:#914833;stroke-dasharray:6;stroke-width:3 }
    .powerline { fill:none;stroke:#ffce00;stroke-width:2;stroke-miterlimit:10;stroke-dasharray:6,6 }
    .danger { fill:red;fill-opacity:.4;stroke:red;stroke-dasharray:4,2;stroke-width:2 }
    .task { fill:#000 }
    .stairs { fill:#FFD700 }
    .shadow { filter:drop-shadow(0 0 2px #000) }
  </style>
  
  
  
  
  <g id="Third_Floor" class="shadow">
    <g id="Floor-3" class="floor">
      <path d="m127.487 416.828-3.182-4.989-1.541-2.44 3.748-2.343 3.825-2.367-1.026-1.565-1.025-1.594 1.28-.818 1.281-.788-.953-1.487-.872-1.364h-5.956v.477h-.477v.298h-.268v.059h.566v1.998H120.442v-1.998h.567v-.059h-.239v-.298h-.477v-.477H118.356v.477H115.583v-.477h-2.176V391.498h9.45v-4.562h1.878v-.298h-.804v-3.518h-8.765v-3.576h11.954v7.094h-.626v.298h6.738v3.101h.447v-2.749l2.017-2.039 2.017-2.039h8.726v3.473l.044.864.091 1.193.148.99.102.662.177.679.227.885.05.205-12.809 3.871-.371-.586-.371-.587-.225.021-.235.031 2.441 3.911 2.462 3.912.145-.06.194-.116.059-.045-1.776-2.813-1.751-2.836 12.454-3.797.214.503.276.745.301.744.201.432.165.359.223.462.212.408.143.254.13.233.29.512.265.429.042.064.521.782.147.229.743.965.733.911.316.339.396.43.33.381-8.445 9.9-3.523-5.563-.182.119-.182.12 4.342 6.897-4.094 2.345-.911-1.375-2.524 1.554-2.002-3.112-2.762 1.766.854 1.345-4.694 2.978z"/>
    </g>
  </g>
</svg>