<svg xmlns="http://www.w3.org/2000/svg" xmlns:xlink="http://www.w3.org/1999/xlink" id="svg1" version="1.1" viewBox="0 0 348.92543 488.44792">
  <style id="style_common">
    .trees { fill:#144043 }
    .cement { fill:#c6c2c2 }
    .land { fill:#1f5054 }
    .rock { fill:#dcd5b6 }
    .water { fill:#4a6b96 }
    .wood { fill:#593700 }
    .tarmac { fill:#768089 }
    .gravel { fill:#946d3e }
    .building { fill:#1a2632 }
    .floor { fill:#70777f }
    .locked { fill:#37414c }
    .map_border { fill:none;stroke:#000;stroke-width:2 }
    .fence { fill:none;stroke:#c4e3c3;stroke-width:1 }
    .road_tarmac { fill:none;stroke:#888 }
    .road_gravel { fill:none;stroke:#946d3e }
    .road_small { stroke-width:5 }
    .road_medium { stroke-width:8 }
    .road_large { stroke-width:12 }
    .railroad { fill:none;stroke:#914833;stroke-dasharray:6;stroke-width:3 }
    .powerline { fill:none;stroke:#ffce00;stroke-width:2;stroke-miterlimit:10;stroke-dasharray:6,6 }
    .danger { fill:red;fill-opacity:.4;stroke:red;stroke-dasharray:4,2;stroke-width:2 }
    .task { fill:#000 }
    .stairs { fill:#FFD700 }
    .shadow { filter:drop-shadow(0 0 2px #000) }
  </style>
  
  
  
  <g id="Second_Floor" class="shadow">
    <g id="Floor-2" class="floor">
      <path d="M75.1677 163.281v-2.34h-1.0135v-12.103h-5.3323l-.0171-.127-.2098-2.332-.2064-2.303-.0138-.097h10.4595v16.962h-1.8482v1.371h.0596v-.775h1.7886v4.084h-3.6666Z"/>
      <path d="M274.296 209.918v-7.274h-.239V216.893h-5.246v-.053l.047-.41.048-.356-.015-.507-.015-.507-.076-.363-.076-.363-.241-.576-.242-.576-.607-1.154-.608-1.153-.619-.918-.619-.918-.708-.805-.708-.805-.56-.511-.561-.512-2.53-2.002-4.189-3.295-1.657-1.293-.45-.416-.449-.415-.318-.404-.318-.404-.285-.523-.284-.523-.174-.515-.174-.515-.185-1.013-.185-1.014.019-1.162.019-1.163.058-.551.312-2.132.253-1.58.269-1.237.561-2.385.294-1.147 5.668-.008 5.668-.007v1.729h.209v-1.55h1.073v-.239h-12.598l2.109-9.218 2.236-9.771h11.204v19.019h-1.938v.209h2.236v-.203l1.795-2.749h1.574l-.001-.469.005-.877h-.089l-.005.288v.283l-1.967-.008v-2.436h1.967v.537h.09v-.835h4.858v5.038h1.342v-2.415H283.865v-3.607h4.888v-1.55h-.238v-1.311h.835v-.096l-.631-.004-5.604-.02h-4.974v-2.891h15.322v4.292h-1.818v1.58h3.994V194.439l-4.538 4.295-4.539 4.294-3.48.002-3.48.002V201.631h-.179v1.282h-1.431v6.319H279.393v3.548H277.992v4.411h-3.696zm0-9.652v-1.424l-.492-.487-8.42-3.059-.001-4.955v-4.956h-.209v10.157l8.577 3.081.306.295V201.691h.239zm5.306-.319v-.701h4.188l2.087-2.014 2.095-2.039-.575-.686h-1.468l-1.468-.001v-8.555H279.274v-1.938H277.933v.464l-1.109 1.721-1.108 1.72h-3.328l-1.554.777-1.554.777.022 1.645.026 1.649 4.252 1.467 4.439 1.531v3.631h1.404v1.252h.179z"/>
      <path d="m121.771 238.68-4.393-4.438v-9.211h-.209V227.118h-2.355v-.179h-.238v2.325l-1.289-.004-1.193-.017.097-.012V226.85h-.119v-3.935H117.169v.477h.209v-11.507h12.46v3.428h-.089v.179h-3.283l-2.77 2.77-2.771 2.769v11.276l7.84 7.868h11.331l2.771-2.772 2.771-2.771V231.351h.149v-.119h1.751l1.817.018.066.018.001 6.316.002 6.317-11.246-.002-11.246-.002z"/>
      <path d="M193.72 280.954v-6.021h-8.048V250.996h15.024v11.148h-2.981V268.941h.835v-.149H199.593v.149H200.756v-.149h1.073v.149h3.01v-.328h-1.252v-7.631h9.652l.018.071.017 3.815-.002 3.745H212.053v.328h2.832v7.482h-2.116v.388h.566V278.808h-2.414V276.811h.536v-.388h-2.146v.149h-1.312v-.149h-1.908v-3.488h-.655v.209h.447v3.965h-8.049v-3.965h3.458V274.933h-.894v.357H203.319v-.357h-1.162V273.14l.924.004h.775v-.209h-6.129l-.006 2.937-.007 2.936h.269v-.537h5.008v6.141h-5.008v-.477h-.268v3.041h-3.995z"/>
      <path d="M134.429 299.913v-3.011H137.172v-1.013h-.269v.745h-3.01l-.001-.768.001-3.13.001-2.362h-14.34v-.358h-.149v-2.355h.149v-.328H128.527v-.238h-.732l-.186-.187-.185-.187v-2.359l.213-.169.213-.168h3.986v-.209H129.093v-.358h-3.309v-10.344H122.879l-.216-.215-.217-.215.001-1.328.001-1.327.246-.213.246-.212 1.415.005 1.489-.006V262.45l.25-.227.251-.228h23.078V287.006h-3.726v-3.19h-.298v3.19h-4.114v-3.19h-.298v3.19h-4.084v-3.19h-3.04v.209h.685v2.648l-.231.211-.231.211h-4.397v.238h6.26V293.236h.954V294.339h.269v-1.074h3.785v.954h2.832v-.387h5.128v8.496H143.73v-5.754h-2.623v2.027h-.03l-.03.043v4.28h-6.618zm12.073-1.848v-1.342h-.238v2.683h.238z"/>
      <path d="M116.722 328.739v-2.444h.567v-1.372H122.028v1.372h4.859v-1.372h11.947l.391-.406.391-.407v-11.885H140.957V307.306H139.616v-3.16h1.194l-.087-.984H143.342v5.068h1.729l.001 5.463v5.462l.357.235.358.235v6.786l-2.378 2.379-2.377 2.378-12.155.008-12.155.008z"/>
      <path d="M151.123 351.812v-1.044h4.68v-.298h-1.998v-7.482H154.968v-.209H151.749v-2.146l.514-.002.53-.006.449-.108.399-.003h.398l.571.1 1.677.014 1.602.005-.002.095h.073l-.007 5.794-.007 5.791h-.057v.542h-6.766z"/>
      <path d="m139.34 439.739-9.353-4.447-22.148-34.981v-20.806h6.811l6.812.022 1.818.022h1.819v-2.578h2.027v7.661h-3.19v-1.52h-.408l-.019.988-.02 1.715v.726l-.566.392 1.088.024h1.088v3.518h-11.864V400.532l6.737 10.631.119-.089-2.147-3.366 7.97-5.064 1.548 2.375.521-.294 6.4 10.077-.492.303 1.759 2.862-7.966 5.03-7.029-11.057-.147.085 11.48 18.178 9.152 4.385 3.17-6.732 1.877-3.987 3.234 1.528-.852 1.781-.042.082.149.057.482-.18 2.948 1.381.03.024.239-.433-1.544-.745 1.365-2.91 4.797 2.263-8.293 17.472z"/>
    </g>
  </g>
  
</svg>