<svg xmlns="http://www.w3.org/2000/svg" xmlns:xlink="http://www.w3.org/1999/xlink" id="svg1" version="1.1" viewBox="0 0 348.92543 488.44792">
  <style id="style_common">
    .trees { fill:#144043 }
    .cement { fill:#c6c2c2 }
    .land { fill:#1f5054 }
    .rock { fill:#dcd5b6 }
    .water { fill:#4a6b96 }
    .wood { fill:#593700 }
    .tarmac { fill:#768089 }
    .gravel { fill:#946d3e }
    .building { fill:#1a2632 }
    .floor { fill:#70777f }
    .locked { fill:#37414c }
    .map_border { fill:none;stroke:#000;stroke-width:2 }
    .fence { fill:none;stroke:#c4e3c3;stroke-width:1 }
    .road_tarmac { fill:none;stroke:#888 }
    .road_gravel { fill:none;stroke:#946d3e }
    .road_small { stroke-width:5 }
    .road_medium { stroke-width:8 }
    .road_large { stroke-width:12 }
    .railroad { fill:none;stroke:#914833;stroke-dasharray:6;stroke-width:3 }
    .powerline { fill:none;stroke:#ffce00;stroke-width:2;stroke-miterlimit:10;stroke-dasharray:6,6 }
    .danger { fill:red;fill-opacity:.4;stroke:red;stroke-dasharray:4,2;stroke-width:2 }
    .task { fill:#000 }
    .stairs { fill:#FFD700 }
    .shadow { filter:drop-shadow(0 0 2px #000) }
  </style>
  
  <g id="Underground_Level" class="shadow">
    <g id="Ground-U" class="cement">
      <path d="M163.49219 54.974609v11.716797H162.39062l-.002-4.394531h-6.20117v16.050781h-.68555V114.48047h1.46094v5.66406h-1.46094v6.29102h1.01367v1.01172l-.0293 2.625v1.13281h-.98438V132.60547h1.10352v1.55078h-1.10352v1.87695h-.47656v11.03125h.38672v1.40235h.1504v12.04297h-.0605v1.43164h1.60938v6.58789h-1.60938v5.87304H155.83008V176.81836h-13.53516V173.44926H95.667969V183.55668h10.435551v12.25195H95.667969v8.79493H142.20508v-1.04297h11.6875v-.7168h1.9082v1.9082h-.29883v6.20117h1.3418v5.60547h-1.3418v43.16797h1.3711v4.41211h-1.3711v17.02344h-.32812V291.14848h.32812v9.92773h-.26757V313.12113h.26757V314.28324h24.56446v-20.39062h-.41602v-2.86328l.35352-.004.004-4.61719v-5.63476H178.60752v-1.58008h1.28125v-4.94922h-.20898V264.13862h-1.60938v-4.08398h1.64063V234.38672h12.72851V225.65039h-12.72851v-9.57031h-1.64063V211.40039h1.64063v-43.58594h-1.64063v-4.05468h1.64063v-15.23438h-.86524v-2.05664h.86524v-26.17578H178.45713v-5.8125H179.71104V98.769531H200.51963V87.708984h-20.83984v-3.36914h.71484v-4.53125H180.12705v-.894532H180.39463v-4.5625H179.71104V54.974609h-8.10938z" style=";fill:#c6c2c2"/>
    </g>
    <g id="Floor-U" class="floor">
      <path d="M155.50195 296.09723h-.20898v-2.45313l-.42578.0176-3.05469.0215h-2.63086v5.72266H148.88477V293.86094h-4.98047v8.4375h4.98047V301.97031H149.18164v.29883h3.72656v-1.82031h.86524V299.85313h1.51953V298.69102h.20898"/>
      <path d="M186.35742 267.32812v.0898h-6.46875v.68555h-.20888v2.65429h.23845v.68555h5.00976V274.1269h3.81446v-2.71484h4.94922V287.123H188.803v.6875h-.26953v-4.53321h-2.44336v-3.36718h-5.45507v.86328h-.44727v5.63476h-.1839v4.61719l.21323.004v1.55078h8.3164v-2.08789h.26953v.6875H193.69171v1.45898h4.02539v-8.10937h5.21679V283.36723h.20899v-4.08399h-.20899V278.12113h-5.21679V276.42192h.26758v.68554h7.90039v-3.96484h-7.90039v.68554h-.26758v-6.5h-5.67969z"/>
      <path d="M142.44336 167.48633v6.11133h-.1484v1.52148h.1484v.68945l3.87695-.01 3.875-.01V168.9175h-3.48828v-1.43164h-2.13086z"/>
      <path d="M147.00586 162.15039v6.58789h7.90039v-1.3418H156.54492V167.03906H157.11133v-2.98047H156.54492v-.32812h-1.55078v-1.58008H151Z"/>
      <path d="M180.1875 146.64844v2.91992h-.47646v9.60156h6.0214v-12.52148H182.959Z"/>
      <path d="M142.41406 127.00195v3.42774H136.95898V131.29492h-.23828v-1.10351h-4.77148v3.78515h1.07422v.26953h-.62696V142.17578h3.93555V134.24609h-.68555v-.26953h1.07422v-1.10351h.23828v1.10351h9.65821v-3.51562h2.62304V130.75586l.54493.008h.78906l.24609-.008v-.29688H155.41211v-.38671h1.07416l.0293-2.625h-1.10349v-.44532h-6.5z"/>
      <path d="m154.96484 113.86914-3.17968.01-4.10938.006h-.66992V116h-.1797v2.6543h.1797v1.9375h7.95898v-1.75977h1.998v-3.07031h-1.998v-.94727z"/>
    </g>
    <g id="Tarmac-U" class="tarmac">
      <path d="M154.83984 24.005859c-.1125-.000162-.22443.0032-.33593.01563-.389.0436-.77239.138841-1.15039.244141-.304.085-.60749.185-.89649.3125-.275.1212-.53797.268336-.79297.427734-.379.2373-.75579.487805-1.09179.783203-.304.2668-.57813.569221-.82813.886719-.241.3043-.45358.630152-.64258.96875-.274.4896-.46908 1.018946-.70508 1.527344-.257.552698-.45009 1.270355-.49609 1.876953v33.048828h6.05078V33.330078h2.35547v21.611328h-.15625v23.373047h-.66016v5.492188h7.5918V115.3418h-6.15234v3.96093h6.15234v16.71289h-8.10156v11.04297h8.10156v16.50391h-6.00195v3.99023h6.00195v11.13086H95.658203v3.63086H155.2793v14.88282H95.658203v3.81054h67.423827v11.13281h-6.24219v3.1504h6.24219v4.14062h-7.62109v11.2832h7.62109v29.22461h-6.24219v4.02149h6.24219v17.13281h-7.80273v10.14258h7.80273v17.13281h-6.51172v3.78125h6.51172v2.13086h9.04688v-2.13086h7.93554v-3.96094h-7.93554v-17.16406h7.875v-10.08203h-7.875v-1.83008h7.75586v-4.86133h-7.75586v-10.32031h5.95507v-3.54102h-5.95507v-44.61914h5.95507v-3.99023h-5.95507v-44.19922h5.92578v-3.54101h-5.92578v-4.89063h7.63671v-9.57227h-7.63671v-30.30468h6.3164v-3.90039h-6.3164V97.248047h28.36914v-7.861328h-28.36914v-5.041016h8.23632v-9.960937h-8.23632l.12304-13.847657.25196-2.099609.8789-2.832031.55469-.904297h-9.26758l-.59375 2.49414-.57422 3.25v6.257813h-1.11133l-.01-17.773437-.01-17.759766c0-.4618-.0885-.923458-.18945-1.222656-.131-.3891-.25016-.78381-.41016-1.16211-.207-.490598-.42307-.980342-.70507-1.43164-.229-.3658-.50293-.705538-.79493-1.023438-.27-.2939-.5629-.5689-.8789-.8125-.305-.2352-.63361-.441694-.97461-.621094-.471-.247898-.9617-.467648-1.4707-.623046-.365-.1114-.74505-.169552-1.12305-.21875-.215-.0278-.43049-.03717-.64649-.04297-.1125-.003-.22539-.0057-.33789-.0059z"/>
    </g>
  </g>
  
  
  
</svg>