<svg xmlns="http://www.w3.org/2000/svg" xmlns:xlink="http://www.w3.org/1999/xlink" xml:space="preserve" id="svg283" width="605.32397" height="831.57751" version="1.1" viewBox="0 0 605.32395 831.57753">
  <style id="style_common">
    .trees { fill:#144043 }
    .cement { fill:#c6c2c2 }
    .land { fill:#1f5054 }
    .rock { fill:#dcd5b6 }
    .water { fill:#4a6b96 }
    .wood { fill:#593700 }
    .tarmac { fill:#768089 }
    .gravel { fill:#946d3e }
    .building { fill:#1a2632 }
    .floor { fill:#70777f }
    .locked { fill:#37414c }
    .map_border { fill:none;stroke:#000;stroke-width:2 }
    .fence { fill:none;stroke:#c4e3c3;stroke-width:1 }
    .road_tarmac { fill:none;stroke:#888 }
    .road_gravel { fill:none;stroke:#946d3e }
    .road_small { stroke-width:5 }
    .road_medium { stroke-width:8 }
    .road_large { stroke-width:12 }
    .railroad { fill:none;stroke:#914833;stroke-dasharray:6;stroke-width:3 }
    .powerline { fill:none;stroke:#ffce00;stroke-width:2;stroke-miterlimit:10;stroke-dasharray:6,6 }
    .danger { fill:red;fill-opacity:.4;stroke:red;stroke-dasharray:4,2;stroke-width:2 }
    .danger_small { fill:red;fill-opacity:.4;stroke:red;stroke-dasharray:2,1;stroke-width:1 }
    .task { fill:#000 }
    .stairs { fill:#FFD700 }
    .shadow { filter:drop-shadow(0 0 2px #000) }
  </style>
  <defs id="defs1">
    <path id="stairs-16" d="M381.676 148.906v-1.548h3.26v3.096h-3.26Z"/>
    <path id="stairs-17" d="M280.453 177.431v-1.06h1.141v-.489h1.467v2.608h-2.608Z"/>
    <path id="stairs-18" d="M368.473 182.076v-2.771h3.586v5.542h-3.586Z"/>
    <path id="stairs-19" d="m365.574 220.143.496-2.809 2.086.368 2.087.368-.495 2.809-.496 2.809-2.086-.368-2.087-.368Z"/>
    <path id="stairs-20" d="m477.902 232.937.227-1.285-1.124-.198-1.123-.198.212-1.204.212-1.204 2.167.382 2.167.382-.438 2.489-.439 2.488-1.044-.184-1.043-.184Z"/>
    <path id="stairs-21" d="m351.601 240.03 4.852.943-.739 4.856-4.971-.908Z"/>
    <path id="stairs-22" d="m429.204 261.087-1.519-2.05 1.587-1.105 1.586-1.105 1.523 1.899.914 1.208-1.709 1.249-1.561 1.088Z"/>
    <path id="stairs-23" d="m402.038 272.665.432-2.347 4.654.831-.408 2.306-.433 2.347-2.338-.395-2.339-.395Z"/>
    <path id="stairs-24" d="M196.834 282.077v-.734h.489v-1.141h2.119v2.608h-2.608Z"/>
    <path id="stairs-25" d="m434.84 283.122.299-1.691 1.637.335 1.637.336-.085.771-.086.771-.811-.143-.812-.143-.155.883-.156.883-.883-.156-.883-.155Z"/>
    <path id="stairs-26" d="m492.158 293.848.128-.722-.723-.127-.722-.128.141-.802.142-.803 1.445.255 1.444.255-.268 1.525-.269 1.525-.723-.128-.722-.127Z"/>
    <path id="stairs-27" d="M203.028 338.312v-1.06h2.282v2.119h-2.282Z"/>
    <path id="stairs-28" d="m367.373 350.578.184-1.044 1.846.326 1.846.325-.184 1.044-.184 1.043-1.846-.325-1.846-.326Z"/>
    <path id="stairs-29" d="M72.9542 357.464v-2.445h4.238v2.608h-.489v2.282h-3.749Z"/>
    <path id="stairs-30" d="M275.563 363.658v-.815h1.793v3.108h-1.793Z"/>
    <path id="stairs-31" d="m432.515 363.094.354-2.006 1.765.311 1.766.311-.184 1.044-.184 1.043-.802-.141-.803-.142-.17.963-.17.963-.963-.169-.963-.17Z"/>
    <path id="stairs-32" d="M272.466 364.392v-1.549h1.793v3.097h-1.793Z"/>
    <path id="stairs-33" d="M97.7302 368.222v-1.956h1.63v2.282h1.4668v1.63h-3.0968Z"/>
    <path id="stairs-34" d="M143.533 380.447v-1.467h2.119v1.63h-.978v1.304h-1.141Z"/>
    <path id="stairs-35" d="M54.0462 385.663v-1.304h.978v-2.119h3.586v4.727h-4.564Z"/>
    <path id="stairs-36" d="m438.055 395.533.24-1.365-1.445-.255-1.444-.254.184-1.044.184-1.043 2.568.453 2.568.453-.424 2.408-.425 2.407-1.123-.198-1.124-.198Z"/>
    <path id="stairs-37" d="m425.878 392.31.425-2.408 2.568.453 2.569.453-.184 1.043-.184 1.044-1.445-.255-1.445-.255-.24 1.364-.241 1.365-1.124-.198-1.123-.198Z"/>
    <path id="stairs-38" d="M110.444 401.882v-1.549h3.586v1.63h-1.793v1.467h-1.793Z"/>
    <path id="stairs-39" d="M132.775 415.248v-1.386h1.63v1.304h.978v1.467h-2.608Z"/>
    <path id="stairs-40" d="m408.637 427.465.416-2.354 2.438.43 2.438.43-.415 2.354-.415 2.354-2.438-.43-2.439-.429Z"/>
    <path id="stairs-41" d="m208.028 427.533.684-1.667 1.65.676 1.36.55-.641 1.587-.641 1.587-1.512-.611-1.511-.61Z"/>
    <path id="stairs-42" d="M275.563 429.755v-1.549h1.793v3.097h-1.793Z"/>
    <path id="stairs-43" d="M272.466 429.755v-1.549h1.793v3.097h-1.793Z"/>
    <path id="stairs-44" d="m218.979 430.578.61-1.512 1.663.672 1.206.482-.547 1.367-.672 1.662-1.435-.58-1.436-.58Z"/>
    <path id="stairs-45" d="M239.214 433.015v-1.549h3.097v1.63l-.002 1.466-1.465.001h-1.63Z"/>
    <path id="stairs-46" d="m192.755 442.334.616-1.512 1.657.672 1.36.55-.61 1.511-.611 1.511-1.511-.61-1.512-.611Z"/>
    <path id="stairs-47" d="m371.773 449.959.421-2.387 2.557.451 2.556.451-.42 2.386-.421 2.386-2.557-.45-2.556-.451Z"/>
    <path id="stairs-48" d="M110.281 452.738v-1.549h1.956v1.467h1.793v1.63h-3.749Z"/>
    <path id="stairs-49" d="M272.792 458.687v-1.467h3.097v1.467h-1.467v1.467h-1.63Z"/>
    <path id="stairs-50" d="M103.761 474.906v-2.96h1.63v3.367h3.097v1.304h-4.727Z"/>
    <path id="stairs-51" d="m138.031 483.918.108-.22-.66-.322-.659-.321.286-.586.286-.586 1.318.643 1.319.643-.393.806-.393.805-.66-.321-.659-.322Z"/>
    <path id="stairs-52" d="M216.394 520.709v-.734h-1.467v-1.63h3.097v3.097h-1.63Z"/>
    <path id="stairs-53" d="M186.891 520.709v-.734h-1.467v-1.63h3.097v3.097h-1.63Z"/>
    <path id="stairs-54" d="M276.704 521.931v-.815h1.467v1.63h-1.467Z"/>
    <path id="stairs-55" d="M254.862 521.931v-.815h1.467v1.63h-1.467Z"/>
    <path id="stairs-56" d="M280.29 522.665v-1.549h1.467v3.097h-1.467Z"/>
    <path id="stairs-57" d="M258.448 522.665v-1.549h1.467v3.097h-1.467Z"/>
    <path id="stairs-58" d="M131.634 526.251v-1.549h1.467v3.097h-1.467Z"/>
    <path id="stairs-59" d="M502.785 526.414v-1.549h1.467v3.097h-1.467Z"/>
    <path id="stairs-60" d="m567.588 538.539.684-1.389 1.097.539 1.097.54-.684 1.389-.684 1.39-1.097-.54-1.097-.54Z"/>
    <path id="stairs-61" d="M437.748 547.767v-.408h2.119v.815h-2.119Z"/>
    <path id="stairs-62" d="M519.612 545.516c.075-.738.294-1.472.624-2.136.315-.633.762-1.206 1.265-1.703.457-.452.943-.961 1.563-1.131.811-.222 1.703.003 2.513.23.68.192 1.902.936 1.902.936l-.468.951-.468.95s-1.483-.826-2.302-.86c-.365-.015-1.055.298-1.055.298l4.363 1.906-.841 1.644-.826 1.69-4.135-2.314s.115.814.353 1.127c.497.653 2.068 1.336 2.068 1.336l-.432.877-.431.878s-1.327-.526-1.902-.936c-.618-.441-1.297-.916-1.617-1.604-.302-.649-.247-1.427-.174-2.139Z"/>
    <path id="stairs-63" d="M470.185 561.051v-1.467h3.097v1.467h-1.467v1.467h-1.63Z"/>
    <path id="stairs-64" d="M461.506 569.161v-2.123h1.304v-1.467h1.467v4.405h-2.771Z"/>
    <path id="stairs-65" d="m498.861 568.922.72-1.463 1.608.792 1.609.791-.36.732-.36.731-.804-.396-.804-.396-.36.732-.36.731-.804-.396-.805-.396Z"/>
    <path id="stairs-66" d="M452.092 570.75v-1.223h1.304v2.445h-1.304Z"/>
    <path id="stairs-67" d="M221.773 572.706v-1.549h2.608v1.467h2.445v1.63h-5.053Z"/>
    <path id="stairs-68" d="M417.21 573.765v-.815h1.304v-1.467h1.467v3.097h-2.771Z"/>
    <path id="stairs-69" d="M407.593 573.032v-1.549h1.467v1.467h1.304v1.63h-2.771Z"/>
    <path id="stairs-70" d="m548.44 584.083.324-.658.731.36.732.36.323-.659.324-.658.805.396.804.396-.648 1.316-.647 1.316-1.536-.755-1.536-.756Z"/>
    <path id="stairs-71" d="M212.971 585.746v-1.549h3.097v1.467h-1.467v1.63h-1.63Z"/>
    <path id="stairs-72" d="M110.444 592.184v-1.304h2.934v1.467h-1.467v1.141h-1.467Z"/>
    <path id="stairs-73" d="M427.968 592.429v-1.386h2.934v1.467h-1.304v1.304h-1.63Z"/>
    <path id="stairs-74" d="m493.214 594.013 1.583-3.218 2.414 1.188 2.413 1.187-.053.111-.052.11-1.181 1.012-1.182 1.013-.315-.282c-.106-.093-.197-.205-.316-.281-.138-.088-.296-.138-.449-.195-.129-.048-.257-.119-.395-.123-.159-.004-.316.055-.464.115-.147.06-.3.127-.41.241-.173.18-.238.439-.352.661-.121.236-.352.715-.352.715l1.17.576 1.17.575-.431.878-.598 1.099-1.975-.971-1.974-.972Z"/>
    <path id="stairs-75" d="m467.985 597.544-2.084-1.428.768-1.232.831-1.233 1.954 1.163 1.89 1.163-.839 1.597-.694 1.128Z"/>
    <path id="stairs-76" d="M214.438 601.72v-.734h1.956v1.467h-1.956Z"/>
    <path id="stairs-77" d="M263.501 603.105v-2.725h1.63v-1.024h1.793v5.053h-3.423Z"/>
    <path id="stairs-78" d="M221.936 612.478v-1.712h5.053v1.793h-2.445v1.63h-2.608Z"/>
    <path id="stairs-79" d="M258.285 632.066v-1.549h3.097v1.63h-1.467v1.467h-1.63Z"/>
    <path id="stairs-80" d="M112.074 641.981v-1.549h3.097v1.63h-1.467v1.467h-1.63Z"/>
    <path id="stairs-81" d="M171.895 665.127v-1.549h1.63v1.467h1.467v1.63h-3.097Z"/>
    <path id="stairs-82" d="M60.8922 671.321v-.734h-1.467v-1.63h3.097v3.097h-1.63Z"/>
    <path id="stairs-88" d="M122.832 696.26v-.734h-1.467v-1.63h3.097v3.097h-1.63Z"/>
    <path id="stairs-89" d="M62.8482 695.445v-1.549h3.097v1.63h-1.467v1.467h-1.63Z"/>
    <path id="stairs-94" d="m184.534 751.779-.489-.847 1.624-.937 1.623-.937.489.847.489.847-1.623.937-1.624.937Z"/>
    <path id="stairs-95" d="M501.481 761.786v-1.549h1.467v1.467h1.467v1.63h-2.934Z"/>
    <path id="stairs-96" d="M492.842 785.013v-2.282h1.304v4.564h-1.304Z"/>
    <path id="stairs-97" d="M375.84 755.417v3.763h3.878v-1.651h-2.112v-2.112Z"/>
    <path id="cinema-1" d="M485.344 690.31v-2.282h5.053v3.097h-2.445v1.467h-2.608Z"/>
    <path id="cinema-2" d="M485.344 708.729v-2.282h2.608v1.467h2.445v3.097h-5.053Z"/>
    <path id="cinema-3" d="M499.199 681.373h3.097v1.793h-3.097Z"/>
    <path id="cinema-4" d="M499.199 716.747v-.978h3.097v1.956h-3.097Z"/>
  </defs>
  
  
  
  
  
  <g id="Fourth_Floor" class="shadow">
    <g id="Stairs-4" class="stairs">
      <use xlink:href="#stairs-30" x="0" y="0"/>
      <use xlink:href="#stairs-32" x="0" y="0"/>
      <use xlink:href="#stairs-34" x="0" y="0"/>
      <use xlink:href="#stairs-42" x="0" y="0"/>
      <use xlink:href="#stairs-43" x="0" y="0"/>
      <use xlink:href="#stairs-46" x="0" y="0"/>
      <use xlink:href="#stairs-49" x="0" y="0"/>
      <use xlink:href="#stairs-64" x="0" y="0"/>
      <use xlink:href="#stairs-70" x="0" y="0"/>
      <use xlink:href="#stairs-54" x="0" y="0"/>
      <use xlink:href="#stairs-55" x="0" y="0"/>
      <use xlink:href="#stairs-56" x="0" y="0"/>
      <use xlink:href="#stairs-57" x="0" y="0"/>
    </g>
    <g id="Floor-4" class="floor">
      <path d="M272.41 361.431v-1.385h4.89v2.771h-4.89Z"/>
      <path d="m139.699 347.907-.028 18.918h.657v.372h-.657v4.399h6.636v5.991h.623v.432h-.651v.978h-.653v1.631h-.978v1.304h4.565v-3.913h-.637v-.428h.637v-8.815l-6.506-.015v-1.564h-.509v-.372h.509v-18.918Z"/>
      <path d="M142.203 380.465v-1.468h1.304v2.935h-1.304Z"/>
      <path d="M278.441 429.001v-1.467h-.327v.652h-7.987v-2.608h7.987v.652h.327v-58.197h-.327v.49h-7.987v-2.608h7.987v.489h.327v-.489h2.772v24.941h.325v-4.076h4.076v-2.771h6.031v5.216h-7.825v1.794h.327v-1.468h7.498v3.75h-7.498v-.978h-.327v2.119h.327v-.816h7.498v7.5h-7.498v-5.38h-.327v1.957h-2.282v-5.544h-.325v38.31h-2.772Z"/>
      <path d="M275.669 430.469v-.653h1.631v1.304h-1.631Z"/>
      <path d="M276.26 456.877h-.264v-3.261h-.327v3.261h-5.542v-9.945h3.586v2.12h.326v-2.12h.198l.001-.325h-4.11v-12.226h4.075v-.327h-1.793v-2.771h4.891v2.771h-1.794v.327h2.608v12.226h-2.608v.325h2.608v2.12h.326v-2.12h12.715v3.913h-3.423v1.793h-2.772v.327h3.099v-1.794h1.629v5.706h-7.173v-3.912h1.467v-.327h-5.542v-2.445h-.326v4.401h.326v-1.629h3.75v3.912h-3.75v-1.142h-.326v1.142h-.308l-.13.28-.154-.28h-.304l-.149.28-.182-.28h-.318l-.163.28Z"/>
      <path d="M274.366 459.403v-.734h1.467v-1.467h2.281v2.934h-3.748Z"/>
      <path d="M270.127 458.669v-1.467h2.608v2.934h-2.608Z"/>
      <path d="M461.506 569.357v-.653h2.772v1.305h-2.772Z"/>
      <path d="M452.051 569.52v-5.706h5.054v6.032h.326v-6.032h6.847v1.793h-1.468v1.467h-1.629v3.261h3.097v4.891h-6.847v-2.61h-.326v2.61h-5.054Z"/>
      <path d="m551.779 584.932.646-1.316.805.395.804.396-.646 1.317-.648 1.317-.805-.396-.804-.396Z"/>
      <path d="m546.805 582.485.648-1.316.219.107.22.109.072-.147.072-.146-.22-.108-.219-.108.143-.292.145-.293-.147-.072-.146-.071-.144.292-.144.292-3.29-1.619-3.291-1.62 1.259-2.558 1.259-2.561 3.291 1.619 3.292 1.62-.865 1.756-.863 1.754.147.072.145.072 1.656-3.364 1.655-3.364 1.17.576 1.17.576-1.367 2.779-1.368 2.779.294.143.292.144.072-.145c.039-.081.006-.18-.075-.219l-.146-.072 1.296-2.632 1.296-2.634 1.974.972 1.975.972-1.296 2.632-1.296 2.634-1.316-.648-1.317-.648-.072.147-.072.145.294.144.292.145-.217.439-.215.439.146.07.146.073.216-.439.216-.439.878.433.878.431-.685 1.389-.683 1.39-.878-.431-.877-.432.215-.439.217-.439-.147-.072-.146-.072-.216.439-.216.439-1.536-.756-1.536-.755-.072.145-.072.147 1.025.503 1.023.504-.324.658-.324.659-.658-.324-.657-.324-.324.658-.324.659-1.097-.541-1.098-.539Z"/>
      <path d="M279.583 503.219v12.879h-6.522v1.303h.978v.326h-1.467v3.922h.204v.335l-.204.01v1.276h-.325v-5.542h-2.934v7.009h2.934v-.163l.001-.162h.325v.651h-3.26v.278h-.265v-7.613h-4.564v8.965h2.71v.327h-5.217v.489h-.326v-.489h-2.608v-.327h.814v-2.445h-3.585v-1.467h-1.468v3.912h.816v.327h-7.173v1.793h13.204v-.489h.326v.489h3.424v.325h-3.261v7.011h4.564v-7.011h-.329l.004-.162v-.163h.978v.163l.001.162h-.327v7.011h3.75v-5.869h-2.12l-.019-.611.011-1.412h.257v1.712h1.886v-2.943h-1.886v.415h-.233l.014-.421h-.518v-.326l.162-.001h.713v-.309h.266v.309h3.423v.326h-1.631v9.129h5.217v-9.129h-2.608l-.004-.321.329-.011.002-.41.33-.003.022.419h1.929v-1.467h-1.956v.164l.001.162h-.328v-2.119h.327v1.467h1.956v-2.934h-1.956v.652h-.327v-.652h-.324l-.001-.164v-.162h2.608v-3.913h-1.305v-.326h2.446v.326h-.815v3.424h5.053v-3.424h-.815v-.326h.815v-14.182Z"/>
    </g>
  </g>
  
</svg>