<svg xmlns="http://www.w3.org/2000/svg" xmlns:xlink="http://www.w3.org/1999/xlink" xml:space="preserve" id="svg283" width="605.32397" height="831.57751" version="1.1" viewBox="0 0 605.32395 831.57753">
  <style id="style_common">
    .trees { fill:#144043 }
    .cement { fill:#c6c2c2 }
    .land { fill:#1f5054 }
    .rock { fill:#dcd5b6 }
    .water { fill:#4a6b96 }
    .wood { fill:#593700 }
    .tarmac { fill:#768089 }
    .gravel { fill:#946d3e }
    .building { fill:#1a2632 }
    .floor { fill:#70777f }
    .locked { fill:#37414c }
    .map_border { fill:none;stroke:#000;stroke-width:2 }
    .fence { fill:none;stroke:#c4e3c3;stroke-width:1 }
    .road_tarmac { fill:none;stroke:#888 }
    .road_gravel { fill:none;stroke:#946d3e }
    .road_small { stroke-width:5 }
    .road_medium { stroke-width:8 }
    .road_large { stroke-width:12 }
    .railroad { fill:none;stroke:#914833;stroke-dasharray:6;stroke-width:3 }
    .powerline { fill:none;stroke:#ffce00;stroke-width:2;stroke-miterlimit:10;stroke-dasharray:6,6 }
    .danger { fill:red;fill-opacity:.4;stroke:red;stroke-dasharray:4,2;stroke-width:2 }
    .danger_small { fill:red;fill-opacity:.4;stroke:red;stroke-dasharray:2,1;stroke-width:1 }
    .task { fill:#000 }
    .stairs { fill:#FFD700 }
    .shadow { filter:drop-shadow(0 0 2px #000) }
  </style>
  <defs id="defs1">
    <path id="stairs-16" d="M381.676 148.906v-1.548h3.26v3.096h-3.26Z"/>
    <path id="stairs-17" d="M280.453 177.431v-1.06h1.141v-.489h1.467v2.608h-2.608Z"/>
    <path id="stairs-18" d="M368.473 182.076v-2.771h3.586v5.542h-3.586Z"/>
    <path id="stairs-19" d="m365.574 220.143.496-2.809 2.086.368 2.087.368-.495 2.809-.496 2.809-2.086-.368-2.087-.368Z"/>
    <path id="stairs-20" d="m477.902 232.937.227-1.285-1.124-.198-1.123-.198.212-1.204.212-1.204 2.167.382 2.167.382-.438 2.489-.439 2.488-1.044-.184-1.043-.184Z"/>
    <path id="stairs-21" d="m351.601 240.03 4.852.943-.739 4.856-4.971-.908Z"/>
    <path id="stairs-22" d="m429.204 261.087-1.519-2.05 1.587-1.105 1.586-1.105 1.523 1.899.914 1.208-1.709 1.249-1.561 1.088Z"/>
    <path id="stairs-23" d="m402.038 272.665.432-2.347 4.654.831-.408 2.306-.433 2.347-2.338-.395-2.339-.395Z"/>
    <path id="stairs-24" d="M196.834 282.077v-.734h.489v-1.141h2.119v2.608h-2.608Z"/>
    <path id="stairs-25" d="m434.84 283.122.299-1.691 1.637.335 1.637.336-.085.771-.086.771-.811-.143-.812-.143-.155.883-.156.883-.883-.156-.883-.155Z"/>
    <path id="stairs-26" d="m492.158 293.848.128-.722-.723-.127-.722-.128.141-.802.142-.803 1.445.255 1.444.255-.268 1.525-.269 1.525-.723-.128-.722-.127Z"/>
    <path id="stairs-27" d="M203.028 338.312v-1.06h2.282v2.119h-2.282Z"/>
    <path id="stairs-28" d="m367.373 350.578.184-1.044 1.846.326 1.846.325-.184 1.044-.184 1.043-1.846-.325-1.846-.326Z"/>
    <path id="stairs-29" d="M72.9542 357.464v-2.445h4.238v2.608h-.489v2.282h-3.749Z"/>
    <path id="stairs-30" d="M275.563 363.658v-.815h1.793v3.108h-1.793Z"/>
    <path id="stairs-31" d="m432.515 363.094.354-2.006 1.765.311 1.766.311-.184 1.044-.184 1.043-.802-.141-.803-.142-.17.963-.17.963-.963-.169-.963-.17Z"/>
    <path id="stairs-32" d="M272.466 364.392v-1.549h1.793v3.097h-1.793Z"/>
    <path id="stairs-33" d="M97.7302 368.222v-1.956h1.63v2.282h1.4668v1.63h-3.0968Z"/>
    <path id="stairs-34" d="M143.533 380.447v-1.467h2.119v1.63h-.978v1.304h-1.141Z"/>
    <path id="stairs-35" d="M54.0462 385.663v-1.304h.978v-2.119h3.586v4.727h-4.564Z"/>
    <path id="stairs-36" d="m438.055 395.533.24-1.365-1.445-.255-1.444-.254.184-1.044.184-1.043 2.568.453 2.568.453-.424 2.408-.425 2.407-1.123-.198-1.124-.198Z"/>
    <path id="stairs-37" d="m425.878 392.31.425-2.408 2.568.453 2.569.453-.184 1.043-.184 1.044-1.445-.255-1.445-.255-.24 1.364-.241 1.365-1.124-.198-1.123-.198Z"/>
    <path id="stairs-38" d="M110.444 401.882v-1.549h3.586v1.63h-1.793v1.467h-1.793Z"/>
    <path id="stairs-39" d="M132.775 415.248v-1.386h1.63v1.304h.978v1.467h-2.608Z"/>
    <path id="stairs-40" d="m408.637 427.465.416-2.354 2.438.43 2.438.43-.415 2.354-.415 2.354-2.438-.43-2.439-.429Z"/>
    <path id="stairs-41" d="m208.028 427.533.684-1.667 1.65.676 1.36.55-.641 1.587-.641 1.587-1.512-.611-1.511-.61Z"/>
    <path id="stairs-42" d="M275.563 429.755v-1.549h1.793v3.097h-1.793Z"/>
    <path id="stairs-43" d="M272.466 429.755v-1.549h1.793v3.097h-1.793Z"/>
    <path id="stairs-44" d="m218.979 430.578.61-1.512 1.663.672 1.206.482-.547 1.367-.672 1.662-1.435-.58-1.436-.58Z"/>
    <path id="stairs-45" d="M239.214 433.015v-1.549h3.097v1.63l-.002 1.466-1.465.001h-1.63Z"/>
    <path id="stairs-46" d="m192.755 442.334.616-1.512 1.657.672 1.36.55-.61 1.511-.611 1.511-1.511-.61-1.512-.611Z"/>
    <path id="stairs-47" d="m371.773 449.959.421-2.387 2.557.451 2.556.451-.42 2.386-.421 2.386-2.557-.45-2.556-.451Z"/>
    <path id="stairs-48" d="M110.281 452.738v-1.549h1.956v1.467h1.793v1.63h-3.749Z"/>
    <path id="stairs-49" d="M272.792 458.687v-1.467h3.097v1.467h-1.467v1.467h-1.63Z"/>
    <path id="stairs-50" d="M103.761 474.906v-2.96h1.63v3.367h3.097v1.304h-4.727Z"/>
    <path id="stairs-51" d="m138.031 483.918.108-.22-.66-.322-.659-.321.286-.586.286-.586 1.318.643 1.319.643-.393.806-.393.805-.66-.321-.659-.322Z"/>
    <path id="stairs-52" d="M216.394 520.709v-.734h-1.467v-1.63h3.097v3.097h-1.63Z"/>
    <path id="stairs-53" d="M186.891 520.709v-.734h-1.467v-1.63h3.097v3.097h-1.63Z"/>
    <path id="stairs-54" d="M276.704 521.931v-.815h1.467v1.63h-1.467Z"/>
    <path id="stairs-55" d="M254.862 521.931v-.815h1.467v1.63h-1.467Z"/>
    <path id="stairs-56" d="M280.29 522.665v-1.549h1.467v3.097h-1.467Z"/>
    <path id="stairs-57" d="M258.448 522.665v-1.549h1.467v3.097h-1.467Z"/>
    <path id="stairs-58" d="M131.634 526.251v-1.549h1.467v3.097h-1.467Z"/>
    <path id="stairs-59" d="M502.785 526.414v-1.549h1.467v3.097h-1.467Z"/>
    <path id="stairs-60" d="m567.588 538.539.684-1.389 1.097.539 1.097.54-.684 1.389-.684 1.39-1.097-.54-1.097-.54Z"/>
    <path id="stairs-61" d="M437.748 547.767v-.408h2.119v.815h-2.119Z"/>
    <path id="stairs-62" d="M519.612 545.516c.075-.738.294-1.472.624-2.136.315-.633.762-1.206 1.265-1.703.457-.452.943-.961 1.563-1.131.811-.222 1.703.003 2.513.23.68.192 1.902.936 1.902.936l-.468.951-.468.95s-1.483-.826-2.302-.86c-.365-.015-1.055.298-1.055.298l4.363 1.906-.841 1.644-.826 1.69-4.135-2.314s.115.814.353 1.127c.497.653 2.068 1.336 2.068 1.336l-.432.877-.431.878s-1.327-.526-1.902-.936c-.618-.441-1.297-.916-1.617-1.604-.302-.649-.247-1.427-.174-2.139Z"/>
    <path id="stairs-63" d="M470.185 561.051v-1.467h3.097v1.467h-1.467v1.467h-1.63Z"/>
    <path id="stairs-64" d="M461.506 569.161v-2.123h1.304v-1.467h1.467v4.405h-2.771Z"/>
    <path id="stairs-65" d="m498.861 568.922.72-1.463 1.608.792 1.609.791-.36.732-.36.731-.804-.396-.804-.396-.36.732-.36.731-.804-.396-.805-.396Z"/>
    <path id="stairs-66" d="M452.092 570.75v-1.223h1.304v2.445h-1.304Z"/>
    <path id="stairs-67" d="M221.773 572.706v-1.549h2.608v1.467h2.445v1.63h-5.053Z"/>
    <path id="stairs-68" d="M417.21 573.765v-.815h1.304v-1.467h1.467v3.097h-2.771Z"/>
    <path id="stairs-69" d="M407.593 573.032v-1.549h1.467v1.467h1.304v1.63h-2.771Z"/>
    <path id="stairs-70" d="m548.44 584.083.324-.658.731.36.732.36.323-.659.324-.658.805.396.804.396-.648 1.316-.647 1.316-1.536-.755-1.536-.756Z"/>
    <path id="stairs-71" d="M212.971 585.746v-1.549h3.097v1.467h-1.467v1.63h-1.63Z"/>
    <path id="stairs-72" d="M110.444 592.184v-1.304h2.934v1.467h-1.467v1.141h-1.467Z"/>
    <path id="stairs-73" d="M427.968 592.429v-1.386h2.934v1.467h-1.304v1.304h-1.63Z"/>
    <path id="stairs-74" d="m493.214 594.013 1.583-3.218 2.414 1.188 2.413 1.187-.053.111-.052.11-1.181 1.012-1.182 1.013-.315-.282c-.106-.093-.197-.205-.316-.281-.138-.088-.296-.138-.449-.195-.129-.048-.257-.119-.395-.123-.159-.004-.316.055-.464.115-.147.06-.3.127-.41.241-.173.18-.238.439-.352.661-.121.236-.352.715-.352.715l1.17.576 1.17.575-.431.878-.598 1.099-1.975-.971-1.974-.972Z"/>
    <path id="stairs-75" d="m467.985 597.544-2.084-1.428.768-1.232.831-1.233 1.954 1.163 1.89 1.163-.839 1.597-.694 1.128Z"/>
    <path id="stairs-76" d="M214.438 601.72v-.734h1.956v1.467h-1.956Z"/>
    <path id="stairs-77" d="M263.501 603.105v-2.725h1.63v-1.024h1.793v5.053h-3.423Z"/>
    <path id="stairs-78" d="M221.936 612.478v-1.712h5.053v1.793h-2.445v1.63h-2.608Z"/>
    <path id="stairs-79" d="M258.285 632.066v-1.549h3.097v1.63h-1.467v1.467h-1.63Z"/>
    <path id="stairs-80" d="M112.074 641.981v-1.549h3.097v1.63h-1.467v1.467h-1.63Z"/>
    <path id="stairs-81" d="M171.895 665.127v-1.549h1.63v1.467h1.467v1.63h-3.097Z"/>
    <path id="stairs-82" d="M60.8922 671.321v-.734h-1.467v-1.63h3.097v3.097h-1.63Z"/>
    <path id="stairs-88" d="M122.832 696.26v-.734h-1.467v-1.63h3.097v3.097h-1.63Z"/>
    <path id="stairs-89" d="M62.8482 695.445v-1.549h3.097v1.63h-1.467v1.467h-1.63Z"/>
    <path id="stairs-94" d="m184.534 751.779-.489-.847 1.624-.937 1.623-.937.489.847.489.847-1.623.937-1.624.937Z"/>
    <path id="stairs-95" d="M501.481 761.786v-1.549h1.467v1.467h1.467v1.63h-2.934Z"/>
    <path id="stairs-96" d="M492.842 785.013v-2.282h1.304v4.564h-1.304Z"/>
    <path id="stairs-97" d="M375.84 755.417v3.763h3.878v-1.651h-2.112v-2.112Z"/>
    <path id="cinema-1" d="M485.344 690.31v-2.282h5.053v3.097h-2.445v1.467h-2.608Z"/>
    <path id="cinema-2" d="M485.344 708.729v-2.282h2.608v1.467h2.445v3.097h-5.053Z"/>
    <path id="cinema-3" d="M499.199 681.373h3.097v1.793h-3.097Z"/>
    <path id="cinema-4" d="M499.199 716.747v-.978h3.097v1.956h-3.097Z"/>
  </defs>
  
  
  
  
  <g id="Third_Floor" class="shadow">
    <g id="Stairs-3" class="stairs">
      <use xlink:href="#stairs-16" x="0" y="0"/>
      <use xlink:href="#stairs-17" x="0" y="0"/>
      <use xlink:href="#stairs-21" x="0" y="0"/>
      <use xlink:href="#stairs-25" x="0" y="0"/>
      <use xlink:href="#stairs-26" x="0" y="0"/>
      <use xlink:href="#stairs-30" x="0" y="0"/>
      <use xlink:href="#stairs-31" x="0" y="0"/>
      <use xlink:href="#stairs-32" x="0" y="0"/>
      <use xlink:href="#stairs-34" x="0" y="0"/>
      <use xlink:href="#stairs-36" x="0" y="0"/>
      <use xlink:href="#stairs-37" x="0" y="0"/>
      <use xlink:href="#stairs-40" x="0" y="0"/>
      <use xlink:href="#stairs-41" x="0" y="0"/>
      <use xlink:href="#stairs-42" x="0" y="0"/>
      <use xlink:href="#stairs-43" x="0" y="0"/>
      <use xlink:href="#stairs-44" x="0" y="0"/>
      <use xlink:href="#stairs-46" x="0" y="0"/>
      <use xlink:href="#stairs-47" x="0" y="0"/>
      <use xlink:href="#stairs-49" x="0" y="0"/>
      <use xlink:href="#stairs-53" x="0" y="0"/>
      <use xlink:href="#stairs-54" x="0" y="0"/>
      <use xlink:href="#stairs-55" x="0" y="0"/>
      <use xlink:href="#stairs-56" x="0" y="0"/>
      <use xlink:href="#stairs-57" x="0" y="0"/>
      <use xlink:href="#stairs-64" x="0" y="0"/>
      <use xlink:href="#stairs-66" x="0" y="0"/>
      <use xlink:href="#stairs-68" x="0" y="0"/>
      <use xlink:href="#stairs-69" x="0" y="0"/>
      <use xlink:href="#stairs-70" x="0" y="0"/>
      <use xlink:href="#stairs-73" x="0" y="0"/>
      <use xlink:href="#stairs-75" x="0" y="0"/>
      <use xlink:href="#stairs-85" x="0" y="0"/>
      <use xlink:href="#stairs-87" x="0" y="0"/>
      <use xlink:href="#stairs-88" x="0" y="0"/>
      <use xlink:href="#stairs-89" x="0" y="0"/>
      <use xlink:href="#stairs-90" x="0" y="0"/>
      <use xlink:href="#stairs-92" x="0" y="0"/>
      <use xlink:href="#cinema-1" x="0" y="0"/>
      <use xlink:href="#cinema-2" x="0" y="0"/>
      <use xlink:href="#cinema-3" x="0" y="0"/>
      <use xlink:href="#cinema-4" x="0" y="0"/>
      <path d="m434.308 401.789 5.119.839-.848 5.173-5.119-.839Z"/>
      <path d="m429.358 428.01 5.706.881-.833 5.391-5.706-.881Z"/>
      <path d="M502.305 717.72h-2.648v2.295h2.648Z"/>
      <path d="M502.305 678.864h-2.648v2.295h2.648Z"/>
    </g>
    <g id="Floor-3" class="floor">
      <path d="M381.793 146.217v-1.141h2.934v2.282h-2.934Z"/>
      <path d="M372.337 151.76v-2.12h3.913v-.978h.978v-.326h-.978v-1.141h-.326v2.119h-3.587v-3.423h3.559l.096.204.095.204.095-.204.096-.204h.625v-.326h-4.566v-2.771h6.195v2.771h-.651v.326h.651v.815h2.935v1.63h-.652v.326h.652v2.609h.326v-.816h2.934v3.424h-2.934v-1.63h-.326v1.63h-2.283v-5.217h.653v-.326h-1.631v.326h.653v5.217h-6.522Z"/>
      <path d="M279.463 177.507v-2.771h-1.794v-.815h-5.215v6.195h-2.935v-6.195h-1.467v-14.345h-.326v1.467h-1.63v.326h1.63v2.608h-4.239v-2.608h1.305v-.326h-1.63v9.781h-11.901v-10.433h7.662v-.326h-7.662v-7.499h9.781v7.499h-.814v.326h1.14v-3.424h4.075v-.326h-.814v-2.119h3.097v2.119h-.978v.326h.978v1.305h.326v-18.095h2.608v31.625h13.204v8.477h-4.401Zm3.586-.326v-1.304h-1.467v.489h-1.141v2.119h2.608Z"/>
      <path d="M251.261 177.51v-2.772h7.173v-.326h-.652v-.978h-.326v.978h-6.195v-3.26h6.195v.978h.326v-.978h2.608v3.26h-.651v.326h.651v3.75h.327v-3.75h3.586v5.543h-3.586v-.489h-.327v.489h-9.129Z"/>
      <path d="M344.304 218.292c-.922 5.063-1.845 10.127-2.767 15.19.277-.022.553-.044.829-.068.105.074.247.119.305.241-.042.039-.145.008-.211.02-.298.002-.597.006-.896.01-.083.202-.176.403-.208.623-.286 1.4-.53 2.808-.78 4.216l-.799 4.584c2.697.511 5.399 1.009 8.09 1.542.213.042.425.087.634.142.536.098 1.077.159 1.619.215.361-2.196.723-4.39 1.085-6.586.069.012.14.024.211.037-.018.3-.037.6-.055.901 1.404.241 2.801.514 4.211.706.245.039.495.027.743.033l.55-3.246c.066.021.17.015.213.05l-.635 3.602c-1.611-.261-3.22-.533-4.834-.781-.116-.016-.233-.031-.351-.045-.276 1.697-.552 3.395-.83 5.092.067.167.133.334.201.501.299.053.599.105.898.159.13-.147.278-.285.343-.475.132-.276.122-.602.295-.859.055-.049.115-.099.19-.061.51.096 1.018.19 1.528.285.055-.423.109-.845.164-1.268.172-.192.345-.382.518-.574.224.101.448.2.672.302.241-.048.481-.095.722-.141-.028-.072-.057-.144-.085-.216.097.057.177.14.261.216-.212 1.193-.439 2.385-.613 3.586.185-.027.369-.098.558-.081.168.012.363.033.541.055 1.132.141 2.249.347 3.378.527.076.012.151.026.226.038.193-1.279.387-2.558.581-3.837.101.019.201.036.302.054-.212 1.214-.422 2.43-.635 3.645.188.082.369.188.575.216 1.129.228 2.268.41 3.405.601 1.832.299 3.666.595 5.505.849.241.03.481.071.723.076.06-.001.099-.037.117-.093.114-.387.179-.788.263-1.183.502-2.542.936-5.096 1.397-7.645.069-.382.137-.764.206-1.147-1.266-.191-2.53-.382-3.795-.572.029-.079.06-.157.089-.235 1.252.189 2.505.379 3.757.57.58-3.296 1.159-6.593 1.739-9.888-.368-.035-.725-.066-1.09-.145-.104-.021-.205-.045-.309-.068.015-.082.029-.166.044-.247.147.025.295.051.441.078.26-1.454.518-2.908.777-4.361-.307-.11-.61-.233-.932-.291-1.32-.288-2.658-.483-3.988-.713-.028.16-.056.32-.086.48-.332-.058-.666-.117-1-.176-.148.178-.336.328-.439.538-.067.146.037.304.172.363.312.158.655.243.982.361.111.001.087.083.067.162-.158.894-.316 1.789-.474 2.683.914.185 1.828.358 2.737.556l-.143.239c-2.294-.439-4.589-.878-6.883-1.316-.129.217-.259.433-.387.65-.076-.046-.152-.091-.226-.136l.333-.73c-.294.039-.589.078-.883.119-.218-.098-.436-.196-.653-.293.039-.042.046-.148.106-.149.434.058.867.109 1.303.142.25-1.415.499-2.829.749-4.245-1.587-.279-3.174-.559-4.761-.839-.218 1.354-.451 2.705-.649 4.061-.013.108-.02.217-.03.326.511.064 1.022.126 1.533.19-.053.118-.108.236-.162.354-.467-.128-.943-.224-1.426-.263-.063.002-.166-.034-.206-.01.033.167.064.333.097.501-.086.017-.173.033-.26.05.237-1.67.522-3.334.755-5.004.01-.09.009-.18.014-.269-5.084-.867-10.167-1.734-15.251-2.6-.007.039-.015.079-.022.119Zm9.461 5.351c.085-.001.135.026.097.116-.139 1.024-.31 2.041-.468 3.062-.128.828-.265 1.654-.376 2.485l-.019.305c1.524.2 3.046.414 4.562.666l.501.081c.08-.652.159-1.305.239-1.958.121-.144.209-.341.396-.412.058.025-.009.14 0 .2l-.29 2.153c1.144.172 2.287.353 3.432.524.296.034.603.097.895.015.22-.064.327-.29.37-.498.105-.5.201-.996.307-1.497.061 0 .153-.041.196-.018.018.219.036.439.053.658 1.466.275 2.937.533 4.396.846.217.049.435.098.654.148.162-.065.325-.129.486-.194.066-.372.131-.742.197-1.114.426-.013.863.013 1.277.084l.418.074c-.017.331-.087.659-.132.988-.114.717-.237 1.432-.357 2.149-.352-.029-.7-.1-1.049-.149-3.743-.587-7.478-1.226-11.225-1.783-.082-.024-.049.115-.078.166-.215 1.063-.428 2.125-.641 3.188-.05-.011-.189.067-.174-.01.161-1.117.371-2.226.563-3.339-1.62-.231-3.239-.461-4.858-.692-.107.076-.216.153-.324.229l-.396 2.244c-.09.002-.179.004-.27.005.504-2.913 1.009-5.827 1.513-8.74.035.006.069.012.105.018Zm-6.03 10.859c1.238.224 2.476.458 3.716.666l.367.04c-.019-.273-.039-.547-.058-.82.095.036.189.072.284.108-.089.652-.179 1.304-.269 1.957-.11-.02-.218-.04-.327-.059.09-.24.182-.481.274-.721-.316-.113-.624-.247-.954-.311-1.602-.361-3.224-.619-4.837-.916-.536-.098-1.072-.197-1.609-.299.016-.087.031-.175.047-.262 1.122.207 2.245.412 3.366.617Zm14.522 1.849c.671.026 1.334.158 1.99.295.542.123 1.095.25 1.614.462.064.029.13.057.186.101-.016.072-.138-.007-.199-.001-1.092-.198-2.183-.396-3.274-.594-.151.06-.301.12-.453.18-.154 1.074-.309 2.148-.463 3.222-.1-.018-.201-.036-.301-.053l.528-3.554c.116-.059.246-.058.372-.058Z"/>
      <path d="M438.293 262.588c-.249 1.54-.498 3.079-.748 4.617l6.536 1.056c.125-.414.25-.83.374-1.244.07.063.141.127.212.19-.456 2.651-.912 5.302-1.367 7.953-.057.005-.143.101-.175.019-.067-.058-.05-.135-.033-.212.27-1.677.566-3.351.805-5.032.051-.394.118-.786.132-1.184-.002-.096-.086-.161-.13-.239l-6.143-1.016c-.117.137-.249.264-.354.406-.469 2.754-.938 5.509-1.407 8.263 2.335.372 4.67.745 7.006 1.118-.146.821-.29 1.644-.436 2.466-.08-.014-.162-.028-.243-.043.112-.724.213-1.449.297-2.176-2.232-.369-4.464-.748-6.699-1.102-.239 1.42-.48 2.839-.72 4.259 2.185.366 4.369.732 6.553 1.097.059-.067.119-.133.179-.2.093.056.187.112.28.169-.023.134-.048.27-.071.404-1.275-.225-2.552-.45-3.827-.675-.1.56-.179 1.124-.314 1.677-.477-.125-.955-.249-1.433-.373-.098.554-.194 1.107-.292 1.66-.396-.029-.78-.139-1.166-.226-.126-.029-.251-.06-.376-.089-.159.491-.34.989-.337 1.513-.004.108-.006.217-.01.324 1.682.266 3.363.531 5.043.8.403.054.808.133 1.216.09.221-.019.434-.156.512-.37.125-.322.143-.67.214-1.005.079-.428.161-.856.243-1.284l.249-.004c-.176.999-.353 1.999-.53 2.998-.066.038-.126.103-.196.126-2.277-.36-4.555-.726-6.835-1.079-.247 1.402-.494 2.806-.742 4.208.19.07.375.159.579.183 2.267.421 4.54.817 6.81 1.22 8.76 1.548 17.525 3.063 26.286 4.61 8.512 1.497 17.022 3.004 25.534 4.501l.624-4.108c-1.016-.212-2.041-.377-3.06-.566-.997-.178-1.993-.355-2.99-.533l-.278-.249.388-2.854c.074.044.146.088.218.132.022.337-.012.671-.064 1.004-.089.558-.216 1.111-.251 1.677l5.956 1.075c.127-.337.281-.671.305-1.035.017-.2-.02-.399-.03-.598-.516-.13-1.018-.306-1.533-.433.108-.476.237-.951.262-1.44-.542-.054-1.085-.109-1.626-.164.049-.561.207-1.104.332-1.652.061-.101-.038-.093-.112-.101-1.046-.145-2.092-.288-3.138-.431.108-.648.196-1.299.263-1.953.039-.28.092-.563.223-.816l.227.04c-.153.812-.3 1.624-.407 2.443 1.772.277 3.541.577 5.317.821.242.023.487.088.729.037.087.007.139-.023.131-.117.212-1.357.444-2.713.634-4.074.011-.106.015-.214.022-.32-2.101-.317-4.201-.648-6.312-.894-.05-.248.012-.499.035-.747.285-2.24.661-4.466.982-6.701.162-1.089.321-2.179.435-3.274.104-.984.224-1.966.288-2.954.008-.138.021-.285-.052-.411-.006-.094-.099-.082-.168-.097-8.449-1.51-16.897-3.025-25.346-4.533-6.512-1.159-13.023-2.316-19.536-3.476-.086.485-.172.969-.256 1.452-.083-.015-.165-.028-.248-.043.046-.483.176-.951.29-1.421-1.843-.354-3.678-.742-5.53-1.038-.391-.063-.788-.091-1.181-.135Zm20.55 7.95c-.026.457-.101.909-.164 1.36-.149.988-.297 1.973-.511 2.947-.006.081-.115.005-.171.011-.112.016-.076-.073-.062-.147.211-1.27.44-2.537.612-3.811.016-.121.032-.241.047-.36l.231-.044Zm2.876.653c.811.075 1.628.2 2.44.32 1.525.235 3.05.513 4.575.77 1.312.225 2.623.45 3.933.675.058.108 0 .231-.001.345-.168 1.264-.372 2.537-.569 3.802-.551 3.472-1.128 6.942-1.688 10.414-.237 1.453-.471 2.905-.704 4.358-.153.042-.308-.019-.461-.032-2.076-.333-4.146-.698-6.217-1.052-1.656-.284-3.311-.567-4.966-.851.106-.749.25-1.491.377-2.238.97-5.498 1.955-10.994 2.952-16.487.109-.012.217-.039.327-.024Zm13.824 2.236c.085.005.159.018.111.118-.208 1.256-.424 2.508-.654 3.761-.015.08-.033.158-.05.237-.061-.021-.163-.011-.201-.047.224-1.365.448-2.728.671-4.091.041.007.082.014.123.022Zm-17.845 3.476c.052.035.185.025.139.117-.401 2.318-.802 4.637-1.203 6.955-.055-.009-.19.066-.181-.009.122-.87.271-1.738.408-2.605.242-1.5.489-2.999.734-4.498.034.014.068.027.103.04Zm16.758 2.561c.04.034.129.028.114.101-.005.354-.078.701-.125 1.051-.327 2.033-.66 4.065-.988 6.099-.072-.013-.144-.025-.216-.039.036-.372.11-.746.165-1.121.325-2.042.662-4.082.996-6.124.017.011.035.022.054.033Zm-18.31 6.57c.056.022.188-.008.142.087-.21 1.239-.421 2.478-.631 3.717-.072-.012-.146-.026-.219-.039.187-1.263.374-2.527.561-3.79Zm16.632 4.57c-.101.632-.204 1.265-.306 1.897l-.243-.044c.186-1.243.398-2.481.6-3.723l.253-.004c-.101.625-.202 1.25-.304 1.874Z"/>
      <path d="M272.41 361.478v-1.385h4.89v2.77h-4.89Z"/>
      <path d="M275.67 363.679v-.652h1.63v1.303h-1.63Z"/>
      <path d="m220.032 427.773.581-1.436 1.511.61 1.511.612-.581 1.435-.579 1.437-1.511-.612-1.512-.61Z"/>
      <path d="m210.044 427.254.337-.831.604.244.605.245-.336.831-.337.83-.604-.243-.605-.244Z"/>
      <path d="m220.259 431.997.245-.604.68.274.681.275-.245.605-.244.604-.68-.275-.681-.274Z"/>
      <path d="m211.069 428.635.671-1.662 1.209.488 1.209.489-.671 1.663-.672 1.661-1.209-.488-1.209-.489Z"/>
      <path d="m206.686 426.864.671-1.662.756.305.755.306-.671 1.661-.672 1.663-.756-.304-.756-.306Z"/>
      <path d="m217.986 432.837.306-.756 1.511.61 1.511.612-.305.755-.305.756-1.512-.612-1.511-.61Z"/>
      <path d="M423.847 348.195c-.44 2.413-.878 4.826-1.315 7.239.068.1.138.199.207.298 1.13.182 2.261.365 3.391.549.172-.099.346-.197.517-.296.01-.321.019-.641.028-.961.22-.042.439-.083.659-.125.119.093.238.186.358.278-.164.095-.359.035-.539.044-.061.017-.189-.048-.187.045-.221 1.378-.441 2.756-.663 4.135-1.132-.159-2.262-.338-3.392-.51-1.622-.248-3.243-.504-4.863-.759-.362.762-.748 1.516-1.068 2.298-.261.619-.59 1.206-.895 1.801.122.109.237.233.4.279.305.113.628.171.946.241-.19.287-.274.626-.356.956l-.101.44c-.112.021-.227.007-.338-.011.102-.258.202-.517.303-.775-.071-.156-.141-.31-.211-.465-1.371-.247-2.741-.495-4.112-.742-.127.666-.283 1.329-.375 2.001-.047.382-.08.805.134 1.145.214.336.614.479.981.578.748.188 1.518.262 2.281.358.3.034.601.07.9.104-.068-.172-.137-.346-.207-.518.091-.202.181-.402.271-.604.046.044.167.049.155.122-.049.389-.097.779-.144 1.168-.213.034-.426.079-.639.106-1.167-.236-2.336-.471-3.505-.707-.211.074-.423.148-.634.222-.255 1.362-.509 2.724-.764 4.086.095.082.176.198.31.212.706.169 1.423.285 2.136.417 1.259.22 2.52.433 3.788.605.474-2.684.947-5.369 1.422-8.054-.087-.089-.228-.155-.225-.298.006-.049-.011-.168.042-.168 1.035.204 2.07.41 3.105.615.08.072.161.144.242.215-.054.036-.09.164-.162.113-.249-.112-.497-.223-.747-.335-.3 1.477-.574 2.958-.862 4.438l-.748 3.902c.276-.003.553-.007.829-.012.016.085.032.168.049.252-.073.053-.174.011-.257.017-.75-.066-1.497-.23-2.246-.353-.062.006-.184-.074-.198.001-.917 5.184-1.834 10.367-2.751 15.549.906.182 1.811.365 2.717.544-.015.083-.029.165-.044.248-.809-.115-1.602-.287-2.402-.442-.159-.032-.32-.063-.48-.094-.161.759-.292 1.532-.579 2.258-.041.1-.098.193-.154.285-.857-.152-1.716-.302-2.573-.454-.122.344-.254.686-.324 1.045-.146.65-.23 1.311-.333 1.968.079.113.157.227.237.34 1.709.328 3.417.666 5.127.987.824.154 1.655.271 2.473.455.348.091.727.181.985.45.238.265.241.648.227.986-.045.701-.192 1.392-.311 2.084-.184.997-.355 1.994-.518 2.994 1.446.24 2.891.481 4.337.72.136-.641.265-1.277.417-1.914 1.346.199 2.692.402 4.044.56.299.045.628.071.915.199.081.029.126.113.094.194.006.099-.119.019-.179.027-1.538-.214-3.072-.461-4.619-.604-.067.002-.176-.052-.159.058-.357 2.081-.712 4.162-1.069 6.242.154.132.3.28.459.401.906.18 1.817.326 2.713.551.097.023.191.053.277.101.239.042.452-.115.675-.177.185-.059.385-.075.574-.023.081.014.163.029.244.042.019-.106.037-.214.057-.32.259.065.531.02.784-.054.523-.068 1.054-.069 1.582-.074.545.002 1.09.001 1.634.011.648.188 1.318.326 1.931.616.167.095.314.259.519.258.403.071.749.31 1.075.541.838.631 1.549 1.413 2.198 2.232.617.781 1.156 1.621 1.612 2.505.107.202.215.402.323.604-.032.17-.088.379.048.518.04.043.098.059.155.065.121.784.264 1.561.298 2.356.032.61.017 1.23-.048 1.83-.129 1.189-.472 2.386-1.067 3.437-.33.573-.729 1.111-1.12 1.64-.296.383-.588.781-.933 1.129-.125.103-.254.201-.38.301-.143 1.267-.332 2.528-.533 3.79-.03.185-.059.369-.087.554-.275-.045-.55-.092-.825-.138.009.258-.014.513-.049.768-.157 1.338-.378 2.67-.481 4.013-.007.163-.038.338.046.487.031.061.031.163.123.147.764.111 1.527.223 2.291.335.132-.988.265-1.975.398-2.963.081.049.162.098.244.147-.098.781-.262 1.553-.405 2.327.156.221.311.443.466.665.24.043.481.084.72.127.355-.251.696-.518 1.024-.805.54-.479 1.087-.953 1.64-1.417.395-.337.763-.703 1.128-1.072.174-.175.364-.335.568-.475.473-.373.882-.822 1.351-1.2.278-.189.516-.43.765-.655.285-.272.581-.534.836-.835.068-.105.053-.241.086-.358-.013-.044-.133.044-.189.052-.083.033-.165.082-.258.06-.863-.076-1.719-.203-2.577-.319-1.488-.208-2.971-.436-4.453-.686-.136.929-.272 1.858-.406 2.788-.06.022-.116.05-.177.066-.041-.258.009-.52.031-.778.09-.751.194-1.501.29-2.252.113-.062.243-.013.365-.013 1.517.157 3.036.401 4.555.617.921.131 1.841.269 2.766.375.036-.462.062-.925.062-1.39.029-2.59.026-5.181.026-7.772-.007-3.429-.009-6.857-.051-10.287-.011-.385-.002-.773-.05-1.156-.051-.735-.062-1.497-.068-2.245-.003-.746-.003-1.491-.004-2.235-1.945-.317-3.888-.644-5.835-.95-.107-.016-.212-.032-.318-.047.024.239.078.478.046.719-.096 1.224-.299 2.45-.428 3.678-.022.268-.064.537-.053.807.039.072-.002.103-.073.131-.101.051-.199.124-.304.164-1.533-.249-3.066-.498-4.6-.746-.056-.121-.017-.261-.018-.389.056-.85.18-1.701.272-2.55.095-.835.17-1.673.291-2.504-.933-.121-1.866-.242-2.798-.363-.018-.066-.076-.145-.068-.203.087-.04.201-.013.285-.013.8.073 1.595.2 2.391.308.725.104 1.45.211 2.175.315.158-.082.316-.165.473-.247.248-1.492.487-2.985.745-4.475.202-1.144.431-2.284.656-3.423-.007-.167-.178-.256-.304-.33-.094-.048-.191-.09-.285-.134.066-.378.132-.754.198-1.131-1.928-.343-3.862-.65-5.793-.979-1.6-.271-3.2-.535-4.797-.825-1.467-.284-2.942-.599-4.422-.836l-2.087-.345c-.05-.072-.101-.145-.152-.215.054-.042.086-.151.165-.103.988.255 1.989.468 3 .604.185.015.383.07.555-.025.075-.022.147-.046.136-.138.891-5.102 1.782-10.205 2.673-15.307-.075-.105-.148-.211-.223-.316-1.486-.26-2.974-.519-4.461-.783.012-.07.024-.141.037-.211.473.046.936.155 1.392.281.082.035.049-.113.078-.164.521-2.646 1.047-5.29 1.57-7.935-.484-.085-.967-.171-1.451-.255.015-.082.028-.164.043-.245.841.125 1.676.289 2.514.435 1.344.244 2.689.489 4.034.735.455-2.933.899-5.867 1.393-8.793.041-.216.066-.427.124-.637 1.118.171 2.234.36 3.355.506.13-.69.253-1.381.382-2.072.039-.157.073-.373.26-.413.285-.05.575.017.858.047.773.109 1.547.211 2.321.316-.252 1.301-.512 2.6-.757 3.904-.233 1.28-.467 2.559-.699 3.839l-1.548-.323c-.122.711-.245 1.422-.367 2.132-.549-.1-1.098-.199-1.647-.299-.113.734-.226 1.468-.338 2.203 3.066.615 6.131 1.231 9.197 1.846.008.059.085.134.048.182-.108.102-.232.192-.329.3-.227 1.141-.44 2.287-.711 3.42-.062.245-.126.499-.189.749.123.104.237.223.366.318 2.697.531 5.4 1.051 8.087 1.613.476.102.95.205 1.425.306.506-2.79 1.013-5.58 1.519-8.37-1.524-.29-3.039-.623-4.557-.944-.25 1.124-.432 2.26-.635 3.392-.164.047-.326.113-.49.151-1.118-.237-2.235-.47-3.351-.712.948-5.186 1.896-10.369 2.843-15.553-.553-.138-1.118-.222-1.679-.33-4.923-.903-9.846-1.794-14.771-2.689-.15.686-.269 1.378-.363 2.074-.182 1.264-.361 2.53-.601 3.785-.042.172-.057.359-.161.508-.294-.051-.589-.103-.884-.155.014-.078.027-.155.041-.232.257-.018.513-.037.77-.056.105-.909.23-1.815.367-2.718.161-1.08.332-2.158.5-3.236-2.191-.399-4.382-.799-6.573-1.197-.007.04-.015.079-.022.119Zm-1.236 47.235c.512.101 1.025.201 1.536.302.019.101.04.203.06.304-.088.072-.214.032-.318.036-.709-.063-1.412-.22-2.112-.377l-.73-.169c.024-.129.047-.26.07-.39l1.494.294Zm4.489 1.007c.479.085.955.168 1.433.252-.042.131-.085.262-.129.392-.966-.169-1.932-.339-2.899-.511.044-.13.086-.26.128-.391.489.087.978.173 1.467.258Zm2.448 4.157c.082.005.153.02.142.119-.002.056.078.195-.028.15-.125-.022-.248-.044-.372-.066.044-.075.089-.15.135-.225.041.007.082.015.123.022Zm1.236.264c-.025.055 0 .185-.058.192l-.312-.055c.074-.15.228-.258.395-.277-.008.047-.016.094-.025.14Z"/>
      <path d="M429.939 407.032c-.272.092-.551.197-.846.179-.311-.045-.623.032-.928.091-.463.1-.913.262-1.381.338-.208.015-.376.16-.542.271-.055.052-.158.071-.151.162-.757 4.481-1.514 8.963-2.27 13.445-.08-.019-.171-.019-.237-.072.24-1.559.502-3.117.753-4.674-.321.006-.644.033-.964-.004-.356-.033-.731-.081-1.092-.137-.434-.061-.869-.13-1.308-.136-.14.01-.279.021-.417.032-.037.407-.065.819-.186 1.213-1.124-.231-2.243-.503-3.361-.765-1.395-.31-2.812-.519-4.223-.733-.621-.101-1.238-.237-1.863-.325-.093-.021-.185.004-.253.07-.067.031-.104.082-.103.156-.389 2.079-.787 4.153-1.159 6.234-.142.786-.284 1.571-.427 2.357.059.123.117.245.174.368.928.207 1.853.422 2.783.624.708.127 1.415.256 2.122.383.084-.794.171-1.586.242-2.381.065.021.159.011.204.049.052.302.009.604-.024.902-.073.642-.19 1.294-.319 1.932.101.088.194.198.334.22.755.2 1.523.343 2.29.493.914.178 1.83.348 2.733.577.12.033.233.088.348.132-.009.147-.159.225-.272.291-.12.06-.241.119-.361.177.026.367-.002.742.098 1.098.025.1.097.192.207.198.453.119.908.235 1.362.351.087-.49.172-.979.259-1.469l-.411-.448c.083-.032.165-.083.25-.101.452.106.904.212 1.357.318.177-.831.3-1.672.447-2.508.121-.713.24-1.426.361-2.138.092.036.183.073.276.108-.45 2.812-.9 5.624-1.352 8.435.26.087.52.184.792.226 1.542.295 3.089.558 4.638.81.339.054.681.106 1.025.133.278-1.825.555-3.651.834-5.476 1.323.194 2.64.417 3.96.628.587.096 1.174.19 1.761.285.117-.082.236-.164.353-.247.184-1.269.368-2.538.516-3.812.377-.4.757-.797 1.096-1.231.281-.363.575-.72.809-1.116.167-.323.384-.618.559-.937.218-.381.429-.77.63-1.16.243-1.188.485-2.377.727-3.564-.105-.019-.211-.037-.317-.056.051-.285.102-.57.152-.855-.241-.748-.456-1.505-.723-2.244-.306-.86-.839-1.609-1.341-2.363-.702-1.041-1.565-1.985-2.602-2.702-.618-.43-1.268-.841-1.998-1.053-.836-.249-1.705-.359-2.562-.514-.147-.021-.295-.06-.442-.07l-.011.004Zm-1.638 5.1c.037.077.097.149.121.227-.362 2.378-.722 4.755-1.084 7.132-.672-.109-1.346-.187-2.023-.263.046-.136.09-.273.135-.409.494.06.988.122 1.482.177.358-2.188.698-4.379 1.023-6.571.023-.149.045-.297.067-.446.06.005.148-.05.19-.005.029.053.06.105.089.158Z"/>
      <path d="M278.441 429.048v-1.467h-.325v.651h-7.989v-2.607h7.989v.651h.325v-35.7h-.325v3.75h-3.587v2.934h-4.402v-5.38h5.869v-1.467h-.326v1.141h-5.543v-8.314h5.543v5.869h.326v-3.423h2.12v3.585h.325V368.08h-.325v.489h-7.989v-2.608h7.989v.489h.325v-.489h2.772v24.941h.326v-4.076h.814v-.325h-.814v-2.445h3.748v2.445h-1.629v.325h1.956v-2.77h6.031v5.215h-7.825v1.794h.327v-1.467h7.498v3.75h-7.498v-.978h-.327v2.118h.327v-.815h7.498v7.499h-7.498v-5.379h-.327v1.956h-2.281v-5.543h-.326v38.309h-2.772Zm2.445-30.158v-2.446h-2.119v4.891h2.119Z"/>
      <path d="M275.67 430.515v-.653h1.63v1.305h-1.63Z"/>
      <path d="M272.41 432.716v-1.387h4.89v2.772h-4.89Z"/>
      <path d="m195.6 443.497.642-1.589 5.291 2.139 5.289 2.137-.641 1.587-.641 1.587-5.29-2.137-5.29-2.137Z"/>
      <path d="m193.905 443.778.305-.756.604.245.606.243-.306.757-.306.755-.604-.244-.605-.245Z"/>
      <path d="m191.369 441.786.641-1.587.681.275.679.274-.641 1.588-.641 1.587-.68-.275-.681-.275Z"/>
      <path d="m376.103 457.723-.034-1.157.149.092.149.093.001 1.064.001 1.065h-.233Z"/>
      <path d="M406.921 430.112c-.274 1.516-.567 3.025-.871 4.535-.79 3.945-1.587 7.887-2.381 11.832.8.115 1.602.207 2.398.347.269.054.557.095.821.189.052.043.169.053.178.116-.025.055.008.194-.088.146-1.513-.27-3.025-.54-4.539-.812-.16.065-.32.129-.482.193-.727 3.724-1.446 7.452-2.226 11.166-.116.53-.221 1.06-.362 1.584-.579-.069-1.158-.173-1.741-.269-2.197-.373-4.389-.793-6.584-1.192-4.106-.76-8.215-1.519-12.317-2.314-.849-.167-1.705-.328-2.545-.52-.089-.002-.011-.112-.015-.165.13-.56.213-1.129.317-1.694-.727-.17-1.465-.282-2.199-.419-.972-.174-1.944-.342-2.917-.515.065-.254.082-.518.147-.774.105-.508.21-1.018.316-1.528-2.161-.397-4.322-.803-6.478-1.225-.421 1.904-.846 3.807-1.265 5.711-.319 1.793-.637 3.586-.956 5.379.68.071 1.354.141 2.03.24 3.301.461 6.596.958 9.891 1.457l.666-3.774c.084-.09.168-.181.252-.271 8.892 1.644 17.783 3.296 26.678 4.919 1.303.238 2.605.475 3.906.712.591-3.301 1.183-6.601 1.775-9.901.055-.062.11-.124.166-.187.933.184 1.866.366 2.797.549.348-1.538.624-3.092 1.021-4.619.05-.225.14-.435.236-.643.01-.059.103-.16.058-.189-1.183-.208-2.365-.417-3.547-.625.013-.081.028-.163.043-.243.913.151 1.83.29 2.74.464.184.033.381.095.569.146.178-.537.365-1.07.536-1.608.906-4.881 1.81-9.763 2.715-14.643-1.226-.234-2.451-.476-3.685-.669.032-.183.071-.366.107-.548l-1.999-.4c-.035.179-.073.357-.104.537-1.014-.199-2.026-.397-3.04-.597Z"/>
      <path d="M184.544 516.667v-1.711h3.913v3.423h-3.913Z"/>
      <path d="M254.804 519.439v-1.712h5.053v3.424h-5.053Z"/>
      <path d="M276.649 524.737v-1.957h1.467v1.468h3.586v2.445h-5.053Z"/>
      <path d="M271.105 531.583v-4.564h1.631v-.326h-3.423v-1.63h3.259v-.652h-.162c-.09 0-.163.074-.163.163v.163h-2.934v-7.01h2.934v5.543h.325v-1.277l.205-.095.204-.096-.204-.094-.205-.095v-3.886h1.467v-.326h-.978v-1.303h6.522v-12.879h2.119v14.182h-.816v.326h.816v3.424h-5.053v-3.424h.814v-.326h-2.445v.326h1.304v3.913h-2.608v.162c0 .091.074.164.163.164h.162v.652h.327v-.652h1.956v2.934h-1.956v-1.467h-.327v2.119h.164c.09 0 .163-.073.163-.162v-.164h1.956v1.467h-1.929l-.067-.202-.068-.203-.272.273c-.149.15-.272.314-.272.365v.093h2.608v9.129h-5.217Z"/>
      <path d="M262.14 532.643v-3.505h3.261v-.325h-3.424v-.489h-.326v.489h-13.204v-1.794h7.173v-.326h-.816v-3.913h1.467v1.468h3.586v2.445h-.814v.326h2.608v.489h.326v-.489h1.467v-.326h-3.26v-8.966h4.564v8.966h-.163c-.089 0-.163.073-.163.164v.162h4.269l-.035 1.019c-.018.561-.024 1.294-.014 1.631l.018.611h2.12v5.868h-3.75v-7.01h.163c.09 0 .164-.073.164-.163v-.162h-.978v.162c0 .09.073.163.162.163h.163v7.01h-4.564Z"/>
      <path d="M184.708 531.421v-4.728h1.63v-.325h-6.031v-2.609h5.053v-3.749h1.467v1.467h1.63v2.282h2.771v-.326h-2.445v-8.477H194v8.477h-1.631v.326h3.75v-.326h-1.794v-8.477h4.728v8.477h-1.63v.326h.815v2.609h-.815v.325h1.63v9.292h-4.401v-9.292h1.467v-.325h-3.586v.325h1.792v9.292h-5.053v-9.292h1.794v-.325h-3.423v.325h1.303v9.455h-4.238Zm13.313-11.648.011-1.495-1.167-.008-1.169-.007-.012 1.495-.011 1.494 1.167.008 1.169.007Z"/>
      <path d="M461.507 569.403v-.652h2.771v1.304h-2.771Z"/>
      <path d="M407.548 569.484v-2.037h2.772v4.075h-2.772Z"/>
      <path d="M417.167 572.338v-.653h1.304v1.304h-1.304Z"/>
      <path d="M409.016 572.338v-.653h1.304v1.304h-1.304Z"/>
      <path d="M426.459 592.469v-1.385h1.467v2.772h-1.467Z"/>
      <path d="m466.594 596.751-.374-.18.077-.202.079-.2-.312-.283-.312-.282-.098.256-.098.254-1.495-.889c-.821-.489-1.592-.948-1.709-1.02l-.215-.13.502-1.096.502-1.097.152.095.153.095.188-.352.189-.351-.162-.102-.161-.101.4-.816c.221-.448.517-1.097.659-1.442l.257-.627-.229-.145c-.356-.226-.446-.183-.717.34l-.253.489h-10.261v.325h7.825v4.566h-13.856v-4.566h5.053v-.325h-19.073v4.891h-3.75v-1.305h1.468v-1.793h-4.564v-5.053h-.327v1.467h-5.868v-1.467h-.326v2.934h-2.445v-.978h-.326v.978h-9.619v-4.402h.653v-.326h-.653v-9.292h2.772v1.305h-.489v7.987h-.489v.326h7.825v2.446h.326v-10.759h-.326v-1.305h2.771v4.728h.326V569.24h-.326v2.282h-2.771v-5.379h2.771v1.956h.326v-1.956h1.467v15.649h-1.467v-1.304h-.326v4.076h.326v-1.305h5.868v1.305h.327v-2.934h10.432v4.89h15.487v-.326h-4.891v-4.564h10.433v4.564h-4.564v.326h7.009v-.326h-2.119v-4.564h1.957v-.327h-1.141v-5.706h1.141v-.325h-2.772v-3.75h-.325v3.75h-5.055V563.86h5.055v6.358h.325v-6.358h6.847v1.794h-1.468v1.467h-1.629v3.261h3.097v4.89h-2.771v.325h1.141v5.706h-1.141v.327h5.691l-.414.825-.415.824.091.235.09.234h.494l.453-.895.452-.896 6.927 4.013c3.809 2.207 7.013 4.096 7.12 4.196l.194.184-.52.851c-.643 1.052-.287 1.112-3.235-.544-4.368-2.452-8.842-4.983-9.377-5.305l-.518-.311-.297.326c-.163.179-1.031 1.684-1.927 3.343l-1.63 3.018-.224-.036-.222-.037-.185.292-.185.292.408.315c.225.172.481.298.571.28.089-.02.582.201 1.094.491l.93.526-.271.474-.273.475.217.261c.298.36.38.333.699-.228.309-.545.428-.584.842-.28l.286.209-.58.963c-.32.531-.581 1.023-.581 1.095 0 .17-.155.153-.618-.069Zm-.843-10.242.386-.826-.167-.265c-.092-.145-.246-.291-.344-.324l-.176-.058-.191.579-.192.579h-3.724v.326h3.443l-.116.187-.116.188.301.22c.439.321.472.299.896-.606Z"/>
      <path d="m471.74 599.75-1.893-1.107.344-.544.345-.545-.501-.423-.501-.423.132-.35c.072-.193.204-.395.292-.448l.159-.099.766.329.767.327-.221.284-.223.283.245-.182.244-.182 1.667.916c1.955 1.073 1.843.826.973 2.18l-.702 1.09Z"/>
      <path d="M124.392 695.495v-1.549h.978v3.098h-.978Z"/>
      <path d="M61.7947 695.495v-1.549h.9781v3.098h-.9781Z"/>
      <path d="M82.1716 710.818v-3.504h4.4014v-1.142h-.3261v.815h-4.0753v-2.771h4.0753v.978h.3261v-1.956h-.3261v.653H58.3714v-2.12h6.8467v-.326H63.425v-2.609h4.7273v2.609h-1.6301v.326h4.7275v-6.032h.489v-.326h-.489v-.489h-.3261v1.142h-2.6082v.978h-3.9123v-1.467h1.4671v-1.794h-4.0755v-.489h9.1289v.489h.3261v-.489h1.9562v2.119h-.4891v.326h.4891v6.032h13.041v.652h.3261v-3.587h.652v-.325h-.652v-5.217h7.4986v5.217h-5.8685v.325h.6522v.816h.3259v-.816h4.8904v2.609h-4.8904v-.815h-.3259v1.141h9.7808v-.326H97.332v-.815h-.3261v.815h-2.6082v-2.609h2.6082v.816h.3261v-.816h1.6301v-.325h-4.5644v-5.217h6.8463v5.217h-1.3038v.325h4.8908v-.325h-3.261v-5.217h5.38v5.217h-.652v.325h1.793v-.325h-.815v-5.217h6.357v5.217h-4.727v.325h.652v.978h.326v-.978h3.749v2.609h-3.749v-.815h-.326v.815h-1.63v.326h6.031v-6.032h.49v-.326h-.49v-2.119h1.957v.489h.326v-.489h9.128v.489h-4.075v1.794h1.467v1.467h-3.912v-.978h-2.608v-1.305h-.326v.652h-.489v.326h.489v6.032h4.727v-.326h-1.63v-2.609h4.727v2.609h-1.793v.326h6.846v2.12h-24.288v-2.12h2.445v-.326h-7.0098v.326h1.3038v.652h.326v-.652h2.609v2.12h-2.609v-.653h-.326v.653h-4.075v.325h2.1192v.815h.326v-.815h5.5428v10.107h-5.5428v-8.314h-.326v8.314h-5.5425v-10.107h1.9562v-.325h-6.1946v10.432h-7.3357Z"/>
      <path d="M495.087 678.865v4.076h.816v.325h-5.133V699h-.38v-7.823h-2.412v2.117h-2.618v12.553h2.618v2.117h2.412v-7.823h.38v15.315h5.133v.326h-.816v4.238h4.566v-1.793h-.772v-2.445h-1.022v-.326h2.772v-4.646l-.978-4.005v-14.77l.978-4.002v-4.767h-2.772v-.325h1.022v-2.283h.772v-1.793Zm-8.802 14.918h.978v2.608h-.978Zm0 3.913h.978v2.607h-.978Zm0 5.216h.978v2.608h-.978Z"/>
    </g>
  </g>
  
  
</svg>