<svg xmlns="http://www.w3.org/2000/svg" xmlns:xlink="http://www.w3.org/1999/xlink" xml:space="preserve" id="svg283" width="605.32397" height="831.57751" version="1.1" viewBox="0 0 605.32395 831.57753">
  <style id="style_common">
    .trees { fill:#144043 }
    .cement { fill:#c6c2c2 }
    .land { fill:#1f5054 }
    .rock { fill:#dcd5b6 }
    .water { fill:#4a6b96 }
    .wood { fill:#593700 }
    .tarmac { fill:#768089 }
    .gravel { fill:#946d3e }
    .building { fill:#1a2632 }
    .floor { fill:#70777f }
    .locked { fill:#37414c }
    .map_border { fill:none;stroke:#000;stroke-width:2 }
    .fence { fill:none;stroke:#c4e3c3;stroke-width:1 }
    .road_tarmac { fill:none;stroke:#888 }
    .road_gravel { fill:none;stroke:#946d3e }
    .road_small { stroke-width:5 }
    .road_medium { stroke-width:8 }
    .road_large { stroke-width:12 }
    .railroad { fill:none;stroke:#914833;stroke-dasharray:6;stroke-width:3 }
    .powerline { fill:none;stroke:#ffce00;stroke-width:2;stroke-miterlimit:10;stroke-dasharray:6,6 }
    .danger { fill:red;fill-opacity:.4;stroke:red;stroke-dasharray:4,2;stroke-width:2 }
    .danger_small { fill:red;fill-opacity:.4;stroke:red;stroke-dasharray:2,1;stroke-width:1 }
    .task { fill:#000 }
    .stairs { fill:#FFD700 }
    .shadow { filter:drop-shadow(0 0 2px #000) }
  </style>
  <defs id="defs1">
    <path id="stairs-16" d="M381.676 148.906v-1.548h3.26v3.096h-3.26Z"/>
    <path id="stairs-17" d="M280.453 177.431v-1.06h1.141v-.489h1.467v2.608h-2.608Z"/>
    <path id="stairs-18" d="M368.473 182.076v-2.771h3.586v5.542h-3.586Z"/>
    <path id="stairs-19" d="m365.574 220.143.496-2.809 2.086.368 2.087.368-.495 2.809-.496 2.809-2.086-.368-2.087-.368Z"/>
    <path id="stairs-20" d="m477.902 232.937.227-1.285-1.124-.198-1.123-.198.212-1.204.212-1.204 2.167.382 2.167.382-.438 2.489-.439 2.488-1.044-.184-1.043-.184Z"/>
    <path id="stairs-21" d="m351.601 240.03 4.852.943-.739 4.856-4.971-.908Z"/>
    <path id="stairs-22" d="m429.204 261.087-1.519-2.05 1.587-1.105 1.586-1.105 1.523 1.899.914 1.208-1.709 1.249-1.561 1.088Z"/>
    <path id="stairs-23" d="m402.038 272.665.432-2.347 4.654.831-.408 2.306-.433 2.347-2.338-.395-2.339-.395Z"/>
    <path id="stairs-24" d="M196.834 282.077v-.734h.489v-1.141h2.119v2.608h-2.608Z"/>
    <path id="stairs-25" d="m434.84 283.122.299-1.691 1.637.335 1.637.336-.085.771-.086.771-.811-.143-.812-.143-.155.883-.156.883-.883-.156-.883-.155Z"/>
    <path id="stairs-26" d="m492.158 293.848.128-.722-.723-.127-.722-.128.141-.802.142-.803 1.445.255 1.444.255-.268 1.525-.269 1.525-.723-.128-.722-.127Z"/>
    <path id="stairs-27" d="M203.028 338.312v-1.06h2.282v2.119h-2.282Z"/>
    <path id="stairs-28" d="m367.373 350.578.184-1.044 1.846.326 1.846.325-.184 1.044-.184 1.043-1.846-.325-1.846-.326Z"/>
    <path id="stairs-29" d="M72.9542 357.464v-2.445h4.238v2.608h-.489v2.282h-3.749Z"/>
    <path id="stairs-30" d="M275.563 363.658v-.815h1.793v3.108h-1.793Z"/>
    <path id="stairs-31" d="m432.515 363.094.354-2.006 1.765.311 1.766.311-.184 1.044-.184 1.043-.802-.141-.803-.142-.17.963-.17.963-.963-.169-.963-.17Z"/>
    <path id="stairs-32" d="M272.466 364.392v-1.549h1.793v3.097h-1.793Z"/>
    <path id="stairs-33" d="M97.7302 368.222v-1.956h1.63v2.282h1.4668v1.63h-3.0968Z"/>
    <path id="stairs-34" d="M143.533 380.447v-1.467h2.119v1.63h-.978v1.304h-1.141Z"/>
    <path id="stairs-35" d="M54.0462 385.663v-1.304h.978v-2.119h3.586v4.727h-4.564Z"/>
    <path id="stairs-36" d="m438.055 395.533.24-1.365-1.445-.255-1.444-.254.184-1.044.184-1.043 2.568.453 2.568.453-.424 2.408-.425 2.407-1.123-.198-1.124-.198Z"/>
    <path id="stairs-37" d="m425.878 392.31.425-2.408 2.568.453 2.569.453-.184 1.043-.184 1.044-1.445-.255-1.445-.255-.24 1.364-.241 1.365-1.124-.198-1.123-.198Z"/>
    <path id="stairs-38" d="M110.444 401.882v-1.549h3.586v1.63h-1.793v1.467h-1.793Z"/>
    <path id="stairs-39" d="M132.775 415.248v-1.386h1.63v1.304h.978v1.467h-2.608Z"/>
    <path id="stairs-40" d="m408.637 427.465.416-2.354 2.438.43 2.438.43-.415 2.354-.415 2.354-2.438-.43-2.439-.429Z"/>
    <path id="stairs-41" d="m208.028 427.533.684-1.667 1.65.676 1.36.55-.641 1.587-.641 1.587-1.512-.611-1.511-.61Z"/>
    <path id="stairs-42" d="M275.563 429.755v-1.549h1.793v3.097h-1.793Z"/>
    <path id="stairs-43" d="M272.466 429.755v-1.549h1.793v3.097h-1.793Z"/>
    <path id="stairs-44" d="m218.979 430.578.61-1.512 1.663.672 1.206.482-.547 1.367-.672 1.662-1.435-.58-1.436-.58Z"/>
    <path id="stairs-45" d="M239.214 433.015v-1.549h3.097v1.63l-.002 1.466-1.465.001h-1.63Z"/>
    <path id="stairs-46" d="m192.755 442.334.616-1.512 1.657.672 1.36.55-.61 1.511-.611 1.511-1.511-.61-1.512-.611Z"/>
    <path id="stairs-47" d="m371.773 449.959.421-2.387 2.557.451 2.556.451-.42 2.386-.421 2.386-2.557-.45-2.556-.451Z"/>
    <path id="stairs-48" d="M110.281 452.738v-1.549h1.956v1.467h1.793v1.63h-3.749Z"/>
    <path id="stairs-49" d="M272.792 458.687v-1.467h3.097v1.467h-1.467v1.467h-1.63Z"/>
    <path id="stairs-50" d="M103.761 474.906v-2.96h1.63v3.367h3.097v1.304h-4.727Z"/>
    <path id="stairs-51" d="m138.031 483.918.108-.22-.66-.322-.659-.321.286-.586.286-.586 1.318.643 1.319.643-.393.806-.393.805-.66-.321-.659-.322Z"/>
    <path id="stairs-52" d="M216.394 520.709v-.734h-1.467v-1.63h3.097v3.097h-1.63Z"/>
    <path id="stairs-53" d="M186.891 520.709v-.734h-1.467v-1.63h3.097v3.097h-1.63Z"/>
    <path id="stairs-54" d="M276.704 521.931v-.815h1.467v1.63h-1.467Z"/>
    <path id="stairs-55" d="M254.862 521.931v-.815h1.467v1.63h-1.467Z"/>
    <path id="stairs-56" d="M280.29 522.665v-1.549h1.467v3.097h-1.467Z"/>
    <path id="stairs-57" d="M258.448 522.665v-1.549h1.467v3.097h-1.467Z"/>
    <path id="stairs-58" d="M131.634 526.251v-1.549h1.467v3.097h-1.467Z"/>
    <path id="stairs-59" d="M502.785 526.414v-1.549h1.467v3.097h-1.467Z"/>
    <path id="stairs-60" d="m567.588 538.539.684-1.389 1.097.539 1.097.54-.684 1.389-.684 1.39-1.097-.54-1.097-.54Z"/>
    <path id="stairs-61" d="M437.748 547.767v-.408h2.119v.815h-2.119Z"/>
    <path id="stairs-62" d="M519.612 545.516c.075-.738.294-1.472.624-2.136.315-.633.762-1.206 1.265-1.703.457-.452.943-.961 1.563-1.131.811-.222 1.703.003 2.513.23.68.192 1.902.936 1.902.936l-.468.951-.468.95s-1.483-.826-2.302-.86c-.365-.015-1.055.298-1.055.298l4.363 1.906-.841 1.644-.826 1.69-4.135-2.314s.115.814.353 1.127c.497.653 2.068 1.336 2.068 1.336l-.432.877-.431.878s-1.327-.526-1.902-.936c-.618-.441-1.297-.916-1.617-1.604-.302-.649-.247-1.427-.174-2.139Z"/>
    <path id="stairs-63" d="M470.185 561.051v-1.467h3.097v1.467h-1.467v1.467h-1.63Z"/>
    <path id="stairs-64" d="M461.506 569.161v-2.123h1.304v-1.467h1.467v4.405h-2.771Z"/>
    <path id="stairs-65" d="m498.861 568.922.72-1.463 1.608.792 1.609.791-.36.732-.36.731-.804-.396-.804-.396-.36.732-.36.731-.804-.396-.805-.396Z"/>
    <path id="stairs-66" d="M452.092 570.75v-1.223h1.304v2.445h-1.304Z"/>
    <path id="stairs-67" d="M221.773 572.706v-1.549h2.608v1.467h2.445v1.63h-5.053Z"/>
    <path id="stairs-68" d="M417.21 573.765v-.815h1.304v-1.467h1.467v3.097h-2.771Z"/>
    <path id="stairs-69" d="M407.593 573.032v-1.549h1.467v1.467h1.304v1.63h-2.771Z"/>
    <path id="stairs-70" d="m548.44 584.083.324-.658.731.36.732.36.323-.659.324-.658.805.396.804.396-.648 1.316-.647 1.316-1.536-.755-1.536-.756Z"/>
    <path id="stairs-71" d="M212.971 585.746v-1.549h3.097v1.467h-1.467v1.63h-1.63Z"/>
    <path id="stairs-72" d="M110.444 592.184v-1.304h2.934v1.467h-1.467v1.141h-1.467Z"/>
    <path id="stairs-73" d="M427.968 592.429v-1.386h2.934v1.467h-1.304v1.304h-1.63Z"/>
    <path id="stairs-74" d="m493.214 594.013 1.583-3.218 2.414 1.188 2.413 1.187-.053.111-.052.11-1.181 1.012-1.182 1.013-.315-.282c-.106-.093-.197-.205-.316-.281-.138-.088-.296-.138-.449-.195-.129-.048-.257-.119-.395-.123-.159-.004-.316.055-.464.115-.147.06-.3.127-.41.241-.173.18-.238.439-.352.661-.121.236-.352.715-.352.715l1.17.576 1.17.575-.431.878-.598 1.099-1.975-.971-1.974-.972Z"/>
    <path id="stairs-75" d="m467.985 597.544-2.084-1.428.768-1.232.831-1.233 1.954 1.163 1.89 1.163-.839 1.597-.694 1.128Z"/>
    <path id="stairs-76" d="M214.438 601.72v-.734h1.956v1.467h-1.956Z"/>
    <path id="stairs-77" d="M263.501 603.105v-2.725h1.63v-1.024h1.793v5.053h-3.423Z"/>
    <path id="stairs-78" d="M221.936 612.478v-1.712h5.053v1.793h-2.445v1.63h-2.608Z"/>
    <path id="stairs-79" d="M258.285 632.066v-1.549h3.097v1.63h-1.467v1.467h-1.63Z"/>
    <path id="stairs-80" d="M112.074 641.981v-1.549h3.097v1.63h-1.467v1.467h-1.63Z"/>
    <path id="stairs-81" d="M171.895 665.127v-1.549h1.63v1.467h1.467v1.63h-3.097Z"/>
    <path id="stairs-82" d="M60.8922 671.321v-.734h-1.467v-1.63h3.097v3.097h-1.63Z"/>
    <path id="stairs-88" d="M122.832 696.26v-.734h-1.467v-1.63h3.097v3.097h-1.63Z"/>
    <path id="stairs-89" d="M62.8482 695.445v-1.549h3.097v1.63h-1.467v1.467h-1.63Z"/>
    <path id="stairs-94" d="m184.534 751.779-.489-.847 1.624-.937 1.623-.937.489.847.489.847-1.623.937-1.624.937Z"/>
    <path id="stairs-95" d="M501.481 761.786v-1.549h1.467v1.467h1.467v1.63h-2.934Z"/>
    <path id="stairs-96" d="M492.842 785.013v-2.282h1.304v4.564h-1.304Z"/>
    <path id="stairs-97" d="M375.84 755.417v3.763h3.878v-1.651h-2.112v-2.112Z"/>
    <path id="cinema-1" d="M485.344 690.31v-2.282h5.053v3.097h-2.445v1.467h-2.608Z"/>
    <path id="cinema-2" d="M485.344 708.729v-2.282h2.608v1.467h2.445v3.097h-5.053Z"/>
    <path id="cinema-3" d="M499.199 681.373h3.097v1.793h-3.097Z"/>
    <path id="cinema-4" d="M499.199 716.747v-.978h3.097v1.956h-3.097Z"/>
  </defs>
  
  <g id="Underground_Level" class="shadow">
    <g id="Stairs-U" class="stairs">
      <use xlink:href="#stairs-80" x="0" y="0"/>
      <use xlink:href="#stairs-81" x="0" y="0"/>
      <use xlink:href="#stairs-82" x="0" y="0"/>
      <use xlink:href="#stairs-88" x="0" y="0"/>
      <use xlink:href="#stairs-89" x="0" y="0"/>
      <path d="M297.512 278.561h-5.038v3.561h5.038Z"/>
      <path d="M294.762 321.385h-5.009v3.417h5.009Z"/>
      <path d="m335.386 327.929.723-3.445 4.962 1.042-.724 3.446Z"/>
      <path d="m333.71 289.314-.676 3.484 4.975.964.676-3.483Z"/>
    </g>
    <g id="Floor-U" class="floor">
      <path d="m328.042 326.505-5.746-.011-5.828-.011v-2.608h-3.424v2.608h-2.445v-2.608h-3.423v2.608h-8.151v-1.68h-4.217v-3.423h4.217v-39.236h-1.465v-3.587h30.482v9.53l5.654 1.201-.618 3.524-5.036-1.023v30.904l8.005 1.764-.586 3.542Zm-23.8-6.519v-.815h-1.63v1.629h1.63Zm19.888 0v-.815h-1.631v1.629h1.631Zm-5.054-7.58v-7.744h-11.248v15.487h11.248Zm-14.834 1.874v-.815h-1.63v1.631h1.63Zm19.888 0v-.815h-1.631v1.631h1.631Zm-19.888-5.706v-.814h-1.63v1.63h1.63Zm19.888 0v-.814h-1.631v1.63h1.631Zm-19.888-5.704v-.816h-1.63v1.63h1.63Zm19.888 0v-.816h-1.631v1.63h1.631Zm-5.054-11.33v-7.743h-11.248v15.485h11.248Zm-14.834 5.624v-.816h-1.63v1.631h1.63Zm19.888 0v-.816h-1.631v1.631h1.631Zm-19.888-5.706v-.815h-1.63v1.63h1.63Zm19.888 0v-.815h-1.631v1.63h1.631Zm-19.888-5.705v-.815h-1.63v1.629h1.63Zm19.888 0v-.815h-1.631v1.629h1.631Z"/>
      <path d="M171.873 666.963v-.245h3.098v-1.631h-1.467v-1.467h-1.631v-2.281h3.75v5.868h-3.75Z"/>
      <path d="M110.58 709.101v-3.748h1.304v-.327h-1.304v-6.031h-.326v9.944h-7.173v-9.944h-.326v6.358H63.1428v-3.098h7.9877v-9.128h-7.4987v.325h3.2604v4.076h-5.8686v-4.076h.9781v-.325H48.4715v-22.985h5.2165v6.846h9.2918v-7.01h-.3261v4.076h-3.9123v-6.032h4.2384v-8.639h4.8905v-1.305h.978v-.326h-1.3041v1.304h-4.5644v-6.684h7.9877v5.38h-.9781v.326h1.3042v-5.706h38.7974v-5.704h5.542v-5.38h-.325v3.749h-3.587v-5.869h3.587v.978h.325v-.978h5.706v13.204h44.014v5.544h4.239v-.327h-3.912v-5.217h5.868v5.217h-.815v.327h.815v6.846h.325v1.467h-.325v21.192h-45.156v5.379h-.814v.327h.814v3.748h-1.956v-2.934h-3.097v1.631h1.467v1.303h-2.282v-3.748h3.587v-.327h-5.869v9.944h3.423v2.282h-8.151v.327h8.151v7.498H110.58Zm-46.133-12.796v-.733h1.4671v-1.631h-3.0974v3.098h1.6303Zm63.087-26.49v-5.868H115.96v11.737h11.574Zm37.982-.082v-5.46h-5.705v10.922h5.705Zm-103.0252.816V669h-3.0974v1.631h1.4671v1.467h1.6303Zm51.1862-27.713v-.734h1.467v-1.629h-3.097v3.096h1.63Z"/>
    </g>
  </g>
  
  
  
  
  
</svg>