<svg xmlns="http://www.w3.org/2000/svg" xmlns:xlink="http://www.w3.org/1999/xlink" xml:space="preserve" id="svg283" width="605.32397" height="831.57751" version="1.1" viewBox="0 0 605.32395 831.57753">
  <style id="style_common">
    .trees { fill:#144043 }
    .cement { fill:#c6c2c2 }
    .land { fill:#1f5054 }
    .rock { fill:#dcd5b6 }
    .water { fill:#4a6b96 }
    .wood { fill:#593700 }
    .tarmac { fill:#768089 }
    .gravel { fill:#946d3e }
    .building { fill:#1a2632 }
    .floor { fill:#70777f }
    .locked { fill:#37414c }
    .map_border { fill:none;stroke:#000;stroke-width:2 }
    .fence { fill:none;stroke:#c4e3c3;stroke-width:1 }
    .road_tarmac { fill:none;stroke:#888 }
    .road_gravel { fill:none;stroke:#946d3e }
    .road_small { stroke-width:5 }
    .road_medium { stroke-width:8 }
    .road_large { stroke-width:12 }
    .railroad { fill:none;stroke:#914833;stroke-dasharray:6;stroke-width:3 }
    .powerline { fill:none;stroke:#ffce00;stroke-width:2;stroke-miterlimit:10;stroke-dasharray:6,6 }
    .danger { fill:red;fill-opacity:.4;stroke:red;stroke-dasharray:4,2;stroke-width:2 }
    .danger_small { fill:red;fill-opacity:.4;stroke:red;stroke-dasharray:2,1;stroke-width:1 }
    .task { fill:#000 }
    .stairs { fill:#FFD700 }
    .shadow { filter:drop-shadow(0 0 2px #000) }
  </style>
  <defs id="defs1">
    <path id="stairs-16" d="M381.676 148.906v-1.548h3.26v3.096h-3.26Z"/>
    <path id="stairs-17" d="M280.453 177.431v-1.06h1.141v-.489h1.467v2.608h-2.608Z"/>
    <path id="stairs-18" d="M368.473 182.076v-2.771h3.586v5.542h-3.586Z"/>
    <path id="stairs-19" d="m365.574 220.143.496-2.809 2.086.368 2.087.368-.495 2.809-.496 2.809-2.086-.368-2.087-.368Z"/>
    <path id="stairs-20" d="m477.902 232.937.227-1.285-1.124-.198-1.123-.198.212-1.204.212-1.204 2.167.382 2.167.382-.438 2.489-.439 2.488-1.044-.184-1.043-.184Z"/>
    <path id="stairs-21" d="m351.601 240.03 4.852.943-.739 4.856-4.971-.908Z"/>
    <path id="stairs-22" d="m429.204 261.087-1.519-2.05 1.587-1.105 1.586-1.105 1.523 1.899.914 1.208-1.709 1.249-1.561 1.088Z"/>
    <path id="stairs-23" d="m402.038 272.665.432-2.347 4.654.831-.408 2.306-.433 2.347-2.338-.395-2.339-.395Z"/>
    <path id="stairs-24" d="M196.834 282.077v-.734h.489v-1.141h2.119v2.608h-2.608Z"/>
    <path id="stairs-25" d="m434.84 283.122.299-1.691 1.637.335 1.637.336-.085.771-.086.771-.811-.143-.812-.143-.155.883-.156.883-.883-.156-.883-.155Z"/>
    <path id="stairs-26" d="m492.158 293.848.128-.722-.723-.127-.722-.128.141-.802.142-.803 1.445.255 1.444.255-.268 1.525-.269 1.525-.723-.128-.722-.127Z"/>
    <path id="stairs-27" d="M203.028 338.312v-1.06h2.282v2.119h-2.282Z"/>
    <path id="stairs-28" d="m367.373 350.578.184-1.044 1.846.326 1.846.325-.184 1.044-.184 1.043-1.846-.325-1.846-.326Z"/>
    <path id="stairs-29" d="M72.9542 357.464v-2.445h4.238v2.608h-.489v2.282h-3.749Z"/>
    <path id="stairs-30" d="M275.563 363.658v-.815h1.793v3.108h-1.793Z"/>
    <path id="stairs-31" d="m432.515 363.094.354-2.006 1.765.311 1.766.311-.184 1.044-.184 1.043-.802-.141-.803-.142-.17.963-.17.963-.963-.169-.963-.17Z"/>
    <path id="stairs-32" d="M272.466 364.392v-1.549h1.793v3.097h-1.793Z"/>
    <path id="stairs-33" d="M97.7302 368.222v-1.956h1.63v2.282h1.4668v1.63h-3.0968Z"/>
    <path id="stairs-34" d="M143.533 380.447v-1.467h2.119v1.63h-.978v1.304h-1.141Z"/>
    <path id="stairs-35" d="M54.0462 385.663v-1.304h.978v-2.119h3.586v4.727h-4.564Z"/>
    <path id="stairs-36" d="m438.055 395.533.24-1.365-1.445-.255-1.444-.254.184-1.044.184-1.043 2.568.453 2.568.453-.424 2.408-.425 2.407-1.123-.198-1.124-.198Z"/>
    <path id="stairs-37" d="m425.878 392.31.425-2.408 2.568.453 2.569.453-.184 1.043-.184 1.044-1.445-.255-1.445-.255-.24 1.364-.241 1.365-1.124-.198-1.123-.198Z"/>
    <path id="stairs-38" d="M110.444 401.882v-1.549h3.586v1.63h-1.793v1.467h-1.793Z"/>
    <path id="stairs-39" d="M132.775 415.248v-1.386h1.63v1.304h.978v1.467h-2.608Z"/>
    <path id="stairs-40" d="m408.637 427.465.416-2.354 2.438.43 2.438.43-.415 2.354-.415 2.354-2.438-.43-2.439-.429Z"/>
    <path id="stairs-41" d="m208.028 427.533.684-1.667 1.65.676 1.36.55-.641 1.587-.641 1.587-1.512-.611-1.511-.61Z"/>
    <path id="stairs-42" d="M275.563 429.755v-1.549h1.793v3.097h-1.793Z"/>
    <path id="stairs-43" d="M272.466 429.755v-1.549h1.793v3.097h-1.793Z"/>
    <path id="stairs-44" d="m218.979 430.578.61-1.512 1.663.672 1.206.482-.547 1.367-.672 1.662-1.435-.58-1.436-.58Z"/>
    <path id="stairs-45" d="M239.214 433.015v-1.549h3.097v1.63l-.002 1.466-1.465.001h-1.63Z"/>
    <path id="stairs-46" d="m192.755 442.334.616-1.512 1.657.672 1.36.55-.61 1.511-.611 1.511-1.511-.61-1.512-.611Z"/>
    <path id="stairs-47" d="m371.773 449.959.421-2.387 2.557.451 2.556.451-.42 2.386-.421 2.386-2.557-.45-2.556-.451Z"/>
    <path id="stairs-48" d="M110.281 452.738v-1.549h1.956v1.467h1.793v1.63h-3.749Z"/>
    <path id="stairs-49" d="M272.792 458.687v-1.467h3.097v1.467h-1.467v1.467h-1.63Z"/>
    <path id="stairs-50" d="M103.761 474.906v-2.96h1.63v3.367h3.097v1.304h-4.727Z"/>
    <path id="stairs-51" d="m138.031 483.918.108-.22-.66-.322-.659-.321.286-.586.286-.586 1.318.643 1.319.643-.393.806-.393.805-.66-.321-.659-.322Z"/>
    <path id="stairs-52" d="M216.394 520.709v-.734h-1.467v-1.63h3.097v3.097h-1.63Z"/>
    <path id="stairs-53" d="M186.891 520.709v-.734h-1.467v-1.63h3.097v3.097h-1.63Z"/>
    <path id="stairs-54" d="M276.704 521.931v-.815h1.467v1.63h-1.467Z"/>
    <path id="stairs-55" d="M254.862 521.931v-.815h1.467v1.63h-1.467Z"/>
    <path id="stairs-56" d="M280.29 522.665v-1.549h1.467v3.097h-1.467Z"/>
    <path id="stairs-57" d="M258.448 522.665v-1.549h1.467v3.097h-1.467Z"/>
    <path id="stairs-58" d="M131.634 526.251v-1.549h1.467v3.097h-1.467Z"/>
    <path id="stairs-59" d="M502.785 526.414v-1.549h1.467v3.097h-1.467Z"/>
    <path id="stairs-60" d="m567.588 538.539.684-1.389 1.097.539 1.097.54-.684 1.389-.684 1.39-1.097-.54-1.097-.54Z"/>
    <path id="stairs-61" d="M437.748 547.767v-.408h2.119v.815h-2.119Z"/>
    <path id="stairs-62" d="M519.612 545.516c.075-.738.294-1.472.624-2.136.315-.633.762-1.206 1.265-1.703.457-.452.943-.961 1.563-1.131.811-.222 1.703.003 2.513.23.68.192 1.902.936 1.902.936l-.468.951-.468.95s-1.483-.826-2.302-.86c-.365-.015-1.055.298-1.055.298l4.363 1.906-.841 1.644-.826 1.69-4.135-2.314s.115.814.353 1.127c.497.653 2.068 1.336 2.068 1.336l-.432.877-.431.878s-1.327-.526-1.902-.936c-.618-.441-1.297-.916-1.617-1.604-.302-.649-.247-1.427-.174-2.139Z"/>
    <path id="stairs-63" d="M470.185 561.051v-1.467h3.097v1.467h-1.467v1.467h-1.63Z"/>
    <path id="stairs-64" d="M461.506 569.161v-2.123h1.304v-1.467h1.467v4.405h-2.771Z"/>
    <path id="stairs-65" d="m498.861 568.922.72-1.463 1.608.792 1.609.791-.36.732-.36.731-.804-.396-.804-.396-.36.732-.36.731-.804-.396-.805-.396Z"/>
    <path id="stairs-66" d="M452.092 570.75v-1.223h1.304v2.445h-1.304Z"/>
    <path id="stairs-67" d="M221.773 572.706v-1.549h2.608v1.467h2.445v1.63h-5.053Z"/>
    <path id="stairs-68" d="M417.21 573.765v-.815h1.304v-1.467h1.467v3.097h-2.771Z"/>
    <path id="stairs-69" d="M407.593 573.032v-1.549h1.467v1.467h1.304v1.63h-2.771Z"/>
    <path id="stairs-70" d="m548.44 584.083.324-.658.731.36.732.36.323-.659.324-.658.805.396.804.396-.648 1.316-.647 1.316-1.536-.755-1.536-.756Z"/>
    <path id="stairs-71" d="M212.971 585.746v-1.549h3.097v1.467h-1.467v1.63h-1.63Z"/>
    <path id="stairs-72" d="M110.444 592.184v-1.304h2.934v1.467h-1.467v1.141h-1.467Z"/>
    <path id="stairs-73" d="M427.968 592.429v-1.386h2.934v1.467h-1.304v1.304h-1.63Z"/>
    <path id="stairs-74" d="m493.214 594.013 1.583-3.218 2.414 1.188 2.413 1.187-.053.111-.052.11-1.181 1.012-1.182 1.013-.315-.282c-.106-.093-.197-.205-.316-.281-.138-.088-.296-.138-.449-.195-.129-.048-.257-.119-.395-.123-.159-.004-.316.055-.464.115-.147.06-.3.127-.41.241-.173.18-.238.439-.352.661-.121.236-.352.715-.352.715l1.17.576 1.17.575-.431.878-.598 1.099-1.975-.971-1.974-.972Z"/>
    <path id="stairs-75" d="m467.985 597.544-2.084-1.428.768-1.232.831-1.233 1.954 1.163 1.89 1.163-.839 1.597-.694 1.128Z"/>
    <path id="stairs-76" d="M214.438 601.72v-.734h1.956v1.467h-1.956Z"/>
    <path id="stairs-77" d="M263.501 603.105v-2.725h1.63v-1.024h1.793v5.053h-3.423Z"/>
    <path id="stairs-78" d="M221.936 612.478v-1.712h5.053v1.793h-2.445v1.63h-2.608Z"/>
    <path id="stairs-79" d="M258.285 632.066v-1.549h3.097v1.63h-1.467v1.467h-1.63Z"/>
    <path id="stairs-80" d="M112.074 641.981v-1.549h3.097v1.63h-1.467v1.467h-1.63Z"/>
    <path id="stairs-81" d="M171.895 665.127v-1.549h1.63v1.467h1.467v1.63h-3.097Z"/>
    <path id="stairs-82" d="M60.8922 671.321v-.734h-1.467v-1.63h3.097v3.097h-1.63Z"/>
    <path id="stairs-88" d="M122.832 696.26v-.734h-1.467v-1.63h3.097v3.097h-1.63Z"/>
    <path id="stairs-89" d="M62.8482 695.445v-1.549h3.097v1.63h-1.467v1.467h-1.63Z"/>
    <path id="stairs-94" d="m184.534 751.779-.489-.847 1.624-.937 1.623-.937.489.847.489.847-1.623.937-1.624.937Z"/>
    <path id="stairs-95" d="M501.481 761.786v-1.549h1.467v1.467h1.467v1.63h-2.934Z"/>
    <path id="stairs-96" d="M492.842 785.013v-2.282h1.304v4.564h-1.304Z"/>
    <path id="stairs-97" d="M375.84 755.417v3.763h3.878v-1.651h-2.112v-2.112Z"/>
    <path id="cinema-1" d="M485.344 690.31v-2.282h5.053v3.097h-2.445v1.467h-2.608Z"/>
    <path id="cinema-2" d="M485.344 708.729v-2.282h2.608v1.467h2.445v3.097h-5.053Z"/>
    <path id="cinema-3" d="M499.199 681.373h3.097v1.793h-3.097Z"/>
    <path id="cinema-4" d="M499.199 716.747v-.978h3.097v1.956h-3.097Z"/>
  </defs>
  
  
  
  <g id="Second_Floor" class="shadow">
    <g id="Stairs-2" class="stairs">
      <use xlink:href="#stairs-16" x="0" y="0"/>
      <use xlink:href="#stairs-17" x="0" y="0"/>
      <use xlink:href="#stairs-19" x="0" y="0"/>
      <use xlink:href="#stairs-20" x="0" y="0"/>
      <use xlink:href="#stairs-21" x="0" y="0"/>
      <use xlink:href="#stairs-22" x="0" y="0"/>
      <use xlink:href="#stairs-23" x="0" y="0"/>
      <use xlink:href="#stairs-24" x="0" y="0"/>
      <use xlink:href="#stairs-25" x="0" y="0"/>
      <use xlink:href="#stairs-26" x="0" y="0"/>
      <use xlink:href="#stairs-28" x="0" y="0"/>
      <use xlink:href="#stairs-29" x="0" y="0"/>
      <use xlink:href="#stairs-30" x="0" y="0"/>
      <use xlink:href="#stairs-31" x="0" y="0"/>
      <use xlink:href="#stairs-32" x="0" y="0"/>
      <use xlink:href="#stairs-34" x="0" y="0"/>
      <use xlink:href="#stairs-36" x="0" y="0"/>
      <use xlink:href="#stairs-37" x="0" y="0"/>
      <use xlink:href="#stairs-38" x="0" y="0"/>
      <use xlink:href="#stairs-39" x="0" y="0"/>
      <use xlink:href="#stairs-40" x="0" y="0"/>
      <use xlink:href="#stairs-41" x="0" y="0"/>
      <use xlink:href="#stairs-42" x="0" y="0"/>
      <use xlink:href="#stairs-43" x="0" y="0"/>
      <use xlink:href="#stairs-44" x="0" y="0"/>
      <use xlink:href="#stairs-45" x="0" y="0"/>
      <use xlink:href="#stairs-46" x="0" y="0"/>
      <use xlink:href="#stairs-47" x="0" y="0"/>
      <use xlink:href="#stairs-49" x="0" y="0"/>
      <use xlink:href="#stairs-50" x="0" y="0"/>
      <use xlink:href="#stairs-52" x="0" y="0"/>
      <use xlink:href="#stairs-53" x="0" y="0"/>
      <use xlink:href="#stairs-54" x="0" y="0"/>
      <use xlink:href="#stairs-55" x="0" y="0"/>
      <use xlink:href="#stairs-56" x="0" y="0"/>
      <use xlink:href="#stairs-57" x="0" y="0"/>
      <use xlink:href="#stairs-59" x="0" y="0"/>
      <use xlink:href="#stairs-62" x="0" y="0"/>
      <use xlink:href="#stairs-64" x="0" y="0"/>
      <use xlink:href="#stairs-65" x="0" y="0"/>
      <use xlink:href="#stairs-66" x="0" y="0"/>
      <use xlink:href="#stairs-67" x="0" y="0"/>
      <use xlink:href="#stairs-68" x="0" y="0"/>
      <use xlink:href="#stairs-69" x="0" y="0"/>
      <use xlink:href="#stairs-70" x="0" y="0"/>
      <use xlink:href="#stairs-71" x="0" y="0"/>
      <use xlink:href="#stairs-72" x="0" y="0"/>
      <use xlink:href="#stairs-73" x="0" y="0"/>
      <use xlink:href="#stairs-74" x="0" y="0"/>
      <use xlink:href="#stairs-75" x="0" y="0"/>
      <use xlink:href="#stairs-77" x="0" y="0"/>
      <use xlink:href="#stairs-78" x="0" y="0"/>
      <use xlink:href="#stairs-79" x="0" y="0"/>
      <use xlink:href="#stairs-81" x="0" y="0"/>
      <use xlink:href="#stairs-82" x="0" y="0"/>
      <use xlink:href="#stairs-85" x="0" y="0"/>
      <use xlink:href="#stairs-87" x="0" y="0"/>
      <use xlink:href="#stairs-88" x="0" y="0"/>
      <use xlink:href="#stairs-89" x="0" y="0"/>
      <use xlink:href="#stairs-90" x="0" y="0"/>
      <use xlink:href="#stairs-92" x="0" y="0"/>
      <use xlink:href="#stairs-94" x="0" y="0"/>
      <use xlink:href="#stairs-95" x="0" y="0"/>
      <use xlink:href="#stairs-96" x="0" y="0"/>
      <path d="M512.412 673.154v-1.712h5.542v3.424h-5.542Z"/>
      <path d="M503.446 673.154v-1.712h7.661v3.424h-7.661Z"/>
      <use xlink:href="#cinema-1" x="0" y="0"/>
      <use xlink:href="#cinema-2" x="0" y="0"/>
      <use xlink:href="#cinema-3" x="0" y="0"/>
      <use xlink:href="#cinema-4" x="0" y="0"/>
      <path d="M515.835 714.234v-1.223h1.793v2.445h-1.793Z"/>
      <path d="M515.835 684.728v-1.223h1.793v2.446h-1.793Z"/>
      <path d="M480.298 727.112v-3.016h6.683v6.031h-6.683Z"/>
      <path d="M447.65 692.937h4.542v13.187h-4.542Z"/>
      <use xlink:href="#stairs-97" x="0" y="0"/>
    </g>
    <g id="Floor-2" class="floor">
      <path d="M381.82 146.242v-1.141h2.934v2.282h-2.934Z"/>
      <path d="M381.82 152.192v-1.712h2.934v.815h.325v-2.608h.489v-.326h-.489v-1.63h.489v-.326h-.489v-3.097h2.772v3.097h-1.305v.326h1.631v-1.304h.652v-.326h-.652v-1.793h6.194v1.793h-4.564v.326h.652v.978h.326v-.978h3.586v2.934h-3.586v-.978h-.326v.978h-.814v.326h4.726v5.217h-6.52v-5.217h.815v-.326h-2.12v.326h.979v5.217h-2.446v-1.63h-.325v1.63h-2.934Z"/>
      <path d="M279.446 177.541v-2.771h-1.792v-.816h-5.217v6.195h-2.935v-6.195h-1.467V140.21h2.608v23.474h.326v-6.194h.979v-.326h-.979v-4.401h4.565v4.401h-2.282v.326h2.608v-4.727h7.987v7.009h-9.943v3.097h.326v-2.771h9.617v6.847h-8.639v.326h8.639v4.238h-9.617v-7.335h-.326v4.238h-.816v.326h.816v2.771h-2.935v-2.771h.816v-.326h-.816v-3.423h-.326v6.846h13.204v8.477h-4.401Zm3.587-.326v-1.304h-1.467v.489h-1.142v2.119h2.609Z"/>
      <path d="M364.414 216.988c-.135.45-.203.916-.299 1.375-.275 1.417-.535 2.837-.801 4.257.499.077.999.153 1.499.23.17-.23.339-.46.509-.69.291-1.647.581-3.293.87-4.939-.581-.115-1.165-.228-1.748-.342-.01.036-.019.073-.03.109Z"/>
      <path d="M367.863 213.287c.029.196.056.394.03.592-.063.887-.263 1.755-.303 2.646-.02.218.041.431.072.646 2.475.428 4.95.857 7.425 1.286-.066.622-.144 1.241-.22 1.863-.071-.012-.142-.024-.214-.038-.016-.223-.032-.447-.048-.672l.253-.283c-.04-.206-.08-.412-.119-.618-1.595-.287-3.189-.574-4.782-.861-.298 1.863-.596 3.727-.89 5.59.043.129.199.132.309.165 1.088.233 2.191.381 3.289.555.377.057.753.116 1.13.174.085-.487.172-.974.258-1.459.055-.004.166-.111.166-.016.032.228.002.457-.011.679-.029.33-.073.659-.11.988-.285.057-.574-.005-.857-.032-.992-.125-1.973-.308-2.959-.467-.165 1.078-.345 2.155-.496 3.236-.031.299-.092.609-.019.906.049.202.246.313.432.365.292.088.599.126.897.189 2.183.398 4.368.781 6.556 1.14.34.055.681.109 1.025.145.09-.736.199-1.47.32-2.201.648-4.05 1.325-8.099 1.99-12.146-.068-.098-.137-.196-.205-.295-4.123-.717-8.244-1.441-12.367-2.15-.189-.036-.38-.062-.572-.082.006.052.013.103.02.155Z"/>
      <path d="m427.226 258.713-.171-.28.263-.235c.144-.13.324-.268.4-.306.076-.038.76-.494 1.521-1.012l1.381-.944.225.357.225.358-1.73 1.196c-1.859 1.286-1.857 1.285-2.114.866Z"/>
      <path d="m344.605 219.293-.022.118c-.424 2.139-.813 4.286-1.214 6.429-.453 2.439-.904 4.88-1.355 7.319l.249.357c3.134.578 6.268 1.155 9.4 1.734.128-.288.257-.576.386-.864-.017-.237-.034-.474-.051-.712.079.014.158.028.237.041.005.257.012.51-.014.759-.029.335-.084.641-.145.972-.238 1.359-.464 2.719-.694 4.079 1.447.254 2.895.51 4.343.765.134-.969.27-1.939.405-2.908.087.016.174.03.261.046-.14.981-.241 1.966-.378 2.947-.022.133-.037.272-.114.387-.205-.036-.409-.072-.613-.109-.129.213-.241.433-.316.67-.077.214-.138.434-.205.652-.562-.065-1.123-.131-1.685-.195-.082.352-.172.704-.205 1.065-.068.243-.241.431-.392.625l-1.562-.275c-.114.648-.227 1.296-.342 1.944 1.528.253 3.055.506 4.583.761-.017.096-.034.191-.051.288-1.37-.249-2.74-.499-4.109-.747-.166.065-.329.131-.494.196-.171.86-.354 1.719-.52 2.581-.094.617-.226 1.228-.301 1.848-.024.267-.046.58.151.791.208.209.517.247.792.305.625.103 1.243.209 1.866.329.401.074.803.149 1.205.225-.013.072-.026.144-.039.217-.54-.067-1.083-.176-1.629-.269-.846-.154-1.692-.312-2.538-.467-.258 1.609-.516 3.218-.772 4.827 2.513.408 5.023.836 7.543 1.212.35.047.702.086 1.053.129.203-1.22.406-2.44.61-3.661.061-.02.15-.092.136.023.028.186.066.37.086.556-.426 2.256-.842 4.516-1.282 6.768-.027.049-.113.025-.162.021-.107.01-.108-.052-.078-.138.209-1.053.417-2.105.625-3.158-2.762-.5-5.524-.999-8.286-1.496-.116.135-.25.263-.357.404-.181 1.152-.359 2.305-.551 3.455-.037.293-.103.602.005.887.104.254.39.347.636.402.542.112 1.093.187 1.637.293.469.086.939.172 1.408.258.014.074.028.147.043.22-.676-.086-1.346-.215-2.017-.328-.646-.114-1.293-.23-1.939-.344l-.639 3.873c.196.088.388.192.602.229 1.518.347 3.054.61 4.582.907 1.053.198 3.151.621 3.151.621s.386-1.94.528-2.919c.01-.071.012-.143.018-.216.158.032.195.215.25.341-.157.943-.468 2.827-.468 2.827l10.741 1.945s.386-2.006.57-3.011c.017-.1.036-.2.054-.302.094-.011.108.059.111.137.03.185.092.553.092.553l-.505 2.604.07.156 3.463.684s3.825.626 5.738.997c.089-.425.158-.832.237-1.239l.348.067-.219 1.148 7.716 1.477 1.725-9.015-7.716-1.476-1.146 5.988-.349-.067c.009-.054.02-.103.03-.158.064-.358.118-.718.158-1.08-.209-.017-.423-.023-.62-.058-1.19-.191-2.368-.424-3.553-.642.015-.083.028-.165.043-.247.926.128 1.845.312 2.763.479.401.075.802.149 1.202.225.115-.255.239-.51.282-.79.06-.332.111-.675.062-1.012-.018-.089-.078-.165-.067-.262-.007-.241.061-.474.096-.71-.273-.419-.547-.839-.82-1.259-1.408-.269-2.823-.514-4.224-.817-.333-.081-.677-.136-1-.257-.601-.239-1.21-.468-1.79-.758-.22-.1-.435-.22-.669-.286-.073-.013-.145-.026-.217-.039-.127.946-.254 1.894-.38 2.84-.056-.041-.127-.063-.18-.105-.034-.208.019-.419.04-.627.167-1.116.365-2.234.548-3.35l.509-3.049c.057.025.172-.002.193.057.046.291-.026.582-.061.871-.154.985-.365 1.957-.552 2.936 3.01.497 6.018 1.005 9.03 1.485.082.008.17.034.251.027.12-.057.122-.211.159-.322.253-1.085.417-2.186.61-3.282.05-.292.1-.584.149-.876-.072-.104-.145-.208-.217-.312-1.23-.209-2.46-.417-3.69-.626-.031-.076-.06-.15-.091-.226.057-.035.107-.098.177-.06 1.279.227 2.558.456 3.837.685.132-.37.187-.758.268-1.141.239-1.213.465-2.428.696-3.643-.3-.108-.595-.232-.909-.289-1-.225-2.015-.368-3.023-.538.019-.108.038-.215.056-.323 1.221.222 2.44.458 3.664.661.094.009.188.02.281.03.297-1.628.593-3.256.889-4.884-1.378-.242-2.754-.485-4.131-.729.015-.082.029-.164.044-.247.669.082 1.331.213 1.995.325.715.127 1.431.257 2.146.385.254-1.446.509-2.891.764-4.337-.307-.109-.61-.233-.932-.291-1.049-.229-2.112-.376-3.172-.549.033-.083.065-.168.098-.252 1.25.203 2.5.423 3.755.604.116.013.234.017.351.027.294-1.663.586-3.324.879-4.986-.153-.079-.302-.172-.475-.194-1.169-.246-2.346-.45-3.523-.662-1.755-.31-3.511-.614-5.268-.922-.521 2.64-1.04 5.28-1.561 7.919l-.242-.044c.488-2.654.977-5.31 1.464-7.965-3.599-.658-7.198-1.317-10.798-1.973-.171.744-.289 1.499-.431 2.249-.31 1.711-.614 3.422-.921 5.133-.089-.035-.178-.068-.266-.102.436-2.44.873-4.879 1.309-7.318l-1.17-.206c-.136.096-.273.191-.408.286-.549-.073-1.1-.145-1.648-.217l-.661-.712c-.187.037-.375.072-.562.109-.136.913-.272 1.828-.407 2.741-.071.024-.147.066-.215.081-.002-.412.061-.822.114-1.229.046-.391.14-.778.144-1.172.003-.211-.101-.426-.294-.524-.308-.164-.662-.205-.999-.28-.827-.161-1.654-.329-2.48-.494-.178.072-.356.142-.533.213.04.213.082.426.123.638-.09.201-.178.4-.269.601-.044-.042-.16-.047-.145-.118.524-3.652 1.014-7.307 1.435-10.973-3.074-.541-6.147-1.083-9.222-1.626Zm22.028 20.462c.167.073.333.145.501.219.73.31 1.406.802 1.819 1.49.177.284.289.599.418.906-.006.501.026 1.005-.021 1.505-.04.433-.149.874-.322 1.262-.304.692-.863 1.269-1.557 1.573-.573.263-1.214.339-1.839.318-.29-.005-.584.009-.87.023-.07.003-.132-.022-.176-.075-.24-.178-.543-.234-.791-.399-.22-.13-.449-.307-.639-.498-.454-.446-.782-1.013-.965-1.621-.032-.118-.097-.231-.106-.352.011-.595.023-1.191.034-1.787.244-.447.474-.905.79-1.307.19-.266.436-.482.666-.712.431-.177.863-.353 1.295-.531.586-.005 1.174-.009 1.763-.014Zm-6.629 2.85c.009-.007.021-.005.04.012.01.005.018.011.028.017.048.042.162.053.118.136-.479 2.656-.955 5.312-1.433 7.968-.079-.068-.157-.134-.236-.201.48-2.594.945-5.19 1.446-7.781.018-.034.011-.132.037-.151Zm10.959 2.69c.037.006.073.013.109.019.108-.011.109.053.079.138-.442 2.502-.883 5.003-1.325 7.505-.056-.029-.187.007-.186-.07-.022-.286.044-.567.085-.849.304-1.847.639-3.697.988-5.54.079-.403.152-.806.25-1.203Zm-7.476 6.829.664.176c.358.103.728.174 1.06.356.315.194.547.49.813.744.045.057.137.097.094.181-.071.272-.032.58.148.801.05.061.094.124.059.204-.225 1.364-.45 2.727-.676 4.09-.302-.05-.605-.119-.911-.121.19-1.389.38-2.777.572-4.164-.205-.291-.409-.582-.612-.873l-1.151-.349c-.236.126-.483.244-.675.434-.199.175-.346.398-.512.603-.476 2.819-.953 5.639-1.428 8.458.162.272.314.555.54.78.234.257.523.449.795.663.375-.136.751-.271 1.128-.406.174-.314.357-.626.525-.943.152-.863.304-1.726.457-2.589.237-.017.476-.034.713-.052.082.169.165.337.248.504-.192.959-.383 1.917-.575 2.876l-.744 1.038c-.412.155-.823.309-1.235.463-.478-.05-.956-.101-1.434-.152-.369-.386-.739-.772-1.107-1.159-.11-.349-.219-.698-.327-1.046.509-2.979 1.019-5.957 1.53-8.936.297-.4.559-.851.988-1.127.32-.216.692-.329 1.053-.454Z"/>
      <path d="M191.255 280.24v-2.934h1.141v-22.007h-8.476v-7.01h-6.521v-3.26h6.521v-19.236h2.445v16.302h.326v-1.467h1.304v-.164c0-.089-.074-.163-.163-.163h-.163v-2.934h3.424v2.934h-1.794v.327h2.317l-.099-.258c-.054-.142-.099-1.059-.099-2.038v-1.78h-.325v.489h-3.424v-4.238h3.424v2.445h.325v-2.445h8.478v7.498h-7.045l.099.258c.054.142.099.729.099 1.305v1.045h.325v-2.281h6.522v10.595h-9.781v-6.194h1.792v-.326h-2.934v.326h.815v2.934h-3.097v-2.934h.978v-.326h-.978v-1.305h-.326v9.618h8.476v8.477h7.5v.815h.325v-.815h.653v-.325h-2.934v-1.305h-.327v1.305h-4.89v-3.588h4.89v.979h.327v-2.608h-.327v1.304h-4.89v-4.239h4.89v1.63h.327v-2.934h4.89v9.456h-.653v.325h2.772v-.325H205.6v-9.456h11.575v9.456h-7.825v.325h1.956v.653h.327v-.653h2.281v2.609h-2.281v-.653h-.327v2.283h.327v-1.305h4.237v-.325h-1.63v-2.609h4.075v2.609h-1.14v.325h1.14v3.75h-6.682v-1.141h-.327v4.238h7.009v3.26h-.489v.327h2.609v-.327h-1.793v-3.26h1.793v-.326h-1.793v-2.445h4.728v2.445h-1.631v.326h1.631v3.26h-1.631v.327h1.631v8.314h-7.5v-8.314h.653v-.327h-6.521v.327h5.543v8.314h-7.825v-8.314h.978v-.327h-1.631v.163c0 .09.074.164.164.164h.163v8.314h-4.728v-8.314h3.016l-.055-1.794-.055-1.793h2.148v-1.141h-.326v.815h-4.728v-2.771h4.728v.651h.326v-4.401h-1.956v.327h1.63v3.096h-4.728v-3.096h1.794v-.327h-1.794v-.814h-.325v.814h-7.5v4.565h6.522v3.424h-6.522v4.726h1.467v2.283h6.033v3.75h-11.086Zm8.151 1.304v-1.304h-2.12v1.141h-.489v1.467h2.609Z"/>
      <path d="M353.349 226.062c-.105.764-.198 1.533-.313 2.292-.061.402-.175.818-.253 1.23-.039.205-.036.456.144.597.226.174.522.212.794.275 1.177.222 2.359.415 3.531.668.413.099.836.183 1.22.37.058.029.143.072.082.145-.038.094-.075.188-.113.284.223.061.443.128.673.149.092.038.039-.102.056-.154.014-.12-.025-.256.056-.358.018-.103.108-.058.18-.047.038.031-.003.122-.001.179-.009.121-.15.228-.076.352.034.047.107.057.157.094.172.076.361.104.54.159.067-.212.157-.417.176-.64.045-.024.142.024.206.025 5.125.96 10.258 1.886 15.389 2.82 5.821 1.056 11.643 2.108 17.464 3.161.059.062.087.143.076.229-.023.482-.115.978-.185 1.467-.239 1.552-.496 3.104-.746 4.658 3.127.533 6.252 1.065 9.377 1.598.039.065.102.124.126.194-.773 4.633-1.554 9.264-2.358 13.891-.046.09.076.084.129.117.26.101.521.203.781.305-.028.054.005.196-.07.182l-12.954-2.336c-.194.926-.365 1.855-.547 2.781-.753 3.892-1.505 7.784-2.295 11.669 4.76.856 9.523 1.701 14.288 2.533.254.046.508.086.765.115.189-1.182.381-2.364.571-3.547.079-.031.117.073.177.108.087.042.045.126.037.201-.16 1.019-.32 2.038-.481 3.057.076.109.152.218.229.327 1.988.34 3.977.678 5.965 1.017.13-.144.259-.29.388-.435.036-.437.072-.873.109-1.31-.463-.08-.925-.162-1.387-.244.111-.599.223-1.2.335-1.8-.493-.103-.99-.186-1.478-.31-.138-.041-.303-.078-.44-.147-.089-.039-.059-.118-.037-.192.107-.445.212-.891.318-1.338-.951-.177-1.899-.38-2.858-.508-.098-.011-.195-.022-.293-.032.016-.088.031-.177.047-.265.441.034.876.124 1.302.247.089.045.132.02.125-.081.199-1.368.398-2.736.599-4.104.104.018.209.036.314.055-.207 1.179-.443 2.353-.598 3.54-.034.198-.007.398-.001.597 5.791 1.015 11.583 2.029 17.376 3.044-.015.08-.029.159-.043.24-3.948-.675-7.893-1.355-11.842-2.02-.13-.016-.263-.054-.389-.056-.119.052-.12.203-.157.312-.276 1.182-.466 2.382-.681 3.577-.078.438-.155.877-.232 1.314 5.925.988 11.85 1.975 17.774 2.963-.217 1.376-.414 2.757-.549 4.144-.005.158-.045.321-.002.475.106.115.277.118.419.16 1.022.203 2.057.345 3.086.501 2.239.327 4.48.633 6.721.942.1-.068.214-.157.307-.211-.017.137.083.258.214.285.253.095.527.114.789.17.998.176 1.995.364 2.993.533 1.035.165 2.069.339 3.106.489.076.005.153.01.228.016.11-.723.205-1.448.34-2.165.105-.037.209-.074.315-.11-.136.791-.243 1.587-.359 2.381-.071.08-.142.158-.212.238-2.399-.4-4.799-.801-7.198-1.201-.241 1.427-.49 2.852-.716 4.282-.011.1-.022.2-.032.299 13.158 2.286 26.314 4.575 39.472 6.865 1.039.179 2.076.366 3.116.537.108.012.214.023.322.035l.726-4.155c-.092-.131-.182-.261-.273-.39-1.942-.387-3.885-.768-5.829-1.144.095-.717.24-1.428.363-2.14.627-3.448 1.263-6.896 1.887-10.345.424-2.328.844-4.656 1.266-6.983.494.057.983.151 1.475.227 1.604.264 3.205.538 4.808.807-.106.817-.263 1.624-.403 2.435-.085.464-.165.93-.262 1.392-.061.027-.128.002-.191-.006.134-.859.264-1.717.411-2.573.036-.274.088-.59-.09-.827-.192-.234-.509-.295-.788-.365-.693-.144-1.392-.246-2.088-.376-.782-.141-1.565-.283-2.347-.423-.109.077-.219.154-.328.229-.282 1.49-.565 2.977-.847 4.467.093.078.175.181.302.199.737.185 1.485.319 2.231.463 1.087.206 2.175.398 3.255.646.1.018.192.06.283.103-.34 1.912-.678 3.825-1.018 5.738-.237-.008-.464-.092-.698-.127-1.653-.315-3.309-.622-4.968-.908-.16-.032-.324-.038-.486-.051l-1.438 8.021c.155.093.304.202.485.239.976.261 1.975.423 2.963.63.77.154 1.538.318 2.307.481.085-.247.182-.492.225-.751.368-1.818.662-3.648.983-5.475.034-.193.067-.386.1-.578l.249.095c-.66 3.746-1.321 7.493-1.982 11.239.087.122.173.245.258.369 2.86.53 5.717 1.07 8.577 1.594 2.274.411 4.553.797 6.837 1.156.16-1.041.303-2.084.484-3.118.045-.314.121-.646.02-.956-.098-.281-.389-.421-.656-.503-.576-.173-1.172-.258-1.76-.375-1.245-.237-2.488-.481-3.723-.761-.072-.015-.143-.035-.214-.052.037-.532.12-1.052.197-1.58.065-.414.131-.818.234-1.224.082.015.165.03.247.044-.15.856-.302 1.712-.452 2.567 2.097.395 4.19.808 6.284 1.214.093-.487.186-.975.279-1.461-.462-.092-.945-.13-1.378-.33-.056-.041-.145-.069-.18-.12.082-.462.164-.923.245-1.385-.528-.062-1.058-.123-1.586-.185-.038-.109-.098-.216-.122-.325.133-.472.266-.944.4-1.415-1.141-.179-2.282-.358-3.422-.536-.037-.276.029-.551.057-.823.177-1.304.41-2.597.61-3.897.151-.949.296-1.897.443-2.846.08.031.162.061.243.093-.357 2.382-.727 4.762-1.094 7.142 2.099.415 4.198.828 6.296 1.243.454-2.867.916-5.734 1.33-8.608.037-.233.062-.469.071-.706-1.994-.354-3.988-.707-5.981-1.06-.184-.097-.369-.193-.555-.29.44-2.542.837-5.09 1.234-7.639.088-.599.194-1.197.258-1.798-2.186-.37-4.376-.725-6.559-1.103-1.356-.234-2.708-.492-4.066-.718-.113-.024-.229-.021-.344-.012-.042-.216-.054-.438-.037-.658.024-.51.094-1.017.16-1.527.028-.307.089-.626.001-.928-.075-.244-.325-.362-.544-.45-.134-.056-.27-.111-.404-.167.035-.301.066-.603.154-.893.341-1.395.676-2.792.991-4.193.036-.159.071-.319.108-.48.16-.074.33-.134.51-.129.273-.005.539.072.808.109-.038-.227-.111-.45-.085-.683.047-1.111.256-2.209.297-3.32.02-.454-.036-.915-.205-1.339-.12-.312-.252-.62-.376-.929-.049-.022-.195-.007-.179-.054.083-.106.168-.214.252-.32l2.796.573c.005-.5.055-1.001.005-1.5-.014-.122-.032-.249-.102-.351-.093-.444-.041-.9-.037-1.348l.007-.323c-1.009-.182-2.011-.377-3.015-.589-1.27-.267-2.541-.531-3.804-.826-.116-.027-.232-.058-.351-.089.265-1.426.521-2.852.793-4.277.578.081 1.158.162 1.735.256.212.034.469.028.613-.157.184-.243.228-.556.295-.844.182-.942.352-1.884.537-2.825.085-.448.171-.896.256-1.345-.69-.146-1.382-.293-2.073-.441-.23 1.17-.455 2.34-.632 3.519-.074-.012-.147-.026-.22-.038-.017-.236-.008-.472.033-.706.109-.804.358-1.585.409-2.397-.001-.176-.035-.35-.051-.525-.309.008-.617.014-.927.021.015-.078.028-.158.042-.236.274-.01.549-.017.821.022.239.019.48.071.721.045.135-.033.133-.199.172-.308.233-.953.424-1.917.612-2.88.084-.459.185-.917.203-1.384-.86-.195-1.719-.4-2.584-.57-.566-.111-1.13-.242-1.698-.341-.497-.076-.994-.154-1.498-.163l-.583.015c-.209 1.061-.425 2.123-.613 3.187-.085.469-.172.937-.258 1.405.926.235 1.867.398 2.802.583.003.09.004.179.007.269-1.814-.33-3.627-.66-5.439-.99-.276 1.55-.589 3.093-.899 4.639-.141.051-.279.119-.421.16-1.026-.17-2.052-.34-3.077-.509-.121.088-.257.17-.319.314-.209.409-.335.853-.474 1.289-.179.57-.311 1.146-.535 1.698-.065.113-.168.198-.246.3.489.111.988.191 1.466.346.128.054.258.102.391.143.057.633.108 1.266.228 1.891.098.733.139 1.475.19 2.216.011.179.024.358.035.536.362.064.722.127 1.083.191-.629 3.731-1.258 7.463-1.888 11.194-.175.086-.349.173-.526.258-1.122-.205-2.239-.448-3.371-.596-.186-.014-.388-.074-.562.024-.064.026-.146.038-.135.125l-.683 3.47c-.085.118-.17.238-.255.357-4.767-.861-9.534-1.722-14.301-2.579.042.219.084.438.127.657-.077.149-.155.298-.233.446-.086-.015-.173-.031-.258-.045.108-.346.156-.707.187-1.069-1.148-.207-2.295-.419-3.444-.622l-1.735-.235c-.086.285-.171.57-.256.856-.088 0-.175.001-.263.002.246-1.539.515-3.073.732-4.616.051-.398.118-.795.132-1.195-.003-.095-.086-.159-.13-.237-1.119-.17-2.236-.341-3.354-.511-1.578-2.16-3.144-4.328-4.724-6.487-.407-.545-.807-1.099-1.242-1.623-.048-.053-.117-.128-.193-.083-.261.135-.497.314-.742.475-1.908 1.307-3.79 2.649-5.673 3.99-1.506 1.08-3.015 2.154-4.499 3.263-.159.129-.335.24-.475.39-.067.082.019.186.056.266.668 1.138 1.441 2.209 2.14 3.328.161.275.346.545.435.853.027.078-.002.165-.079.201-1.587-2.347-3.144-4.712-4.701-7.079-.163.064-.324.129-.486.193.032.236.063.47.095.705-.086.165-.172.329-.258.493l-.231-.04c.128-.515.258-1.03.386-1.545-.064-.33-.109-.67-.262-.975-.099-.228-.269-.412-.413-.612-1.517-.277-3.033-.561-4.551-.835-1.654-.254-3.307-.522-4.968-.721-.409-.04-.819-.103-1.231-.077-.08.01-.159.022-.24.033.68-3.907 1.325-7.821 1.983-11.732.388-2.338.784-4.673 1.163-7.012.01-.077.019-.154.029-.23-1.204-.198-2.408-.396-3.614-.594-.221 1.255-.441 2.509-.663 3.763-8.879-1.577-17.759-3.15-26.639-4.73-8.073-1.451-16.147-2.902-24.22-4.354-.006.042-.012.085-.017.128Zm44.033 12.387c.196.04.39.081.585.121.094.104.187.208.28.312-.027.156-.055.313-.083.469-.252.044-.505.109-.761.124-.267-.118-.549-.199-.825-.296l-.106-.323c.388.132.796.196 1.195.29.063.008-.066-.11-.082-.154-.09-.13-.182-.261-.273-.39-.288.06-.576.114-.856.206-.054-.078-.009-.13.057-.179.103-.099.206-.197.31-.296.187.039.374.077.559.116Zm-.996.38c-.098.055-.095-.057 0 0Zm5.123.354c.404.001.814.078 1.222.129.109.155.218.311.327.467-.127.162-.254.324-.382.486-.472-.099-.956-.162-1.406-.343-.05-.04-.161-.057-.119-.14.031-.182.064-.366.096-.549.082-.043.17-.053.262-.05Zm.887.253c-.287.013-.583-.021-.862.061-.097.026-.149.159-.069.231.115.095.279.098.42.125.264.03.53.053.795.08-.067-.166-.133-.332-.199-.499-.028 0-.056 0-.085.002Zm66.452 12.67c.733.035 1.468.138 2.202.233.325.043.651.087.976.13-.007.232-.014.466-.022.699.804.104 1.605.213 2.407.333.037-.213.075-.426.112-.639l.249.044c-.077.719-.232 1.426-.368 2.136-.432 2.173-.934 4.331-1.362 6.505-.029.272-.15.534-.333.739-.033.092-.114.06-.187.044-.961-.176-1.924-.351-2.886-.527.036-.199.07-.398.105-.598-.828-.145-1.659-.292-2.488-.438-.048.28-.097.558-.146.837-.05.001-.153.1-.159.025-.03-.197-.071-.395-.093-.592.568-2.971 1.138-5.942 1.675-8.918.106-.005.211-.011.318-.013Zm7.212.347c.111.051.222.103.334.155-.08.624-.159 1.248-.238 1.872-.132.153-.234.335-.397.458-.099.057-.189-.058-.26-.113-.113-.107-.217-.222-.326-.333.136-.658.227-1.329.463-1.96.035-.076.077-.149.115-.223.102.047.205.096.309.144Zm-71.22 2.351c-.019.43-.09.864-.145 1.287-.08.596-.182 1.18-.264 1.774-.075.624-.03 1.293.302 1.842.351.589.955.968 1.567 1.241.989.429 2.048.662 3.1.872 1.992.381 4.006.631 6.018.886.285-1.624.542-3.249.864-4.865.055-.252.093-.494.17-.737.034-.046.034-.183.11-.108.095.021.1.088.072.17-.305 1.79-.609 3.579-.912 5.368.073.106.146.211.22.315 2.516.434 5.03.88 7.549 1.298.24.038.481.071.722.105-.305-.433-.631-.851-.92-1.296-.062-.113-.154-.231-.15-.365.072-.047.165-.041.247-.06.471.711.941 1.422 1.412 2.132.726-.557 1.444-1.127 2.136-1.729.422-.37.861-.717 1.293-1.076.165-.14.327-.285.491-.426-.615-.857-1.254-1.699-1.826-2.585-.069-.112-.134-.229-.201-.342 1.338-.909 2.678-1.816 4.044-2.681.167.083.341.163.469.304.482.479.892 1.026 1.295 1.571.308.449.681.847 1.012 1.279.195.248.391.495.586.743-.054.074-.131.124-.204.178-.097-.096-.202-.179-.303-.268-.747.543-1.5 1.078-2.219 1.658-.498.387-.969.804-1.448 1.214.258.453.516.906.774 1.358.207.046.413.093.62.138.575-.48 1.134-.983 1.731-1.419.456-.343.943-.653 1.34-1.068l.297-.286c-.083-.171-.165-.343-.247-.514.064-.053.126-.104.189-.157.052.089.077.201.176.251.068.042.127.089.09.176-.064.55-.166 1.094-.247 1.64-.171 1.087-.341 2.173-.512 3.259.269.113.53.25.82.308 1.302.312 2.629.505 3.947.74.08.013.161.026.242.041.111-.445.194-.899.332-1.336.026-.037.04-.175.099-.12.047.043.115.082.14.134-.085.478-.169.957-.253 1.433.607.057 1.217.102 1.824.165 1.04.161 2.081.327 3.126.442.113.013.23.024.333-.037.083-.016.132-.06.123-.149.047-.329.094-.657.141-.984.09.016.182.033.274.049-.283 1.55-.565 3.1-.846 4.65-.067-.019-.169-.013-.212-.05.169-1.013.337-2.028.506-3.043-1.241-.215-2.479-.442-3.721-.651-.355-.047-.712-.12-1.071-.095-.177.042-.357.029-.536.038-.266 1.509-.532 3.018-.798 4.526.708.069 1.415.126 2.122.201 1.135.176 2.268.352 3.403.527.049.117.117.232.154.351-.305 1.738-.619 3.474-.915 5.213-.248 1.471-.496 2.942-.746 4.412-1.457-.259-2.916-.523-4.373-.787-.105.533-.229 1.062-.308 1.599-.466-.118-.932-.237-1.396-.356-.113.459-.22.921-.268 1.392-.013.126-.024.253-.037.379-.346-.055-.698-.077-1.035-.175-.213-.053-.427-.105-.641-.159-.029.112-.037.122-.012.002.501-2.84 1.002-5.68 1.505-8.52-4.579-.793-9.156-1.589-13.734-2.384.026-.059.003-.181.06-.198.339.035.676.104 1.018.158 4.131.69 8.258 1.406 12.388 2.111.104-.072.207-.145.311-.218.138-.838.27-1.679.413-2.517.13-.542.458-1.006.782-1.447.419-.568.899-1.09 1.262-1.695.142-.234.242-.493.273-.764.103-.583.204-1.165.307-1.747-.447-.136-.91-.198-1.366-.291-1.69-.318-3.379-.627-5.07-.939l-1.786 1.258c-.203-.036-.405-.071-.608-.108-.298-.322-.595-.646-.895-.97-.419-.145-.84-.29-1.26-.434-.768.177-1.536.354-2.305.533-.013.077-.026.155-.042.233-.232-.176-.392-.428-.564-.66-.304-.437-.595-.883-.893-1.324-3.174-.566-6.349-1.127-9.523-1.696-3.565-.663-7.131-1.324-10.696-1.987-.112.181-.228.362-.282.571-.124.388-.194.79-.282 1.187-.053-.011-.19.066-.179-.009.068-.599.152-1.196.242-1.791-.436-.135-.882-.229-1.327-.326.035-.051.055-.131.1-.161.438.05.875.099 1.313.148.308-1.893.616-3.785.924-5.677.066-.023.136-.06.198-.073Zm70.408 2.746c.056.041.139.067.181.12.044.242.05.489.024.734-.026.357-.097.71-.152 1.063-.143.05-.278.145-.436.131-.123.007-.245-.015-.368-.037-.058-.211-.049-.43-.027-.645.036-.392.12-.774.184-1.161.144-.101.288-.203.433-.303.053.033.107.065.161.098Zm-.84 4.785c.141.053.302.129.356.275-.249 1.541-.471 3.084-.757 4.618-.066.313-.115.642-.213.952-.041.051-.05.168-.113.177-.138-.025-.275-.049-.412-.074-.09-.156-.18-.314-.269-.472.283-1.784.567-3.566.852-5.349.115-.066.23-.132.345-.197.071.024.141.047.211.07Zm-46.427 4.798c.275.014.549.03.824.046.309.242.655.464.867.805.016.06.126.143.025.176-.62.424-1.219.89-1.892 1.228-.09.038-.186.057-.279.086l-1.17-1.823.807-.565c.272.015.545.031.818.047Zm28.555 2.373 3.017.534c.037.062.098.119.12.185-1.122 6.469-2.243 12.937-3.366 19.406-.391-.023-.777-.104-1.164-.162-1.333-.222-2.672-.459-4.001-.727-.432-.091-.868-.184-1.302-.277.202-1.147.404-2.295.606-3.443l.246.044c-.075.586-.192 1.159-.301 1.745-.093.486-.188.974-.282 1.462 1.982.365 3.96.744 5.937 1.132.285-1.587.568-3.175.852-4.763-2.036-.366-4.073-.733-6.108-1.099l.939-5.484c.115.08.222.173.341.245 1.917.349 3.834.7 5.751 1.05.323-1.844.633-3.69.965-5.534.133-.759.295-1.516.38-2.283.028-.34.061-.716-.122-1.021-.18-.288-.53-.385-.84-.453-.634-.126-1.276-.2-1.908-.324-.819-.149-1.638-.297-2.456-.446-.099.07-.197.138-.294.207-.431 2.438-.86 4.874-1.29 7.312-.121-.093-.174-.242-.249-.37.458-2.458.915-4.914 1.371-7.371.07-.037.127-.126.213-.086Zm21.148-.526c.072.016.002.121-.041.062-.022-.028.006-.07.041-.062Zm.979.171c-.071.019-.087-.024 0 0Zm-16.457 1.179c.614.073 1.222.195 1.832.299 2.4.434 4.795.89 7.185 1.377.428.091.859.174 1.283.282-.141 1.004-.317 2.003-.481 3.003-.809 4.798-1.665 9.589-2.504 14.383-.124.712-.249 1.422-.375 2.132-2.186-.384-4.372-.768-6.551-1.192-.223-.041-.439-.116-.664-.156-1.122-.24-2.249-.45-3.375-.672-.005-.242.012-.481.056-.72.323-2.019.703-4.036 1.076-6.05.785-4.223 1.562-8.447 2.336-12.673.06-.005.121-.011.182-.013Z"/>
      <path d="M77.1449 358.65v-1.305h-.4891v-2.281h2.2823v-6.195h-.3261v5.869h-5.7054v-7.173h5.7054v.489h.3261v-.489h.652v-.326l-2.5675-.02c-1.4121-.013-2.9159-.005-3.3418.014l-.7742.036v-1.497h1.304v.814h.3261v-.814h6.5205v1.467h-.489v.326h.489v12.389h-3.9123Z"/>
      <path d="M272.437 361.502v-1.385h4.89v2.772h-4.89Z"/>
      <path d="M275.697 363.703v-.652h1.63v1.305h-1.63Z"/>
      <path d="m431.245 362.842.382-2.167.722.128.723.127-.382 2.167-.382 2.167-.723-.127-.723-.127Z"/>
      <path d="m370.576 352.061.396-2.247.722.127.723.129-.396 2.247-.396 2.247-.723-.127-.723-.127Z"/>
      <path d="M142.188 380.494v-1.467h1.304v2.934h-1.304Z"/>
      <path d="M129.636 378.538v-3.423h7.335v-.327h-.489v-.651h-.326v.651h-6.52v-6.357h6.52v4.239h.326v-5.38h-.326v.814h-6.52v-6.846h5.542v2.282h.978v2.283h.326v-2.283h.489v-.326h-1.467v-2.77h3.75v2.77h-.815v.326h.815v8.477h.978v-.325h-.653v-18.095h-.325v3.423h-1.142v.325h1.142v2.772h-3.75v-2.772h1.141v-.325h-1.141v-.489h-.326v4.402h-5.542v-6.358h5.542v.489h.326v-.489h.978v-2.445h-.326v2.119h-6.52v-6.358h6.52v2.772h.326v-.653h.652v-.325h-.652v-1.794h2.772v1.794h-.653v.325h.653v2.12h.325v-4.239h2.932l.043 10.392.041 10.392 1.427.048 1.426.046v-.338h1.793v.326h1.957v8.966h-.652v.326h.652v3.912h-4.564v-1.304h.978v-1.63h.651v-.978h.489v-.326h-.489v-6.031h-4.564v.325h1.956v.653h.326v-.653h1.956v2.771h-1.956v-.651h-.326v.651h-5.216v.327h.815v6.846h-9.618Z"/>
      <path d="m432.013 383.834 1.543-8.748.32.056.322.056.028-.16.028-.16-.32-.058-.322-.056.693-3.933.695-3.933.882.155.883.156.099-.562.099-.562-.803-.141-.802-.142.381-2.167.383-2.167.964.17.963.169.665-3.772.665-3.773-1.605-.284-1.605-.282-.213 1.204-.212 1.204-.562-.099-.562-.1-.029.162-.028.16.563.099.561.099-.396 2.247-.396 2.248-1.606-.283-1.605-.283.396-2.248.396-2.247.482.085.482.085.028-.16.028-.162-.642-.112-.642-.114-.835 4.736-.835 4.736-5.619-.991-5.619-.99-.792 4.494-.793 4.496-3.532-.624-3.532-.622.424-2.407.426-2.409 2.328.411 2.328.409.127-.722.127-.721-.16-.03-.162-.028-.099.562-.099.562-2.166-.382-2.168-.383.254-1.443.256-1.446 2.166.382 2.168.383-.043.24-.041.241.16.028.16.029.043-.241.043-.241.401.071.401.071.085-.482.085-.482-13.084-2.307-13.084-2.307-.086.482-.084.482.401.07.402.071-.283 1.606-.284 1.605 2.328.411 2.328.409-.424 2.409-.425 2.408-3.451-.608-3.452-.609.793-4.496.792-4.494-7.706-1.36-7.705-1.358-.794 4.495-.792 4.495-2.729-.481-2.729-.481.425-2.409.424-2.407 1.364.241 1.365.239.071-.401.071-.401-.16-.028-.161-.028-.042.241-.043.241-1.927-.34-1.926-.34.255-1.445.254-1.445 1.927.34 1.927.339-.142.804-.142.802.161.028.16.028.142-.802.141-.803.643.113.642.114.084-.482.086-.481-.642-.114-.643-.114.821-4.654.821-4.656-1.444-.255-1.445-.255.142-.803.14-.802-1.685-.297-1.686-.297-.566 3.21-.566 3.211.723.127.721.127-.396 2.249-.396 2.247-1.756-.31-1.755-.31-.745-1.934-.746-1.934.951-5.396.952-5.395 7.465 1.317 7.465 1.315-.949 5.378-.948 5.379 6.582 1.16 6.583 1.161.084-.481.086-.482-.482-.086-.482-.084.057-.322.056-.32-.16-.029-.161-.028-.057.321-.056.32-2.007-.353-2.007-.353.213-1.204.212-1.205 2.007.354 2.006.354-.084.482-.086.482.161.028.161.028.113-.642.113-.642-2.167-.383-2.167-.382.778-4.415.778-4.415 3.453.609 3.451.609-1.104 6.261-1.104 6.261.16.028.16.028 1.175-6.662 1.175-6.662 2.168.381 2.166.383-.198 1.124-.198 1.123 1.205.213 1.204.213-.652 3.692-.65 3.692-2.008-.354-2.006-.354-.114.642-.112.642.16.029.16.029.086-.482.084-.482 1.846.325 1.846.326-.211 1.204-.213 1.204-1.846-.325-1.846-.326.056-.321.057-.321-.161-.028-.16-.029-.056.322-.058.32-.48-.084-.482-.086-.086.482-.084.482 5.538.977 5.539.976.084-.481.086-.482-.401-.071-.402-.071.24-1.364.241-1.365-2.488-.439-2.489-.438.652-3.693.65-3.692 3.692.65 3.694.652-.977 5.538-.977 5.539 9.953 1.756 9.954 1.754.481-2.729.481-2.729 1.285.226 1.284.227.481-2.729.481-2.729 8.428 1.485 8.429 1.487-1.359 7.706-1.359 7.705-.963-.17-.964-.17-.392 2.207-.394 2.207-.849 1.671-.85 1.671-1.472-.212-1.473-.212-.027.154-.027.156.32.056.322.056-1.543 8.749-1.543 8.75-2.407-.425-2.409-.425Z"/>
      <path d="M278.468 382.287v-14.183h-.325v.489h-7.989v-2.607h7.989v.489h.325v-.489h2.771v30.483h-2.771Z"/>
      <path d="M110.4 404.783v-1.467h1.793v-1.468h1.793v4.402H110.4Z"/>
      <path d="M129.798 415.297v-1.385h2.935v2.772h-2.935Z"/>
      <path d="m210.008 427.277.336-.831.604.245.605.244-.336.832-.336.831-.604-.245-.605-.244Z"/>
      <path d="m220.223 432.02.244-.604.68.275.68.274-.244.605-.244.604-.68-.274-.681-.275Z"/>
      <path d="m211.032 428.659.671-1.663.832.337.831.335-.671 1.662-.672 1.663-.832-.336-.831-.335Z"/>
      <path d="m217.95 432.86.304-.756 1.513.612 1.511.61-.306.755-.306.756-1.511-.61-1.511-.611Z"/>
      <path d="M137.46 419.78v-4.238h-.326v1.142h-1.792v-1.468h-.978v-1.304h1.303v-.327h-5.869v-22.169h3.098v10.432h.326v-1.303h5.868v.652h.327v-.652h3.097v3.912h-3.097v-2.282h-.327v2.282h-5.868v-1.63h-.326v7.499h4.238v1.141h.326v-2.119h5.054v4.237h-5.054v-1.14h-.326v1.14h-.489v.327h.489v.652h.326v-.652h5.054v10.107h-5.054Z"/>
      <path d="m211.768 434.671.641-1.587 1.587.64 1.587.641.061-.15.061-.152-1.587-.641-1.587-.642 1.68-4.155 1.679-4.157 1.209.489 1.209.488-.824 2.04-.824 2.041.15.061.152.061.824-2.04.824-2.041.831.336.832.335-.306.757-.304.756.15.061.152.061.305-.757.305-.755 1.512.611 1.511.61-.58 1.436-.58 1.436-1.511-.61-1.513-.612.062-.15c.034-.083-.007-.18-.09-.213l-.151-.061-1.156 2.86-1.155 2.858-.224.013-.225.012.153.164.154.165-.636 1.573-.637 1.575-2.19-.885-2.193-.885Z"/>
      <path d="m196.775 428.262 1.069-2.646 2.57 1.038 2.569 1.038-.58 1.437-.581 1.435.53.214.529.214.061-.152.061-.15-.377-.153-.378-.153.732-1.814.733-1.813-.151-.061-.151-.062-.153.378-.153.378-2.569-1.038-2.57-1.038.428-1.058.427-1.058 2.57 1.038 2.57 1.038-.092.227-.092.226.151.061.151.061.398-.981.396-.983-.151-.061-.151-.062-.245.606-.244.604-2.569-1.038-2.57-1.038 1.283-3.174 1.282-3.174 2.57 1.038 2.569 1.038-.855 2.116-.854 2.115.15.061.152.062.244-.604.245-.606 1.133.459 1.133.458-.854 2.115-.856 2.117.151.061.152.061.366-.907.366-.907.756.305.756.306-.672 1.663-.672 1.663-.756-.306-.755-.306.122-.302.122-.302-.151-.061-.151-.061-.703 1.737-.701 1.739-.302-.122-.304-.123-.061.152-.06.152.302.121.302.122-.489 1.209-.488 1.209-3.854-1.556-3.854-1.558Z"/>
      <path d="M270.154 426.954v-1.305h7.989v2.608h-7.989Z"/>
      <path d="M275.697 430.539v-.651h1.63v1.303h-1.63Z"/>
      <path d="M272.437 432.74v-1.385h4.89v2.77h-4.89Z"/>
      <path d="M239.344 433.881v-.734h1.305v1.467h-1.305Z"/>
      <path d="M236.736 433.067v-1.549h2.446v3.096h-2.446Z"/>
      <path d="m193.877 443.704.305-.755.604.244.605.245-.305.756-.306.755-.604-.244-.605-.245Z"/>
      <path d="m191.341 441.713.641-1.587.681.275.679.275-.642 1.587-.64 1.587-.68-.275-.681-.275Z"/>
      <path d="M236.736 441.625v-2.283h3.261v-.326h-3.261v-1.793h5.543v-2.255l.204-.094.204-.096-.204-.095-.204-.096v-3.069h1.956v3.069l-.203.096-.204.095.204.096.203.094v1.114h.326v-5.054h4.891v7.988h-4.891v-1.956h-.326v1.956h-.489v.326h5.706v4.564h-7.01v-4.564h.163c.089 0 .163-.073.163-.162v-.164h-1.793v.326h1.141v4.564h-5.38Z"/>
      <path d="M105.346 427.034v-16.872h-1.63v-8.965h6.358v5.379h4.238v-6.846h-.326v.489H110.4v-2.283h3.586v.653h.326v-.653h8.64v5.706h-4.727v.326h4.727v5.38h-4.727v.325h4.727v6.032h-8.803v-6.032h2.934v-.162c0-.09-.073-.163-.163-.163h-.163v-5.38h.163c.09 0 .163-.073.163-.163v-.163h-.652v5.706h-7.172v15.649h.326v-8.966h7.824v10.923h-7.824v-.979h-.326v10.107h.326v-8.803h7.824v10.923h-7.824v-1.142h-.326v6.846h-3.913Z"/>
      <path d="m188.645 450.997.457-1.133 2.192.885 2.191.885.061-.151c.035-.083-.006-.179-.089-.212l-.151-.061.244-.605.245-.604-.152-.061-.152-.061-.244.604-.243.605-1.89-.763-1.889-.764.55-1.36.549-1.361 1.889.763 1.89.765-.122.302-.123.301.152.062.15.061.275-.68.275-.681-.151-.06-.151-.061-.091.226-.092.226-1.89-.763-1.889-.763.52-1.284.518-1.285 1.889.764 1.89.763-.244.604-.245.605.152.061.15.061.245-.605.244-.604.152.061c.083.033.178-.007.211-.09l.061-.152-.529-.213-.528-.214.64-1.587.642-1.587 5.29 2.137 5.289 2.138-.64 1.587-.641 1.586-4.384-1.77-4.383-1.771-.061.151c-.033.083.007.179.09.212l.152.061-.489 1.209-.489 1.209.151.061.152.061.092-.226.091-.227.68.275.68.275-.336.831-.335.832-.681-.275-.68-.275.092-.227.091-.227-.151-.061-.151-.061-.275.681-.275.679.152.062.15.061.122-.302.123-.303.681.275.679.275-.336.831-.336.831-.668-.27-.667-.269.013-.212.014-.214-.355.15c-.194.083-.369.19-.389.237l-.035.087.983.396.983.397-.459 1.134-.458 1.133-3.552-1.434-3.551-1.435Z"/>
      <path d="M274.393 459.475v-.734h1.467v-1.467h.652v-.326h-.489v-3.913h-.326v3.913h-5.543v-5.869h5.543v.978h.326v-1.793h-.326v.489h-5.543v-3.749h5.543v2.282h.326v-.489h.489v-.326h-.489v-1.467h2.12v1.467h-.653v.326h.653v.489h.325v-2.282h12.715v3.913h-1.467v2.118h-11.248v-2.771h-.325v4.239h.325v-1.141h2.474l.713.774.713.774.006 1.019.006 1.019h-3.912v-1.467h-.325v1.467h-.653v.326h.653v2.934h-3.75Z"/>
      <path d="M270.154 458.741v-1.467h2.609v2.934h-2.609Z"/>
      <path d="M92.6313 471.619v-4.075h18.0947v7.661h-5.054v-3.259h-1.956v-1.305h-.326v5.053H92.6313Zm9.1287-.326v-.163h-7.3355v.327h7.3355Z"/>
      <path d="M184.571 516.693v-1.712h3.913v3.424h-3.913Z"/>
      <path d="M276.675 519.464v-1.712h.815v-.325h-4.402v-1.305h6.522v-13.204h.489v-.327h-1.305v-.489h-.326v.489h-5.38v-4.401h5.38v2.934h.326v-.489h.978v-.325h-.978v-2.12h2.934v2.12h-1.14v.325h2.934v.489h.325v-2.934h7.173v4.401h-7.173v-.489h-.325v.489h-.164c-.089 0-.162.074-.162.164v.163h7.824v4.564h-8.965v-4.564h.163c.089 0 .162-.073.162-.163v-.164h-1.141v.327h.489v14.509h-.815v.325h.815v3.423h-5.053Z"/>
      <path d="M254.831 519.464v-1.712h5.053v3.423h-5.053Z"/>
      <path d="M214.892 519.872v-1.467h-.814v-3.424h4.075v6.358h-3.261Zm.653 1.141v-.163h-.489v.325h.489Zm.814 0v-.163h-.489v.325h.489Zm.816 0v-.163h-.489v.325h.489Zm.815 0v-.163h-.489v.325h.489Z"/>
      <path d="M185.387 521.502v-1.468h1.467v1.468h1.63v1.467h-3.097Z"/>
      <path d="M276.675 524.762v-1.956h1.468v1.467h3.585v2.445h-5.053Z"/>
      <path d="M485.497 524.925v-6.684h7.009v10.923h.327v-.653h2.281v-.325h-2.281v-9.945h9.617v9.945h-6.194v.325h6.194v.653h.326v-.653h1.467v-3.26h-1.467v-2.282h2.935v5.542h1.304v-.325h-.978v-9.945h6.194v9.945h-4.075v.325h4.075v3.098h-9.455v-1.305h-.326v1.305h-9.617v-1.305h-.327v1.305h-7.009Z"/>
      <path d="M189.299 531.364v-4.646h1.794v-.326h-13.531v-1.794h-.326v1.794H167.13v-4.728h10.106v1.794h.326v-11.9h2.445v12.226h5.38v-.489h3.097v.489h7.662v-.326h-1.794v-8.477h4.728v8.477h-1.63v.326h3.885l.083.203.082.204.012-.204.013-.203h14.345v-.326h-.978v-.816h3.261v.816h-.816v.326h.978v2.608h-.978v.326h1.305v9.128h-4.564v-2.445h-.327v2.445h-1.035c-.569 0-1.596.048-2.282.107l-1.247.105v-9.34h4.564v3.913h.327v-3.913h1.792v-.326h-14.318l-.082-.204-.082-.203-.013.203-.012.204h-8.803v.326h1.792v9.292h-5.053Zm12.175-5.981-.086-.214-.013.313-.012.312.097-.098.099-.099Zm0-.815-.086-.214-.013.313-.012.313.097-.099.099-.099Zm-15.272-.948v-.162h-.653v.326h.653Zm.978 0v-.162h-.653v.326h.653Zm.978 0v-.162h-.652v.326h.652Zm27.387-.651v-.163h-.489v.325h.489Zm.814 0v-.163h-.489v.325h.489Zm.816 0v-.163h-.489v.325h.489Zm.815 0v-.163h-.489v.325h.489Z"/>
      <path d="M247.658 534.461v-1.711h2.283v-1.141h-.327v.814h-1.956v-3.259h1.956v1.303h.327v-.556c0-.307.044-.674.099-.816l.099-.258h-1.666v-1.793h7.174v-.326h-.816v-3.912h1.467v1.467h3.586v2.445h-.814v.326h2.608v1.793h-10.433v.327h.489v1.303h.325v-1.303h4.891v1.303h.326v-1.303h4.564v7.009h-4.564v-4.564h-.326v4.564h-4.891v-4.564h-.325v4.564h-4.076Z"/>
      <path d="m517.393 557.761.792-1.609-2.926-1.441-2.926-1.439 4.385-8.911 4.385-8.911 1.983-.061c1.091-.033 2.708-.102 3.595-.153l1.611-.091 3.602 1.771 3.603 1.773-5.938 12.067-5.937 12.067-3.51-1.727-3.512-1.726Zm7.674-12.275 2.185-4.44-1.082-.466-1.082-.465-.736-.005-.736-.005-.898.286-.898.285-.423.475-.423.475-.834 1.689-.833 1.69.094.853.093.854.395.709.396.71.536.509.535.508.763.388.764.388Z"/>
      <path d="M461.534 569.428v-.652h2.77v1.304h-2.77Z"/>
      <path d="m497.37 568.284.756-1.536.877.432.878.431-.755 1.536-.756 1.535-.878-.431-.878-.432Z"/>
      <path d="M220.924 572.769v-1.548h.815v3.097h-.815Z"/>
      <path d="M452.078 569.591v-5.705h12.226v1.792h-1.467v1.467h-1.629v3.261h3.096v4.89h-12.226Z"/>
      <path d="M417.194 575.296v-.651h2.771v1.303h-2.771Z"/>
      <path d="M407.575 575.296v-.651h2.772v1.303h-2.772Z"/>
      <path d="M212.936 584.017v-.244h3.098v.489h-3.098Z"/>
      <path d="m553.18 583.662-.878-.432.216-.439.215-.439-.145-.072-.147-.072-.216.439-.215.439-1.536-.756-1.536-.755-.072.146-.072.146 1.023.503 1.025.504-.324.659-.324.658-.658-.324-.659-.324-.324.659-.324.658-1.096-.541-1.097-.539.648-1.317.647-1.316.22.108.219.108.072-.147.072-.145-.219-.108-.22-.109.144-.292.145-.292-.147-.072-.147-.072-.143.292-.144.292-3.291-1.619-3.292-1.62 1.261-2.558 1.259-2.561 3.291 1.62 3.29 1.619-.863 1.756-.864 1.755.147.071.146.072 1.152-2.34 1.15-2.34-.145-.072-.147-.072-.215.439-.216.439-3.292-1.62-3.291-1.619.72-1.462.72-1.464 3.292 1.62 3.29 1.619-.252.512-.252.513.147.072.146.071.252-.511.252-.513 1.17.576 1.17.576-1.368 2.779-1.367 2.779.292.144.293.145.072-.147c.04-.081.006-.179-.075-.219l-.145-.071 1.294-2.633 1.296-2.633 1.975.971 1.974.972-1.294 2.634-1.296 2.632-1.317-.648-1.316-.648-.072.147-.072.146.292.143.293.145-.216.439-.216.439.147.072.145.072.217-.439.216-.439.877.432.877.431-.683 1.39-.683 1.389Z"/>
      <path d="m551.813 586.623-.805-.396.648-1.316.648-1.317.805.396.804.397-.648 1.315-.648 1.317Z"/>
      <path d="M214.567 586.463v-.753l1.498-.009-.002-1.908.299-.009-.003 3.249h-1.792Z"/>
      <path d="M194.19 587.36v-3.587h10.432v5.217h.327v-1.305h2.607v-.325h-2.607v-3.587h4.564v3.587h-.815v.325h2.119v-.325h-.978v-3.587h2.772v3.587h-.978v.325h1.303v-.325h3.423v3.586h-11.41v-.978h-.327v.978H194.19Z"/>
      <path d="M111.867 592.984v-.571h1.141v1.141h-1.141Z"/>
      <path d="M426.485 592.495v-1.387h1.468v2.772h-1.468Z"/>
      <path d="m466.244 596.468-.357-.261.163-.27c.091-.15.454-.728.809-1.285l.644-1.015.383.238c.868.543.893.553.051 1.903-.806 1.289-.759 1.374-1.693.69Z"/>
      <path d="m496.069 598.62.36-.732.731.361.731.359.137-.278c.074-.151.214-.761.308-1.354l.171-1.079-.121-.94-.121-.94-.444-.727-.445-.729-.889-.72c-.489-.396-1.114-.832-1.391-.967l-.503-.247.075-.373.073-.372 3.183-6.474 3.183-6.473 4.242 2.088 4.241 2.087.072-.147.072-.146-1.901-.936-1.901-.935.828-1.682.827-1.683-1.609-.791-1.609-.792-.827 1.682-.828 1.683-3.95-1.944-3.949-1.943.827-1.682.828-1.683 1.609.793 1.609.791.432-.877.432-.878.658.324.658.324.396-.804.396-.805 4.241 2.087 4.243 2.087-.828 1.683-.828 1.682 3.218 1.583 3.218 1.583-.827 1.683-.828 1.681-1.609-.791-1.609-.792-.072.146-.072.146 1.609.792 1.609.791-4.969 10.091-4.97 10.092-4.239-2.086-4.239-2.086Z"/>
      <path d="M263.634 605.128v-.652h3.097v1.304h-3.097Z"/>
      <path d="m116.554 607.472-1.101-1.075v-.942H110.4V593.88h2.934v-2.934H110.4v-3.586h5.216v-1.07l1.024-1.013 1.023-1.015 4.071.013 4.071.014 1.181 1.359 1.183 1.359v.842h2.934v2.77l.449.013.447.013 1.02 1.197 1.018 1.198v7.163l-1.1 1.074-1.101 1.075-.529.002-.531.002v2.935h-2.934v1.376l-.931.943-.933.941-4.162-.002-4.162-.004Z"/>
      <path d="M226.793 612.467v-1.626l-2.976-.049-2.975-.047 3.139-.037 3.137-.038v-4.89h-.325v4.565h-5.869v-6.847h5.869v1.304h.325v-1.63h-6.194v-5.217h-1.956v-1.141h1.956v-22.333h5.869v-3.26h1.792v42.873h-1.792Z"/>
      <path d="M220.924 612.546v-1.549h.815v3.097h-.815Z"/>
      <path d="M253.69 619.148v-5.217h1.957v-.327h-1.957V600.4h5.38v13.204h-2.283v.327h2.608V600.4h.978v-.325h-1.792v-22.007h-2.527l.105-2.649c.057-1.458.112-3.359.122-4.224l.017-1.575.503-.814.721-.681.826-.338.875-.157 1.695.051 1.767.148 2.146 1.024c1.18.564 3.229 1.543 4.553 2.175l2.408 1.151 1.07 1.027 1.07 1.028.556.995c.307.548.704 1.422.883 1.943l.326.946v3.817l-.495 1.2c-.757 1.834-1.752 3.392-3.325 5.208-.275.317-.757.899-1.07 1.291-.314.392-1.451 1.786-2.527 3.094-1.076 1.31-2.232 2.756-2.568 3.215l-.611.833v3.624h-1.467v-.326h-2.283v.326h1.956v23.963h-9.617Zm10.438-27.189c.132-.159.825-1.02 1.541-1.914.716-.894 1.339-1.663 1.386-1.707.046-.045.671-.815 1.387-1.712.718-.897 1.439-1.777 1.603-1.956.165-.18.634-.766 1.043-1.304l.743-.978.384-.861.384-.861-.001-.769-.002-.77-.232-.867-.231-.867-.772-1.142-.772-1.14-1.562-.736-1.563-.738-1.5-.456-1.501-.456-.781.163c-.431.09-.873.238-.986.328l-.204.165v17.955l.439.457.438.457h.518Z"/>
      <path d="M257.303 632.09v-1.549h.978v3.098h-.978Z"/>
      <path d="M257.276 643.6v-4.239h5.706v-.326h-.815v-4.891h.815v-.325h-1.631v-1.631h-1.467v-1.63h9.456v3.261h-1.631v.325h1.631v4.891h-3.913v-4.891h1.304v-.325h-2.771v.325h1.141v4.891h-1.141v.326h5.38v8.477h-12.064Z"/>
      <path d="M171.856 667.237v-.489h3.098v.978h-3.098Z"/>
      <path d="M59.3763 668.541v-.489h3.0972v.978h-3.0972Z"/>
      <path d="M44.3789 669.437v-1.549h7.1727v3.098h-7.1727Z"/>
      <path d="M511.09 673.187v-1.711h1.305v3.423h-1.305Z"/>
      <path d="M182.779 675.469v-2.526h2.281v-.327h-2.281v-1.793h-.326v.489h-1.957v-7.825h-.326v2.445h-2.281v-4.726h2.281v1.467h.326v-4.402h-6.195v-.653h-.325v.653h-.489v.326h.489v2.609h.978v3.912h-1.467v-1.467h-1.793v4.075h-.489v-9.129h1.304v-.326h-1.304v-2.282h2.771v.651h.325v-.651h5.869v-1.141h.653v-.326h-.653v-3.261h-1.141v.326h.816v4.075h-2.772v-4.075h.978v-.326h-1.304v4.401h-5.542v-6.52h8.965v-2.283h-.325v1.957h-8.64v-7.172h8.64v4.401h.325v-1.304h.653v-.327h-.653v-2.77h2.283v2.77h-.816v.327h.816v.162c0 .091.073.164.162.164h.164v-3.423h8.803v5.053h-8.803v-.816h-.326v8.641h-.816v.303l.367.052.367.052.027.653c.015.358.034 3.677.041 7.376l.014 6.724h.326v-.489h.978v-.327h-.978v-1.303h2.445v1.303h-.164c-.089 0-.162.074-.162.164v.163h.651v-1.63h6.033v5.053h-5.38v.327h5.38v5.053h-8.803Z"/>
      <path d="M48.7802 649.305v2.609h.4891v.325h-.4891v3.098h3.0974v.978h-.326v-.653h-2.7714v2.283h2.7714v-.816h.326v7.147l.2037.095.2039.094-.2039.095-.2037.096v13.34h-.326v-3.913h-.9781v-.326h.9781v-2.445h-3.7495v2.445h1.6303v.326h-.6522v1.305h-.3259v-1.305h-.9781v-2.771h-3.0974v6.032h4.0755v-.815h.3259v2.771h-.3259v-1.631h-4.0755v5.055h4.0755v-2.283h.3259v2.283h.6522v.325h-5.0536v5.543h7.1728v-5.543h-.9781v-.325h.9781v-3.75h.326v1.467h.489v.326h-.489v7.825h.489v.325h-7.9878v4.077h7.973v.273h-.4878v3.645h1.9636v-3.645h-.4592v-.273h.4654v-4.077h-.4891v-.325h.4891v-2.934h.3259v.652h.4891v.326h-.4891v6.358h1.1195v.273H54.16v3.645h3.1857v-3.645h-1.1195v-.273h6.8994v-6.358h-7.4988v-.326h7.4988v-6.195h-6.5207v4.076h-.815v-.327h.4891v-3.749h-2.1193v3.749h.6522v.327h-.6522v.489h-.3259v-3.913h-.4891v-.326h.4891v-.652h6.1944v-.653h.3262v.653h2.7712v-2.282h-1.304v-.327h1.304v-9.128h-.489v4.075h-1.7931v-1.467h-1.4672v3.912h.9781v2.608h.4891v.327h-.4891v.651h-.3262v-.651h-6.1944v-4.402h.3259v1.467h2.2824v-4.727h-2.2824v2.12h-.3259v-7.336h-.4891v-.326h.4891v-1.794h.3259v5.217h8.9659v-6.52h-1.9562v-.327h1.9562v-5.706h-8.9659v5.706h6.0316v.327h-6.0316v.162c0 .09-.0732.163-.1628.163h-.1631v-7.498h.3259v.815h8.9659v-5.543h-8.9659v3.75h-.3259v-.816h-.815v-.325h.815v-2.609h-2.6084v2.609h.8153v.325h-1.7933v-.325h.6521v-2.609Z"/>
      <path d="M124.419 695.519v-1.547h.978v3.096h-.978Z"/>
      <path d="M118.877 696.579v-.489h-2.609v-2.771h9.129v.489h-4.075v1.793h1.467v1.467h-3.912Z"/>
      <path d="M64.4297 696.335v-.734h1.4671v-1.793h-4.0753v-.489h9.1288v2.771h-2.6082v.978h-3.9124Z"/>
      <path d="M61.8215 695.519v-1.547h.9781v3.096h-.9781Z"/>
      <path d="M452.242 703.752v-4.076h1.956v-.325h-1.956V691.2h3.26v-.489h1.142v.489h.978v8.151h-1.956v.325h1.956v8.151h-5.38Z"/>
      <path d="M517.61 714.17v-1.319l-.316-1.575c-.174-.865-.447-2.785-.604-4.264l-.289-2.69-.001-3.993-.001-3.994.291-2.934c.16-1.614.402-3.668.539-4.564.137-.898.286-2.457.332-3.465l.084-1.834h1.758v31.951h-1.794Z"/>
      <path d="m479.098 724.02-1.263-.068v-14.984h-13.367v-3.423h-6.521v-12.063h6.521v-3.423h13.367v-14.835h40.102v-3.748h2.934v7.498h-6.847v.326h6.521v5.705h-.815v-1.792h-4.11l.099.258c.054.141.099.765.099 1.385v1.127h1.303v.122c0 .068-.106.746-.236 1.509-.267 1.569-.644 5.228-.923 8.965l-.189 2.527.1 2.771c.16 4.416.809 10.019 1.259 10.859l.164.308h-1.478v1.127c0 .622-.044 1.245-.099 1.387l-.099.257h4.762v4.076h-6.358v.325h6.847v3.75h-17.824c-9.803 0-18.918.027-20.254.061-1.338.033-2.999.029-3.694-.007Zm23.516-3.967v-.162h-3.071l-.095-.204-.095-.204-.095.204-.096.204h-4.048v-4.076h.653V715h-.489v.326h-9.945v-4.238h8.152v-22.985h-8.152v-4.401h9.945v14.018h11.9v-.325h-11.411v-14.182h-.653V679.3h4.048l.096.203.095.204.095-.204.095-.203h3.071v-.326h-7.816l-.046 2.16-.045 2.159-4.85.044-4.849.043v8.564l-2.16.579-2.161.578-.048.924-.049.925h.506v-.327h3.912v.163c0 .09.074.164.163.164h.162v-2.283h2.609V691.2h2.446v-2.772h2.77v22.334h-2.77v-2.772h-2.446v-1.467h-2.609v-2.119h-4.747l.111.774c.141.992-.008.9 2.313 1.432l1.998.458v8.584h9.781v4.564h7.825Zm9.617 0v-.162h-6.847v-1.305h-.325v1.305h-.653v.325h7.825Zm-12.715-.978c0-.089-.074-.162-.163-.162-.089 0-.163.073-.163.162 0 .09.074.163.163.163.089 0 .163-.073.163-.163Zm0-.651c0-.091-.074-.164-.163-.164-.089 0-.163.073-.163.164 0 .089.074.162.163.162.089 0 .163-.073.163-.162Zm2.771-1.467v-1.142h2.772v1.467h.325v-1.467h8.478v-.326h-15.813v.326h1.141v2.282h3.097Zm-5.868-1.305c0-.089-.074-.163-.163-.163-.09 0-.164.074-.164.163 0 .089.074.163.164.163.089 0 .163-.074.163-.163Zm.651 0c0-.089-.073-.163-.162-.163-.089 0-.163.074-.163.163 0 .089.074.163.163.163.089 0 .162-.074.162-.163Zm.653 0c0-.089-.073-.163-.164-.163-.089 0-.162.074-.162.163 0 .089.073.163.162.163.091 0 .164-.074.164-.163Zm-1.956-9.047v-6.929h11.411v-.325h-11.9v14.182h.489Zm-.815-1.06v-1.304h-.978v2.608h.978Zm-13.856-1.875v-.407h-.327v.815h.327Zm4.237 0v-.407h-.325v.815h.325Zm9.619-.896v-1.304h-.978v2.608h.978Zm-13.856-.244v-.409h-.327v.816h.327Zm4.237 0v-.409h-.325v.816h.325Zm-4.237-1.142v-.407h-.327v.815h.327Zm4.237 0v-.407h-.325v.815h.325Zm-11.001-.184 1.547-.429v-2.693l-.245-.094-.244-.094v-4.575h-2.445v3.749h-3.504l-1.509.503-1.508.502v2.696l1.345.417 1.345.417 1.835.015 1.837.014Zm6.764-.957v-.407h-.327v.814h.327Zm4.237 0v-.407h-.325v.814h.325Zm-21.029-.815v-.57h-.489v.652H458.6v-1.957h-.489v2.446h6.193Zm16.792-.326v-.408h-.327v.816h.327Zm4.237 0v-.408h-.325v.816h.325Zm10.27-.081c0-.09-.073-.163-.162-.163-.09 0-.163.073-.163.163 0 .089.073.162.163.162.089 0 .162-.073.162-.162Zm4.566 0c0-.09-.074-.163-.164-.163-.09 0-.163.073-.163.163 0 .089.073.162.163.162.09 0 .164-.073.164-.162Zm-4.566-.489c0-.09-.073-.163-.162-.163-.09 0-.163.073-.163.163 0 .089.073.162.163.162.089 0 .162-.073.162-.162Zm4.566 0c0-.09-.074-.163-.164-.163-.09 0-.163.073-.163.163 0 .089.073.162.163.162.09 0 .164-.073.164-.162Zm-19.073-.571v-.408h-.327v.816h.327Zm4.237 0v-.408h-.325v.816h.325Zm10.27.081c0-.089-.073-.162-.162-.162-.09 0-.163.073-.163.162 0 .09.073.163.163.163.089 0 .162-.073.162-.163Zm4.566 0c0-.089-.074-.162-.164-.162-.09 0-.163.073-.163.162 0 .09.073.163.163.163.09 0 .164-.073.164-.163Zm-35.865-.244v-.245h-4.89v.489h4.89Zm16.792-.978v-.407h-.327v.814h.327Zm4.237 0v-.407h-.325v.814h.325Zm-4.237-1.141v-.408h-.327v.815h.327Zm4.237 0v-.408h-.325v.815h.325Zm7.662-3.016v-.489h-2.607v.978h2.607Zm3.424-9.292c0-.089-.074-.162-.163-.162-.09 0-.164.073-.164.162 0 .089.074.163.164.163.089 0 .163-.074.163-.163Zm.651 0c0-.089-.073-.162-.162-.162-.089 0-.163.073-.163.162 0 .089.074.163.163.163.089 0 .162-.074.162-.163Zm.653 0c0-.089-.073-.162-.164-.162-.089 0-.162.073-.162.162 0 .089.073.163.162.163.091 0 .164-.074.164-.163Zm16.139 0v-.162h-8.478v-1.142h-.325v1.142h-2.772v-2.12h-3.097v2.12h-1.141v.325h15.813Zm-14.346-2.608c0-.09-.074-.163-.163-.163-.089 0-.163.073-.163.163 0 .09.074.163.163.163.089 0 .163-.073.163-.163Zm5.868-.733v-.734h6.847v-.326h-7.825v.326h.653v1.467h.325Zm-5.868.08c0-.089-.074-.162-.163-.162-.089 0-.163.073-.163.162 0 .091.074.164.163.164.089 0 .163-.073.163-.164Z"/>
      <path d="m482.101 733.071-.707-.35-.407-.616-.408-.618-.09-.662-.089-.664h6.443l-.089.664-.088.662-.411.621-.411.621-.714.346-.715.345h-1.608Z"/>
      <path d="M187.553 738.685c-4.866 2.795-9.73 5.588-14.595 8.382 1.243 2.184 2.456 4.384 3.676 6.581.36-.207.719-.415 1.078-.622.035.098.069.197.103.296-.331.198-.662.397-.994.597.758 1.375 1.515 2.749 2.273 4.125.163.044.324.086.487.13.992-.549 1.984-1.097 2.977-1.646l-2.466-4.398c-.382.193-.771.381-1.112.643-.063-.111-.128-.221-.192-.333.466-.225.931-.453 1.4-.672.861 1.492 1.723 2.983 2.584 4.475.214-.066.435-.116.629-.235 1.256-.663 2.491-1.363 3.73-2.056 1.712-.964 3.418-1.938 5.139-2.882.16-.083.324-.154.477-.251.515-.304 1.018-.628 1.517-.958-.409-.639-.82-1.277-1.23-1.915-2.281 1.275-4.554 2.565-6.85 3.812-.367.191-.726.4-1.109.556-.055.004-.148.064-.172 0-.203-.405-.403-.813-.64-1.199l-.188-.28c-.511.301-1.023.602-1.531.909-.535-.859-1.024-1.741-1.524-2.621-.551-.98-1.104-1.961-1.625-2.958-.03-.082-.116-.176-.094-.279 3.147-1.795 6.294-3.588 9.442-5.383-.362-.626-.723-1.252-1.085-1.878-.035.019-.071.04-.105.061Z"/>
      <path d="M501.472 764.475v-1.059h2.934v2.119h-2.934Z"/>
      <path d="M508.482 766.675v-3.259h3.749v6.52h-3.749Z"/>
      <path d="M504.733 766.675v-3.259h1.14v-.327h-1.14v-3.749h-.327v.978h-2.934v-2.771h2.934v.652h.327v-.652h.978v-.326h-3.424v-1.63h-.326v1.63h-4.075v-4.402h4.075v1.63h.326v-1.63h5.053v4.402h-.489v.326h1.467v-.326h-.651v-4.402h4.564v4.402h-2.771v.326h2.771v5.542h-5.216v.327h1.141v6.52h-3.423Z"/>
      <path d="M488.431 787.215v-1.956h2.282v.164c0 .089.073.162.164.162h.162v-.978h-.162c-.091 0-.164.074-.164.163v.164h-2.282v-4.076h2.282v2.609h.326v-.489h1.467v4.726h.163c.091 0 .164-.073.164-.162v-.163h1.303v1.792h-3.097v-2.445h-.326v2.445h-2.282Z"/>
      <path d="M379.671 751.05v5.044h.361v.567h-.309v2.882h-8.802v.412h-.515v-8.905h-5.044v10.706h5.044v-.72h.515v.72h10.758v-5.095h-.36v-.567h3.242v-5.044Z"/>
    </g>
  </g>
  
  
  
</svg>