<svg xmlns="http://www.w3.org/2000/svg" xmlns:xlink="http://www.w3.org/1999/xlink" xml:space="preserve" id="svg235" version="1.1" viewBox="0 0 977.09998 977.09998">
  <style id="style_common">
    .trees { fill:#144043 }
    .cement { fill:#c6c2c2 }
    .land { fill:#1f5054 }
    .rock { fill:#dcd5b6 }
    .water { fill:#4a6b96 }
    .wood { fill:#593700 }
    .tarmac { fill:#768089 }
    .gravel { fill:#946d3e }
    .building { fill:#1a2632 }
    .floor { fill:#70777f }
    .locked { fill:#37414c }
    .map_border { fill:none;stroke:#000;stroke-width:2 }
    .fence { fill:none;stroke:#c4e3c3;stroke-width:1 }
    .road_tarmac { fill:none;stroke:#888 }
    .road_gravel { fill:none;stroke:#946d3e }
    .road_small { stroke-width:5 }
    .road_medium { stroke-width:8 }
    .road_large { stroke-width:12 }
    .railroad { fill:none;stroke:#914833;stroke-dasharray:6;stroke-width:3 }
    .powerline { fill:none;stroke:#ffce00;stroke-width:2;stroke-miterlimit:10;stroke-dasharray:6,6 }
    .danger { fill:red;fill-opacity:.4;stroke:red;stroke-dasharray:4,2;stroke-width:2 }
    .task { fill:#000 }
    .stairs { fill:#FFD700 }
    .shadow { filter:drop-shadow(0 0 2px #000) }
  </style>
  <style id="style_interchange">
    .structure{ fill:#4b4b4b }
  </style>
  <defs id="defs1">
    <linearGradient id="rampDown_l2r">
      <stop id="stop200" offset="0" style="stop-color:#777777;stop-opacity:0;"/>
      <stop id="stop199" offset="1" style="stop-color:#000000;stop-opacity:0.5;"/>
    </linearGradient>
    <linearGradient id="rampDown_r2l">
      <stop id="stop84" offset="0" style="stop-color:#000000;stop-opacity:0.5;"/>
      <stop id="stop85" offset="1" style="stop-color:#777777;stop-opacity:0;"/>
    </linearGradient>
    <linearGradient id="rampUp_l2r">
      <stop id="stop168" offset="0" style="stop-color:#ffffff;stop-opacity:0;"/>
      <stop id="stop169" offset="1" style="stop-color:#ffffff;stop-opacity:0.5;"/>
    </linearGradient>
    <linearGradient id="rampUp_r2l">
      <stop id="stop176" offset="0" style="stop-color:#ffffff;stop-opacity:0.5;"/>
      <stop id="stop175" offset="1" style="stop-color:#ffffff;stop-opacity:0;"/>
    </linearGradient>
    <linearGradient xlink:href="#rampDown_l2r" id="linearGradient199" x1="559.72021" x2="580.3277" y1="616.02795" y2="616.02795" gradientUnits="userSpaceOnUse"/>
    <linearGradient xlink:href="#rampDown_l2r" id="linearGradient204" x1="615.41016" x2="636.92401" y1="475.4502" y2="475.4502" gradientUnits="userSpaceOnUse"/>
    <linearGradient xlink:href="#rampDown_l2r" id="linearGradient208" x1="559.91833" x2="580.39166" y1="335.18094" y2="335.18094" gradientUnits="userSpaceOnUse"/>
    <linearGradient xlink:href="#rampDown_l2r" id="linearGradient244" x1="654.29987" x2="666.34497" y1="622.46558" y2="622.46558" gradientUnits="userSpaceOnUse"/>
    <linearGradient xlink:href="#rampDown_r2l" id="linearGradient178" x1="534.58289" x2="551.11755" y1="475.25916" y2="475.25916" gradientUnits="userSpaceOnUse"/>
    <linearGradient xlink:href="#rampDown_r2l" id="linearGradient183" x1="562.59283" x2="578.76257" y1="648.22321" y2="648.22321" gradientUnits="userSpaceOnUse"/>
    <linearGradient xlink:href="#rampDown_r2l" id="linearGradient185" x1="689.42633" x2="716.38831" y1="638.20557" y2="638.20557" gradientUnits="userSpaceOnUse"/>
    <linearGradient xlink:href="#rampDown_r2l" id="linearGradient190" x1="653.56561" x2="665.01868" y1="326.37051" y2="326.37051" gradientUnits="userSpaceOnUse"/>
    <linearGradient xlink:href="#rampDown_r2l" id="linearGradient192" x1="563.65216" x2="577.10272" y1="216.61259" y2="216.61259" gradientUnits="userSpaceOnUse"/>
    <linearGradient xlink:href="#rampDown_r2l" id="linearGradient194" x1="547.94702" x2="578.65472" y1="313.95453" y2="313.95453" gradientUnits="userSpaceOnUse"/>
    <linearGradient xlink:href="#rampDown_r2l" id="linearGradient202" x1="675.54742" x2="697.62073" y1="475.55551" y2="475.55551" gradientUnits="userSpaceOnUse"/>
    <linearGradient xlink:href="#rampDown_r2l" id="linearGradient206" x1="575.14801" x2="596.96887" y1="475.6763" y2="475.6763" gradientUnits="userSpaceOnUse"/>
    <linearGradient xlink:href="#rampDown_r2l" id="linearGradient240" x1="887.88232" x2="887.88232" y1="481.81339" y2="469.19424" gradientUnits="userSpaceOnUse"/>
    <linearGradient xlink:href="#rampDown_r2l" id="linearGradient84" x1="655.97345" x2="655.97345" y1="565.0498" y2="554.98608" gradientUnits="userSpaceOnUse"/>
    <linearGradient xlink:href="#rampUp_l2r" id="linearGradient169" x1="674.61407" x2="687.49237" y1="475.59064" y2="475.59064" gradientUnits="userSpaceOnUse"/>
    <linearGradient xlink:href="#rampUp_l2r" id="linearGradient175" x1="574.55939" x2="586.74683" y1="475.59064" y2="475.59064" gradientUnits="userSpaceOnUse"/>
    <linearGradient xlink:href="#rampUp_l2r" id="linearGradient229" x1="566.33783" x2="574.46753" y1="216.59996" y2="216.59996" gradientUnits="userSpaceOnUse"/>
    <linearGradient xlink:href="#rampUp_l2r" id="linearGradient231" x1="547.76813" x2="566.72144" y1="314.01965" y2="314.01965" gradientUnits="userSpaceOnUse"/>
    <linearGradient xlink:href="#rampUp_l2r" id="linearGradient233" x1="534.90833" x2="545.61707" y1="475.27277" y2="475.27277" gradientUnits="userSpaceOnUse"/>
    <linearGradient xlink:href="#rampUp_l2r" id="linearGradient235" x1="563.2301" x2="574.45557" y1="648.18005" y2="648.18005" gradientUnits="userSpaceOnUse"/>
    <linearGradient xlink:href="#rampUp_l2r" id="linearGradient237" x1="652.07996" x2="652.07996" y1="570.19727" y2="552.70618" gradientUnits="userSpaceOnUse"/>
    <linearGradient xlink:href="#rampUp_l2r" id="linearGradient239" x1="688.47986" x2="705.50806" y1="638.04413" y2="638.04413" gradientUnits="userSpaceOnUse"/>
    <linearGradient xlink:href="#rampUp_r2l" id="linearGradient173" x1="624.84644" x2="637.6651" y1="475.40985" y2="475.40985" gradientUnits="userSpaceOnUse"/>
    <linearGradient xlink:href="#rampUp_r2l" id="linearGradient180" x1="569.98462" x2="582.73511" y1="615.86151" y2="615.86151" gradientUnits="userSpaceOnUse"/>
    <linearGradient xlink:href="#rampUp_r2l" id="linearGradient187" x1="569.39502" x2="583.13763" y1="335.23236" y2="335.23236" gradientUnits="userSpaceOnUse"/>
    <linearGradient xlink:href="#rampUp_r2l" id="linearGradient219" x1="887.76825" x2="887.76825" y1="481.87787" y2="469.13779" gradientUnits="userSpaceOnUse"/>
    <linearGradient xlink:href="#rampUp_r2l" id="linearGradient221" x1="882.4549" x2="882.4549" y1="298.95959" y2="261.57394" gradientUnits="userSpaceOnUse"/>
    <linearGradient xlink:href="#rampUp_r2l" id="linearGradient223" x1="848.27881" x2="886.75024" y1="182.32352" y2="182.32352" gradientUnits="userSpaceOnUse"/>
    <linearGradient xlink:href="#rampUp_r2l" id="linearGradient225" x1="882.44916" x2="882.44916" y1="650.49103" y2="691.24506" gradientUnits="userSpaceOnUse"/>
    <linearGradient xlink:href="#rampUp_r2l" id="linearGradient227" x1="848.47076" x2="886.86646" y1="767.81689" y2="767.81689" gradientUnits="userSpaceOnUse"/>
    <linearGradient xlink:href="#rampUp_r2l" id="linearGradient242" x1="660.83087" x2="668.61353" y1="326.46893" y2="326.46893" gradientUnits="userSpaceOnUse"/>
    <linearGradient xlink:href="#rampUp_r2l" id="linearGradient246" x1="660.5708" x2="669.35779" y1="622.61993" y2="622.61993" gradientUnits="userSpaceOnUse"/>
  </defs>
  
  <g id="First_Floor" data-name="First Floor">
    <g id="Structure-1" class="structure shadow" data-name="Structure">
      <path d="M609.974 139.454v10.948H478.506v136.724h-7.951v272.502h7.927v134.083h131.534v12.817h143.553V579.065h37.599l4.791-20.333V285.9l-4.791-18.552h-37.824V139.454Z"/>
    </g>
    <g id="Floor-1" class="cement">
      <path d="M479.903 151.86v26.347h21.001v29.366h-21.001v67.157h6.541v9.871h43.575v3.838h-57.823v119.585h-7.502v30.201h7.404v119.927h52.122v1.363h-5.651v2.241H499.67v27.765h-19.838v103.135H723.2V561.869h-78.838v-2.443h-63.107v-1.457h86.482v-50.078h2.88v50.078h106.75V448.405h17.38v-50.434h-17.444V288.1H669.279v49.694h-1.903V288.1h-97.584v-3.424H723.88V151.86Zm204.271 22.568h13.283v87.454h-13.54v-.947h12.455v-85.571h-12.198ZM548.19 249.982h.754v6.561l7.3 7.3h15.626v.643h-16.028l-7.652-7.653z"/>
    </g>
    <g id="Enclosed_Spaces-1" class="building" data-name="Enclosed Spaces">
      <path d="M472.262 288.496v113.42h10.519V301.098l8.859-5.114v-7.488z"/>
      <path d="M472.156 444.455v113.731h19.63v-7.442l-9.203-5.314V444.455Z"/>
      <path d="M494.931 488.431v51.814h32.956v-51.814z"/>
      <path d="M637.593 447.566v53.928h-36.872l-11.143 10.543H576.45l-9.966-9.932h-23.768v43.027l57.262.139v4.666h42.209v-33.172h16.601v-69.199z"/>
      <path d="M590.296 436.714v41.659l10.503 10.667h21.975v-52.326z"/>
      <path d="M543.087 359.037v13.073h-48.198v43.919h81.549v-47.43l-9.285-9.562z"/>
      <path d="M494.685 305.879v52.405h33.411v-52.405z"/>
      <path d="M600.239 296.535v4.595h-57.152v42.749h23.54l9.647-9.186h13.631l11.023 10.565h36.356v54.295h21.484v-70.91h-16.98v-32.107z"/>
      <path d="m600.903 357.649-10.667 10.667v41.758h32.501v-52.425z"/>
      <path d="M649.639 525.195v16.742h18.132v-16.742z"/>
      <path d="M479.793 589.324V633.1h19.921v-43.776z"/>
      <path d="M649.426 304.899v16.785h17.936v-16.785z"/>
      <path d="M486.043 641.035v26.131h18.526v-22.392h-9.324v-3.739z"/>
      <path d="M479.961 240.494v34.199h40.797v-17.737h-4.93v-16.462z"/>
      <path d="M479.851 151.684v21.058h36.098v-21.058z"/>
      <path d="M565.051 151.736v8.284h7.72v5.426h34.183v-13.71z"/>
      <path d="M665.304 584.742v43.455h25.401v-43.455z"/>
      <path d="m724.573 286.847.08 45.361 36.196-.029.167 67.751-18.505-.01v46.387l18.485.019.051 68.072-36.432-.088-.079 45.203h54.489V449.311h16.46v-52.742h-17.104V286.847Z"/>
      <path d="M576.552 431.182v46.893l-9.472 9.472h-24.364v-12.983h-47.885l.079-43.382z"/>
    </g>
    <g id="Ramps-1" class="road_tarmac road_small" data-name="Ramps" transform="translate(.339458 .675452) scale(.888877)">
      <path d="M655.957 554.108v11.925" style="stroke:url(#linearGradient84);stroke-width:12"/>
      <path d="M583.691 335.255H568.87" style="stroke:url(#linearGradient187)"/>
      <path d="M652.432 326.343h13.403" style="stroke:url(#linearGradient190)"/>
      <path d="M579.816 313.94h-33.074" style="stroke:url(#linearGradient194)"/>
      <path d="M563.053 216.585h17.896" style="stroke:url(#linearGradient192)"/>
      <path d="M717.221 638.191h-28.934" style="stroke:url(#linearGradient185)"/>
      <path d="M561.802 648.207h18.351" style="stroke:url(#linearGradient183)"/>
      <path d="M583.585 615.841h-14.653" style="stroke:url(#linearGradient180)"/>
      <path d="M533.691 475.249h18.362" style="stroke:url(#linearGradient178)"/>
      <path d="M573.383 475.528h14.56" style="stroke:url(#linearGradient175)"/>
      <path d="M638.579 475.435h-14.653" style="stroke:url(#linearGradient173)"/>
      <path d="M673.541 475.528h14.838" style="stroke:url(#linearGradient169)"/>
      <path d="M887.832 468.502v14.181" style="stroke:url(#linearGradient240)"/>
      <path d="M652.985 622.444h14.07" style="stroke:url(#linearGradient244)"/>
    </g>
  </g>
  
</svg>